<?xml version="1.0" encoding="utf-8" standalone="no"?>
<!DOCTYPE svg PUBLIC "-//W3C//DTD SVG 1.1//EN"
  "http://www.w3.org/Graphics/SVG/1.1/DTD/svg11.dtd">
<!-- Created with matplotlib (https://matplotlib.org/) -->
<svg height="708.55625pt" version="1.1" viewBox="0 0 711.979062 708.55625" width="711.979062pt" xmlns="http://www.w3.org/2000/svg" xmlns:xlink="http://www.w3.org/1999/xlink">
 <metadata>
  <rdf:RDF xmlns:cc="http://creativecommons.org/ns#" xmlns:dc="http://purl.org/dc/elements/1.1/" xmlns:rdf="http://www.w3.org/1999/02/22-rdf-syntax-ns#">
   <cc:Work>
    <dc:type rdf:resource="http://purl.org/dc/dcmitype/StillImage"/>
    <dc:date>2023-07-21T10:48:19.086416</dc:date>
    <dc:format>image/svg+xml</dc:format>
    <dc:creator>
     <cc:Agent>
      <dc:title>Matplotlib v3.3.4, https://matplotlib.org/</dc:title>
     </cc:Agent>
    </dc:creator>
   </cc:Work>
  </rdf:RDF>
 </metadata>
 <defs>
  <style type="text/css">*{stroke-linecap:butt;stroke-linejoin:round;}</style>
 </defs>
 <g id="figure_1">
  <g id="patch_1">
   <path d="M 0 708.55625 
L 711.979062 708.55625 
L 711.979062 0 
L 0 0 
z
" style="fill:none;"/>
  </g>
  <g id="axes_1">
   <g id="patch_2">
    <path d="M 54.979063 350.05 
L 372.729062 350.05 
L 372.729062 43.4 
L 54.979063 43.4 
z
" style="fill:#ffffff;"/>
   </g>
   <g id="matplotlib.axis_1">
    <g id="xtick_1">
     <g id="line2d_1">
      <defs>
       <path d="M 0 0 
L 0 3.5 
" id="m8baa945a6e" style="stroke:#000000;stroke-width:0.8;"/>
      </defs>
      <g>
       <use style="stroke:#000000;stroke-width:0.8;" x="69.422244" xlink:href="#m8baa945a6e" y="350.05"/>
      </g>
     </g>
    </g>
    <g id="xtick_2">
     <g id="line2d_2">
      <g>
       <use style="stroke:#000000;stroke-width:0.8;" x="127.194972" xlink:href="#m8baa945a6e" y="350.05"/>
      </g>
     </g>
    </g>
    <g id="xtick_3">
     <g id="line2d_3">
      <g>
       <use style="stroke:#000000;stroke-width:0.8;" x="184.967699" xlink:href="#m8baa945a6e" y="350.05"/>
      </g>
     </g>
    </g>
    <g id="xtick_4">
     <g id="line2d_4">
      <g>
       <use style="stroke:#000000;stroke-width:0.8;" x="242.740426" xlink:href="#m8baa945a6e" y="350.05"/>
      </g>
     </g>
    </g>
    <g id="xtick_5">
     <g id="line2d_5">
      <g>
       <use style="stroke:#000000;stroke-width:0.8;" x="300.513153" xlink:href="#m8baa945a6e" y="350.05"/>
      </g>
     </g>
    </g>
    <g id="xtick_6">
     <g id="line2d_6">
      <g>
       <use style="stroke:#000000;stroke-width:0.8;" x="358.285881" xlink:href="#m8baa945a6e" y="350.05"/>
      </g>
     </g>
    </g>
   </g>
   <g id="matplotlib.axis_2">
    <g id="ytick_1">
     <g id="line2d_7">
      <defs>
       <path d="M 0 0 
L -3.5 0 
" id="mbaa45d2469" style="stroke:#000000;stroke-width:0.8;"/>
      </defs>
      <g>
       <use style="stroke:#000000;stroke-width:0.8;" x="54.979063" xlink:href="#mbaa45d2469" y="311.021818"/>
      </g>
     </g>
     <g id="text_1">
      <!-- 0.5 -->
      <g transform="translate(32.075938 314.821037)scale(0.1 -0.1)">
       <defs>
        <path d="M 31.78125 66.40625 
Q 24.171875 66.40625 20.328125 58.90625 
Q 16.5 51.421875 16.5 36.375 
Q 16.5 21.390625 20.328125 13.890625 
Q 24.171875 6.390625 31.78125 6.390625 
Q 39.453125 6.390625 43.28125 13.890625 
Q 47.125 21.390625 47.125 36.375 
Q 47.125 51.421875 43.28125 58.90625 
Q 39.453125 66.40625 31.78125 66.40625 
z
M 31.78125 74.21875 
Q 44.046875 74.21875 50.515625 64.515625 
Q 56.984375 54.828125 56.984375 36.375 
Q 56.984375 17.96875 50.515625 8.265625 
Q 44.046875 -1.421875 31.78125 -1.421875 
Q 19.53125 -1.421875 13.0625 8.265625 
Q 6.59375 17.96875 6.59375 36.375 
Q 6.59375 54.828125 13.0625 64.515625 
Q 19.53125 74.21875 31.78125 74.21875 
z
" id="DejaVuSans-48"/>
        <path d="M 10.6875 12.40625 
L 21 12.40625 
L 21 0 
L 10.6875 0 
z
" id="DejaVuSans-46"/>
        <path d="M 10.796875 72.90625 
L 49.515625 72.90625 
L 49.515625 64.59375 
L 19.828125 64.59375 
L 19.828125 46.734375 
Q 21.96875 47.46875 24.109375 47.828125 
Q 26.265625 48.1875 28.421875 48.1875 
Q 40.625 48.1875 47.75 41.5 
Q 54.890625 34.8125 54.890625 23.390625 
Q 54.890625 11.625 47.5625 5.09375 
Q 40.234375 -1.421875 26.90625 -1.421875 
Q 22.3125 -1.421875 17.546875 -0.640625 
Q 12.796875 0.140625 7.71875 1.703125 
L 7.71875 11.625 
Q 12.109375 9.234375 16.796875 8.0625 
Q 21.484375 6.890625 26.703125 6.890625 
Q 35.15625 6.890625 40.078125 11.328125 
Q 45.015625 15.765625 45.015625 23.390625 
Q 45.015625 31 40.078125 35.4375 
Q 35.15625 39.890625 26.703125 39.890625 
Q 22.75 39.890625 18.8125 39.015625 
Q 14.890625 38.140625 10.796875 36.28125 
z
" id="DejaVuSans-53"/>
       </defs>
       <use xlink:href="#DejaVuSans-48"/>
       <use x="63.623047" xlink:href="#DejaVuSans-46"/>
       <use x="95.410156" xlink:href="#DejaVuSans-53"/>
      </g>
     </g>
    </g>
    <g id="ytick_2">
     <g id="line2d_8">
      <g>
       <use style="stroke:#000000;stroke-width:0.8;" x="54.979063" xlink:href="#mbaa45d2469" y="260.285182"/>
      </g>
     </g>
     <g id="text_2">
      <!-- 0.6 -->
      <g transform="translate(32.075938 264.084401)scale(0.1 -0.1)">
       <defs>
        <path d="M 33.015625 40.375 
Q 26.375 40.375 22.484375 35.828125 
Q 18.609375 31.296875 18.609375 23.390625 
Q 18.609375 15.53125 22.484375 10.953125 
Q 26.375 6.390625 33.015625 6.390625 
Q 39.65625 6.390625 43.53125 10.953125 
Q 47.40625 15.53125 47.40625 23.390625 
Q 47.40625 31.296875 43.53125 35.828125 
Q 39.65625 40.375 33.015625 40.375 
z
M 52.59375 71.296875 
L 52.59375 62.3125 
Q 48.875 64.0625 45.09375 64.984375 
Q 41.3125 65.921875 37.59375 65.921875 
Q 27.828125 65.921875 22.671875 59.328125 
Q 17.53125 52.734375 16.796875 39.40625 
Q 19.671875 43.65625 24.015625 45.921875 
Q 28.375 48.1875 33.59375 48.1875 
Q 44.578125 48.1875 50.953125 41.515625 
Q 57.328125 34.859375 57.328125 23.390625 
Q 57.328125 12.15625 50.6875 5.359375 
Q 44.046875 -1.421875 33.015625 -1.421875 
Q 20.359375 -1.421875 13.671875 8.265625 
Q 6.984375 17.96875 6.984375 36.375 
Q 6.984375 53.65625 15.1875 63.9375 
Q 23.390625 74.21875 37.203125 74.21875 
Q 40.921875 74.21875 44.703125 73.484375 
Q 48.484375 72.75 52.59375 71.296875 
z
" id="DejaVuSans-54"/>
       </defs>
       <use xlink:href="#DejaVuSans-48"/>
       <use x="63.623047" xlink:href="#DejaVuSans-46"/>
       <use x="95.410156" xlink:href="#DejaVuSans-54"/>
      </g>
     </g>
    </g>
    <g id="ytick_3">
     <g id="line2d_9">
      <g>
       <use style="stroke:#000000;stroke-width:0.8;" x="54.979063" xlink:href="#mbaa45d2469" y="209.548545"/>
      </g>
     </g>
     <g id="text_3">
      <!-- 0.7 -->
      <g transform="translate(32.075938 213.347764)scale(0.1 -0.1)">
       <defs>
        <path d="M 8.203125 72.90625 
L 55.078125 72.90625 
L 55.078125 68.703125 
L 28.609375 0 
L 18.3125 0 
L 43.21875 64.59375 
L 8.203125 64.59375 
z
" id="DejaVuSans-55"/>
       </defs>
       <use xlink:href="#DejaVuSans-48"/>
       <use x="63.623047" xlink:href="#DejaVuSans-46"/>
       <use x="95.410156" xlink:href="#DejaVuSans-55"/>
      </g>
     </g>
    </g>
    <g id="ytick_4">
     <g id="line2d_10">
      <g>
       <use style="stroke:#000000;stroke-width:0.8;" x="54.979063" xlink:href="#mbaa45d2469" y="158.811909"/>
      </g>
     </g>
     <g id="text_4">
      <!-- 0.8 -->
      <g transform="translate(32.075938 162.611128)scale(0.1 -0.1)">
       <defs>
        <path d="M 31.78125 34.625 
Q 24.75 34.625 20.71875 30.859375 
Q 16.703125 27.09375 16.703125 20.515625 
Q 16.703125 13.921875 20.71875 10.15625 
Q 24.75 6.390625 31.78125 6.390625 
Q 38.8125 6.390625 42.859375 10.171875 
Q 46.921875 13.96875 46.921875 20.515625 
Q 46.921875 27.09375 42.890625 30.859375 
Q 38.875 34.625 31.78125 34.625 
z
M 21.921875 38.8125 
Q 15.578125 40.375 12.03125 44.71875 
Q 8.5 49.078125 8.5 55.328125 
Q 8.5 64.0625 14.71875 69.140625 
Q 20.953125 74.21875 31.78125 74.21875 
Q 42.671875 74.21875 48.875 69.140625 
Q 55.078125 64.0625 55.078125 55.328125 
Q 55.078125 49.078125 51.53125 44.71875 
Q 48 40.375 41.703125 38.8125 
Q 48.828125 37.15625 52.796875 32.3125 
Q 56.78125 27.484375 56.78125 20.515625 
Q 56.78125 9.90625 50.3125 4.234375 
Q 43.84375 -1.421875 31.78125 -1.421875 
Q 19.734375 -1.421875 13.25 4.234375 
Q 6.78125 9.90625 6.78125 20.515625 
Q 6.78125 27.484375 10.78125 32.3125 
Q 14.796875 37.15625 21.921875 38.8125 
z
M 18.3125 54.390625 
Q 18.3125 48.734375 21.84375 45.5625 
Q 25.390625 42.390625 31.78125 42.390625 
Q 38.140625 42.390625 41.71875 45.5625 
Q 45.3125 48.734375 45.3125 54.390625 
Q 45.3125 60.0625 41.71875 63.234375 
Q 38.140625 66.40625 31.78125 66.40625 
Q 25.390625 66.40625 21.84375 63.234375 
Q 18.3125 60.0625 18.3125 54.390625 
z
" id="DejaVuSans-56"/>
       </defs>
       <use xlink:href="#DejaVuSans-48"/>
       <use x="63.623047" xlink:href="#DejaVuSans-46"/>
       <use x="95.410156" xlink:href="#DejaVuSans-56"/>
      </g>
     </g>
    </g>
    <g id="ytick_5">
     <g id="line2d_11">
      <g>
       <use style="stroke:#000000;stroke-width:0.8;" x="54.979063" xlink:href="#mbaa45d2469" y="108.075273"/>
      </g>
     </g>
     <g id="text_5">
      <!-- 0.9 -->
      <g transform="translate(32.075938 111.874491)scale(0.1 -0.1)">
       <defs>
        <path d="M 10.984375 1.515625 
L 10.984375 10.5 
Q 14.703125 8.734375 18.5 7.8125 
Q 22.3125 6.890625 25.984375 6.890625 
Q 35.75 6.890625 40.890625 13.453125 
Q 46.046875 20.015625 46.78125 33.40625 
Q 43.953125 29.203125 39.59375 26.953125 
Q 35.25 24.703125 29.984375 24.703125 
Q 19.046875 24.703125 12.671875 31.3125 
Q 6.296875 37.9375 6.296875 49.421875 
Q 6.296875 60.640625 12.9375 67.421875 
Q 19.578125 74.21875 30.609375 74.21875 
Q 43.265625 74.21875 49.921875 64.515625 
Q 56.59375 54.828125 56.59375 36.375 
Q 56.59375 19.140625 48.40625 8.859375 
Q 40.234375 -1.421875 26.421875 -1.421875 
Q 22.703125 -1.421875 18.890625 -0.6875 
Q 15.09375 0.046875 10.984375 1.515625 
z
M 30.609375 32.421875 
Q 37.25 32.421875 41.125 36.953125 
Q 45.015625 41.5 45.015625 49.421875 
Q 45.015625 57.28125 41.125 61.84375 
Q 37.25 66.40625 30.609375 66.40625 
Q 23.96875 66.40625 20.09375 61.84375 
Q 16.21875 57.28125 16.21875 49.421875 
Q 16.21875 41.5 20.09375 36.953125 
Q 23.96875 32.421875 30.609375 32.421875 
z
" id="DejaVuSans-57"/>
       </defs>
       <use xlink:href="#DejaVuSans-48"/>
       <use x="63.623047" xlink:href="#DejaVuSans-46"/>
       <use x="95.410156" xlink:href="#DejaVuSans-57"/>
      </g>
     </g>
    </g>
    <g id="ytick_6">
     <g id="line2d_12">
      <g>
       <use style="stroke:#000000;stroke-width:0.8;" x="54.979063" xlink:href="#mbaa45d2469" y="57.338636"/>
      </g>
     </g>
     <g id="text_6">
      <!-- 1.0 -->
      <g transform="translate(32.075938 61.137855)scale(0.1 -0.1)">
       <defs>
        <path d="M 12.40625 8.296875 
L 28.515625 8.296875 
L 28.515625 63.921875 
L 10.984375 60.40625 
L 10.984375 69.390625 
L 28.421875 72.90625 
L 38.28125 72.90625 
L 38.28125 8.296875 
L 54.390625 8.296875 
L 54.390625 0 
L 12.40625 0 
z
" id="DejaVuSans-49"/>
       </defs>
       <use xlink:href="#DejaVuSans-49"/>
       <use x="63.623047" xlink:href="#DejaVuSans-46"/>
       <use x="95.410156" xlink:href="#DejaVuSans-48"/>
      </g>
     </g>
    </g>
    <g id="text_7">
     <!-- Different variance  -->
     <g transform="translate(14.798438 243.414062)rotate(-90)scale(0.1 -0.1)">
      <defs>
       <path d="M 19.671875 64.796875 
L 19.671875 8.109375 
L 31.59375 8.109375 
Q 46.6875 8.109375 53.6875 14.9375 
Q 60.6875 21.78125 60.6875 36.53125 
Q 60.6875 51.171875 53.6875 57.984375 
Q 46.6875 64.796875 31.59375 64.796875 
z
M 9.8125 72.90625 
L 30.078125 72.90625 
Q 51.265625 72.90625 61.171875 64.09375 
Q 71.09375 55.28125 71.09375 36.53125 
Q 71.09375 17.671875 61.125 8.828125 
Q 51.171875 0 30.078125 0 
L 9.8125 0 
z
" id="DejaVuSans-68"/>
       <path d="M 9.421875 54.6875 
L 18.40625 54.6875 
L 18.40625 0 
L 9.421875 0 
z
M 9.421875 75.984375 
L 18.40625 75.984375 
L 18.40625 64.59375 
L 9.421875 64.59375 
z
" id="DejaVuSans-105"/>
       <path d="M 37.109375 75.984375 
L 37.109375 68.5 
L 28.515625 68.5 
Q 23.6875 68.5 21.796875 66.546875 
Q 19.921875 64.59375 19.921875 59.515625 
L 19.921875 54.6875 
L 34.71875 54.6875 
L 34.71875 47.703125 
L 19.921875 47.703125 
L 19.921875 0 
L 10.890625 0 
L 10.890625 47.703125 
L 2.296875 47.703125 
L 2.296875 54.6875 
L 10.890625 54.6875 
L 10.890625 58.5 
Q 10.890625 67.625 15.140625 71.796875 
Q 19.390625 75.984375 28.609375 75.984375 
z
" id="DejaVuSans-102"/>
       <path d="M 56.203125 29.59375 
L 56.203125 25.203125 
L 14.890625 25.203125 
Q 15.484375 15.921875 20.484375 11.0625 
Q 25.484375 6.203125 34.421875 6.203125 
Q 39.59375 6.203125 44.453125 7.46875 
Q 49.3125 8.734375 54.109375 11.28125 
L 54.109375 2.78125 
Q 49.265625 0.734375 44.1875 -0.34375 
Q 39.109375 -1.421875 33.890625 -1.421875 
Q 20.796875 -1.421875 13.15625 6.1875 
Q 5.515625 13.8125 5.515625 26.8125 
Q 5.515625 40.234375 12.765625 48.109375 
Q 20.015625 56 32.328125 56 
Q 43.359375 56 49.78125 48.890625 
Q 56.203125 41.796875 56.203125 29.59375 
z
M 47.21875 32.234375 
Q 47.125 39.59375 43.09375 43.984375 
Q 39.0625 48.390625 32.421875 48.390625 
Q 24.90625 48.390625 20.390625 44.140625 
Q 15.875 39.890625 15.1875 32.171875 
z
" id="DejaVuSans-101"/>
       <path d="M 41.109375 46.296875 
Q 39.59375 47.171875 37.8125 47.578125 
Q 36.03125 48 33.890625 48 
Q 26.265625 48 22.1875 43.046875 
Q 18.109375 38.09375 18.109375 28.8125 
L 18.109375 0 
L 9.078125 0 
L 9.078125 54.6875 
L 18.109375 54.6875 
L 18.109375 46.1875 
Q 20.953125 51.171875 25.484375 53.578125 
Q 30.03125 56 36.53125 56 
Q 37.453125 56 38.578125 55.875 
Q 39.703125 55.765625 41.0625 55.515625 
z
" id="DejaVuSans-114"/>
       <path d="M 54.890625 33.015625 
L 54.890625 0 
L 45.90625 0 
L 45.90625 32.71875 
Q 45.90625 40.484375 42.875 44.328125 
Q 39.84375 48.1875 33.796875 48.1875 
Q 26.515625 48.1875 22.3125 43.546875 
Q 18.109375 38.921875 18.109375 30.90625 
L 18.109375 0 
L 9.078125 0 
L 9.078125 54.6875 
L 18.109375 54.6875 
L 18.109375 46.1875 
Q 21.34375 51.125 25.703125 53.5625 
Q 30.078125 56 35.796875 56 
Q 45.21875 56 50.046875 50.171875 
Q 54.890625 44.34375 54.890625 33.015625 
z
" id="DejaVuSans-110"/>
       <path d="M 18.3125 70.21875 
L 18.3125 54.6875 
L 36.8125 54.6875 
L 36.8125 47.703125 
L 18.3125 47.703125 
L 18.3125 18.015625 
Q 18.3125 11.328125 20.140625 9.421875 
Q 21.96875 7.515625 27.59375 7.515625 
L 36.8125 7.515625 
L 36.8125 0 
L 27.59375 0 
Q 17.1875 0 13.234375 3.875 
Q 9.28125 7.765625 9.28125 18.015625 
L 9.28125 47.703125 
L 2.6875 47.703125 
L 2.6875 54.6875 
L 9.28125 54.6875 
L 9.28125 70.21875 
z
" id="DejaVuSans-116"/>
       <path id="DejaVuSans-32"/>
       <path d="M 2.984375 54.6875 
L 12.5 54.6875 
L 29.59375 8.796875 
L 46.6875 54.6875 
L 56.203125 54.6875 
L 35.6875 0 
L 23.484375 0 
z
" id="DejaVuSans-118"/>
       <path d="M 34.28125 27.484375 
Q 23.390625 27.484375 19.1875 25 
Q 14.984375 22.515625 14.984375 16.5 
Q 14.984375 11.71875 18.140625 8.90625 
Q 21.296875 6.109375 26.703125 6.109375 
Q 34.1875 6.109375 38.703125 11.40625 
Q 43.21875 16.703125 43.21875 25.484375 
L 43.21875 27.484375 
z
M 52.203125 31.203125 
L 52.203125 0 
L 43.21875 0 
L 43.21875 8.296875 
Q 40.140625 3.328125 35.546875 0.953125 
Q 30.953125 -1.421875 24.3125 -1.421875 
Q 15.921875 -1.421875 10.953125 3.296875 
Q 6 8.015625 6 15.921875 
Q 6 25.140625 12.171875 29.828125 
Q 18.359375 34.515625 30.609375 34.515625 
L 43.21875 34.515625 
L 43.21875 35.40625 
Q 43.21875 41.609375 39.140625 45 
Q 35.0625 48.390625 27.6875 48.390625 
Q 23 48.390625 18.546875 47.265625 
Q 14.109375 46.140625 10.015625 43.890625 
L 10.015625 52.203125 
Q 14.9375 54.109375 19.578125 55.046875 
Q 24.21875 56 28.609375 56 
Q 40.484375 56 46.34375 49.84375 
Q 52.203125 43.703125 52.203125 31.203125 
z
" id="DejaVuSans-97"/>
       <path d="M 48.78125 52.59375 
L 48.78125 44.1875 
Q 44.96875 46.296875 41.140625 47.34375 
Q 37.3125 48.390625 33.40625 48.390625 
Q 24.65625 48.390625 19.8125 42.84375 
Q 14.984375 37.3125 14.984375 27.296875 
Q 14.984375 17.28125 19.8125 11.734375 
Q 24.65625 6.203125 33.40625 6.203125 
Q 37.3125 6.203125 41.140625 7.25 
Q 44.96875 8.296875 48.78125 10.40625 
L 48.78125 2.09375 
Q 45.015625 0.34375 40.984375 -0.53125 
Q 36.96875 -1.421875 32.421875 -1.421875 
Q 20.0625 -1.421875 12.78125 6.34375 
Q 5.515625 14.109375 5.515625 27.296875 
Q 5.515625 40.671875 12.859375 48.328125 
Q 20.21875 56 33.015625 56 
Q 37.15625 56 41.109375 55.140625 
Q 45.0625 54.296875 48.78125 52.59375 
z
" id="DejaVuSans-99"/>
      </defs>
      <use xlink:href="#DejaVuSans-68"/>
      <use x="77.001953" xlink:href="#DejaVuSans-105"/>
      <use x="104.785156" xlink:href="#DejaVuSans-102"/>
      <use x="139.990234" xlink:href="#DejaVuSans-102"/>
      <use x="175.195312" xlink:href="#DejaVuSans-101"/>
      <use x="236.71875" xlink:href="#DejaVuSans-114"/>
      <use x="275.582031" xlink:href="#DejaVuSans-101"/>
      <use x="337.105469" xlink:href="#DejaVuSans-110"/>
      <use x="400.484375" xlink:href="#DejaVuSans-116"/>
      <use x="439.693359" xlink:href="#DejaVuSans-32"/>
      <use x="471.480469" xlink:href="#DejaVuSans-118"/>
      <use x="530.660156" xlink:href="#DejaVuSans-97"/>
      <use x="591.939453" xlink:href="#DejaVuSans-114"/>
      <use x="633.052734" xlink:href="#DejaVuSans-105"/>
      <use x="660.835938" xlink:href="#DejaVuSans-97"/>
      <use x="722.115234" xlink:href="#DejaVuSans-110"/>
      <use x="785.494141" xlink:href="#DejaVuSans-99"/>
      <use x="840.474609" xlink:href="#DejaVuSans-101"/>
      <use x="901.998047" xlink:href="#DejaVuSans-32"/>
     </g>
     <!--  Precision -->
     <g transform="translate(25.99625 220.621094)rotate(-90)scale(0.1 -0.1)">
      <defs>
       <path d="M 19.671875 64.796875 
L 19.671875 37.40625 
L 32.078125 37.40625 
Q 38.96875 37.40625 42.71875 40.96875 
Q 46.484375 44.53125 46.484375 51.125 
Q 46.484375 57.671875 42.71875 61.234375 
Q 38.96875 64.796875 32.078125 64.796875 
z
M 9.8125 72.90625 
L 32.078125 72.90625 
Q 44.34375 72.90625 50.609375 67.359375 
Q 56.890625 61.8125 56.890625 51.125 
Q 56.890625 40.328125 50.609375 34.8125 
Q 44.34375 29.296875 32.078125 29.296875 
L 19.671875 29.296875 
L 19.671875 0 
L 9.8125 0 
z
" id="DejaVuSans-80"/>
       <path d="M 44.28125 53.078125 
L 44.28125 44.578125 
Q 40.484375 46.53125 36.375 47.5 
Q 32.28125 48.484375 27.875 48.484375 
Q 21.1875 48.484375 17.84375 46.4375 
Q 14.5 44.390625 14.5 40.28125 
Q 14.5 37.15625 16.890625 35.375 
Q 19.28125 33.59375 26.515625 31.984375 
L 29.59375 31.296875 
Q 39.15625 29.25 43.1875 25.515625 
Q 47.21875 21.78125 47.21875 15.09375 
Q 47.21875 7.46875 41.1875 3.015625 
Q 35.15625 -1.421875 24.609375 -1.421875 
Q 20.21875 -1.421875 15.453125 -0.5625 
Q 10.6875 0.296875 5.421875 2 
L 5.421875 11.28125 
Q 10.40625 8.6875 15.234375 7.390625 
Q 20.0625 6.109375 24.8125 6.109375 
Q 31.15625 6.109375 34.5625 8.28125 
Q 37.984375 10.453125 37.984375 14.40625 
Q 37.984375 18.0625 35.515625 20.015625 
Q 33.0625 21.96875 24.703125 23.78125 
L 21.578125 24.515625 
Q 13.234375 26.265625 9.515625 29.90625 
Q 5.8125 33.546875 5.8125 39.890625 
Q 5.8125 47.609375 11.28125 51.796875 
Q 16.75 56 26.8125 56 
Q 31.78125 56 36.171875 55.265625 
Q 40.578125 54.546875 44.28125 53.078125 
z
" id="DejaVuSans-115"/>
       <path d="M 30.609375 48.390625 
Q 23.390625 48.390625 19.1875 42.75 
Q 14.984375 37.109375 14.984375 27.296875 
Q 14.984375 17.484375 19.15625 11.84375 
Q 23.34375 6.203125 30.609375 6.203125 
Q 37.796875 6.203125 41.984375 11.859375 
Q 46.1875 17.53125 46.1875 27.296875 
Q 46.1875 37.015625 41.984375 42.703125 
Q 37.796875 48.390625 30.609375 48.390625 
z
M 30.609375 56 
Q 42.328125 56 49.015625 48.375 
Q 55.71875 40.765625 55.71875 27.296875 
Q 55.71875 13.875 49.015625 6.21875 
Q 42.328125 -1.421875 30.609375 -1.421875 
Q 18.84375 -1.421875 12.171875 6.21875 
Q 5.515625 13.875 5.515625 27.296875 
Q 5.515625 40.765625 12.171875 48.375 
Q 18.84375 56 30.609375 56 
z
" id="DejaVuSans-111"/>
      </defs>
      <use xlink:href="#DejaVuSans-32"/>
      <use x="31.787109" xlink:href="#DejaVuSans-80"/>
      <use x="90.339844" xlink:href="#DejaVuSans-114"/>
      <use x="129.203125" xlink:href="#DejaVuSans-101"/>
      <use x="190.726562" xlink:href="#DejaVuSans-99"/>
      <use x="245.707031" xlink:href="#DejaVuSans-105"/>
      <use x="273.490234" xlink:href="#DejaVuSans-115"/>
      <use x="325.589844" xlink:href="#DejaVuSans-105"/>
      <use x="353.373047" xlink:href="#DejaVuSans-111"/>
      <use x="414.554688" xlink:href="#DejaVuSans-110"/>
     </g>
    </g>
   </g>
   <g id="line2d_13">
    <path clip-path="url(#p581c4f2499)" d="M 358.285881 296.257189 
L 355.397244 296.257189 
L 355.397244 297.528032 
L 355.397244 296.099278 
L 352.508608 296.099278 
L 352.508608 297.382937 
L 352.508608 277.295152 
L 349.619972 277.295152 
L 349.619972 278.573969 
L 349.619972 268.231884 
L 346.731335 268.231884 
L 346.731335 269.510025 
L 346.731335 250.465188 
L 343.842699 250.465188 
L 343.842699 251.719256 
L 343.842699 241.216379 
L 340.954062 241.216379 
L 340.954062 242.458796 
L 338.065426 242.458796 
L 338.065426 243.718117 
L 338.065426 234.739463 
L 335.17679 234.739463 
L 335.17679 235.988764 
L 335.17679 226.460758 
L 332.288153 226.460758 
L 332.288153 227.695226 
L 332.288153 156.117928 
L 329.399517 156.117928 
L 329.399517 156.999886 
L 329.399517 153.326867 
L 326.510881 153.326867 
L 326.510881 154.199488 
L 326.510881 146.597534 
L 323.622244 146.597534 
L 323.622244 147.431729 
L 323.622244 143.495189 
L 320.733608 143.495189 
L 320.733608 144.315727 
L 317.844972 144.315727 
L 317.844972 145.152045 
L 314.956335 145.152045 
L 314.956335 146.004603 
L 312.067699 146.004603 
L 312.067699 146.873877 
L 312.067699 138.517255 
L 309.179062 138.517255 
L 309.179062 139.337241 
L 309.179062 134.996753 
L 306.290426 134.996753 
L 306.290426 135.797352 
L 306.290426 131.329564 
L 303.40179 131.329564 
L 303.40179 132.108416 
L 300.513153 132.108416 
L 300.513153 132.903839 
L 297.624517 132.903839 
L 297.624517 133.716369 
L 294.735881 133.716369 
L 294.735881 134.546561 
L 294.735881 129.819545 
L 291.847244 129.819545 
L 291.847244 130.624889 
L 288.958608 130.624889 
L 288.958608 131.44833 
L 286.069972 131.44833 
L 286.069972 132.290486 
L 283.181335 132.290486 
L 283.181335 133.152001 
L 280.292699 133.152001 
L 280.292699 134.033552 
L 277.404063 134.033552 
L 277.404063 134.935845 
L 277.404063 129.819545 
L 274.515426 129.819545 
L 274.515426 130.692809 
L 271.62679 130.692809 
L 271.62679 131.587373 
L 271.62679 84.763845 
L 268.738153 84.763845 
L 268.738153 85.139533 
L 268.738153 71.630647 
L 265.849517 71.630647 
L 265.849517 71.834818 
L 262.960881 71.834818 
L 262.960881 72.044908 
L 262.960881 64.799906 
L 260.072244 64.799906 
L 260.072244 64.911269 
L 257.183608 64.911269 
L 257.183608 65.026006 
L 254.294972 65.026006 
L 254.294972 65.144273 
L 251.406335 65.144273 
L 251.406335 65.266236 
L 248.517699 65.266236 
L 248.517699 65.392071 
L 245.629063 65.392071 
L 245.629063 65.521965 
L 245.629063 57.338636 
L 69.422244 57.338636 
L 69.422244 57.338636 
" style="fill:none;stroke:#4daf4a;stroke-linecap:square;stroke-width:1.5;"/>
   </g>
   <g id="line2d_14">
    <path clip-path="url(#p581c4f2499)" d="M 358.285881 260.892806 
L 355.397244 260.892806 
L 355.397244 258.428963 
L 355.397244 258.428963 
L 355.397244 254.647778 
L 355.397244 254.647778 
L 355.397244 250.772062 
L 355.397244 250.772062 
L 355.397244 244.773344 
L 355.397244 244.773344 
L 355.397244 238.540909 
L 355.397244 238.540909 
L 355.397244 234.249276 
L 355.397244 234.249276 
L 355.397244 229.8432 
L 355.397244 229.8432 
L 355.397244 227.595805 
L 355.397244 227.595805 
L 355.397244 223.009286 
L 355.397244 223.009286 
L 355.397244 218.296241 
L 355.397244 218.296241 
L 355.397244 210.977746 
L 355.397244 210.977746 
L 355.397244 208.469043 
L 355.397244 208.469043 
L 355.397244 203.343345 
L 355.397244 203.343345 
L 355.397244 200.724783 
L 355.397244 200.724783 
L 355.397244 192.636333 
L 355.397244 192.636333 
L 355.397244 181.275458 
L 355.397244 181.275458 
L 355.397244 175.330814 
L 355.397244 175.330814 
L 355.397244 172.288828 
L 355.397244 172.288828 
L 355.397244 166.06 
L 355.397244 166.06 
L 355.397244 162.87084 
L 352.508608 162.87084 
L 352.508608 163.721906 
L 352.508608 163.721906 
L 352.508608 157.148413 
L 352.508608 157.148413 
L 352.508608 153.780177 
L 352.508608 153.780177 
L 352.508608 146.873877 
L 352.508608 146.873877 
L 352.508608 136.0679 
L 352.508608 136.0679 
L 352.508608 132.340621 
L 352.508608 132.340621 
L 352.508608 116.759922 
L 352.508608 116.759922 
L 352.508608 112.687694 
L 352.508608 112.687694 
L 352.508608 108.540746 
L 352.508608 108.540746 
L 352.508608 104.317003 
L 352.508608 104.317003 
L 352.508608 100.014312 
L 349.619972 100.014312 
L 349.619972 95.995121 
L 346.731335 95.995121 
L 346.731335 96.366818 
L 343.842699 96.366818 
L 343.842699 82.706955 
L 340.954062 82.706955 
L 340.954062 78.047468 
L 338.065426 78.047468 
L 338.065426 78.260961 
L 335.17679 78.260961 
L 335.17679 78.478902 
L 332.288153 78.478902 
L 332.288153 78.701431 
L 329.399517 78.701431 
L 329.399517 78.928694 
L 323.622244 78.928694 
L 323.622244 79.398043 
L 323.622244 79.398043 
L 323.622244 68.613444 
L 314.956335 68.613444 
L 314.956335 69.002231 
L 312.067699 69.002231 
L 312.067699 69.137854 
L 309.179062 69.137854 
L 309.179062 63.378712 
L 309.179062 63.378712 
L 309.179062 57.338636 
L 297.624517 57.338636 
L 297.624517 57.338636 
L 291.847244 57.338636 
L 291.847244 57.338636 
L 274.515426 57.338636 
L 274.515426 57.338636 
L 69.422244 57.338636 
L 69.422244 57.338636 
" style="fill:none;stroke:#984ea3;stroke-linecap:square;stroke-width:1.5;"/>
   </g>
   <g id="patch_3">
    <path d="M 54.979063 350.05 
L 54.979063 43.4 
" style="fill:none;stroke:#000000;stroke-linecap:square;stroke-linejoin:miter;stroke-width:0.8;"/>
   </g>
   <g id="patch_4">
    <path d="M 372.729062 350.05 
L 372.729062 43.4 
" style="fill:none;stroke:#000000;stroke-linecap:square;stroke-linejoin:miter;stroke-width:0.8;"/>
   </g>
   <g id="patch_5">
    <path d="M 54.979063 350.05 
L 372.729062 350.05 
" style="fill:none;stroke:#000000;stroke-linecap:square;stroke-linejoin:miter;stroke-width:0.8;"/>
   </g>
   <g id="patch_6">
    <path d="M 54.979063 43.4 
L 372.729062 43.4 
" style="fill:none;stroke:#000000;stroke-linecap:square;stroke-linejoin:miter;stroke-width:0.8;"/>
   </g>
   <g id="text_8">
    <!-- Linear -->
    <g transform="translate(195.20625 37.4)scale(0.12 -0.12)">
     <defs>
      <path d="M 9.8125 72.90625 
L 19.671875 72.90625 
L 19.671875 8.296875 
L 55.171875 8.296875 
L 55.171875 0 
L 9.8125 0 
z
" id="DejaVuSans-76"/>
     </defs>
     <use xlink:href="#DejaVuSans-76"/>
     <use x="55.712891" xlink:href="#DejaVuSans-105"/>
     <use x="83.496094" xlink:href="#DejaVuSans-110"/>
     <use x="146.875" xlink:href="#DejaVuSans-101"/>
     <use x="208.398438" xlink:href="#DejaVuSans-97"/>
     <use x="269.677734" xlink:href="#DejaVuSans-114"/>
    </g>
   </g>
  </g>
  <g id="axes_2">
   <g id="patch_7">
    <path d="M 387.029063 350.05 
L 704.779063 350.05 
L 704.779063 43.4 
L 387.029063 43.4 
z
" style="fill:#ffffff;"/>
   </g>
   <g id="matplotlib.axis_3">
    <g id="xtick_7">
     <g id="line2d_15">
      <g>
       <use style="stroke:#000000;stroke-width:0.8;" x="401.472244" xlink:href="#m8baa945a6e" y="350.05"/>
      </g>
     </g>
    </g>
    <g id="xtick_8">
     <g id="line2d_16">
      <g>
       <use style="stroke:#000000;stroke-width:0.8;" x="459.244972" xlink:href="#m8baa945a6e" y="350.05"/>
      </g>
     </g>
    </g>
    <g id="xtick_9">
     <g id="line2d_17">
      <g>
       <use style="stroke:#000000;stroke-width:0.8;" x="517.017699" xlink:href="#m8baa945a6e" y="350.05"/>
      </g>
     </g>
    </g>
    <g id="xtick_10">
     <g id="line2d_18">
      <g>
       <use style="stroke:#000000;stroke-width:0.8;" x="574.790426" xlink:href="#m8baa945a6e" y="350.05"/>
      </g>
     </g>
    </g>
    <g id="xtick_11">
     <g id="line2d_19">
      <g>
       <use style="stroke:#000000;stroke-width:0.8;" x="632.563153" xlink:href="#m8baa945a6e" y="350.05"/>
      </g>
     </g>
    </g>
    <g id="xtick_12">
     <g id="line2d_20">
      <g>
       <use style="stroke:#000000;stroke-width:0.8;" x="690.335881" xlink:href="#m8baa945a6e" y="350.05"/>
      </g>
     </g>
    </g>
   </g>
   <g id="matplotlib.axis_4">
    <g id="ytick_7">
     <g id="line2d_21">
      <g>
       <use style="stroke:#000000;stroke-width:0.8;" x="387.029063" xlink:href="#mbaa45d2469" y="311.021818"/>
      </g>
     </g>
    </g>
    <g id="ytick_8">
     <g id="line2d_22">
      <g>
       <use style="stroke:#000000;stroke-width:0.8;" x="387.029063" xlink:href="#mbaa45d2469" y="260.285182"/>
      </g>
     </g>
    </g>
    <g id="ytick_9">
     <g id="line2d_23">
      <g>
       <use style="stroke:#000000;stroke-width:0.8;" x="387.029063" xlink:href="#mbaa45d2469" y="209.548545"/>
      </g>
     </g>
    </g>
    <g id="ytick_10">
     <g id="line2d_24">
      <g>
       <use style="stroke:#000000;stroke-width:0.8;" x="387.029063" xlink:href="#mbaa45d2469" y="158.811909"/>
      </g>
     </g>
    </g>
    <g id="ytick_11">
     <g id="line2d_25">
      <g>
       <use style="stroke:#000000;stroke-width:0.8;" x="387.029063" xlink:href="#mbaa45d2469" y="108.075273"/>
      </g>
     </g>
    </g>
    <g id="ytick_12">
     <g id="line2d_26">
      <g>
       <use style="stroke:#000000;stroke-width:0.8;" x="387.029063" xlink:href="#mbaa45d2469" y="57.338636"/>
      </g>
     </g>
    </g>
   </g>
   <g id="line2d_27">
    <path clip-path="url(#p03c3566fee)" d="M 690.335881 311.021818 
L 687.447244 311.021818 
L 687.447244 312.296608 
L 684.558608 312.296608 
L 684.558608 313.584275 
L 681.669972 313.584275 
L 681.669972 314.885014 
L 678.781335 314.885014 
L 678.781335 316.199026 
L 675.892699 316.199026 
L 675.892699 317.526515 
L 673.004062 317.526515 
L 673.004062 318.86769 
L 670.115426 318.86769 
L 670.115426 320.222763 
L 667.22679 320.222763 
L 667.22679 321.591951 
L 664.338153 321.591951 
L 664.338153 322.975476 
L 661.449517 322.975476 
L 661.449517 324.373565 
L 658.560881 324.373565 
L 658.560881 325.786448 
L 655.672244 325.786448 
L 655.672244 327.214362 
L 652.783608 327.214362 
L 652.783608 328.657547 
L 649.894972 328.657547 
L 649.894972 330.116251 
L 647.006335 330.116251 
L 647.006335 331.590725 
L 644.117699 331.590725 
L 644.117699 333.081225 
L 641.229063 333.081225 
L 641.229063 334.588015 
L 638.340426 334.588015 
L 638.340426 336.111364 
L 638.340426 332.280185 
L 635.45179 332.280185 
L 635.45179 333.824801 
L 635.45179 332.520393 
L 632.563153 332.520393 
L 632.563153 334.083926 
L 629.674517 334.083926 
L 629.674517 335.665327 
L 629.674517 330.307674 
L 626.785881 330.307674 
L 626.785881 331.913374 
L 626.785881 330.535909 
L 623.897244 330.535909 
L 623.897244 332.162083 
L 621.008608 332.162083 
L 621.008608 333.807733 
L 621.008608 332.416785 
L 618.119972 332.416785 
L 618.119972 334.083926 
L 618.119972 329.813165 
L 615.231335 329.813165 
L 615.231335 331.505553 
L 615.231335 330.048057 
L 612.342699 330.048057 
L 612.342699 331.76321 
L 612.342699 327.283561 
L 609.454062 327.283561 
L 609.454062 329.025141 
L 609.454062 316.199026 
L 606.565426 316.199026 
L 606.565426 317.972042 
L 606.565426 316.270436 
L 603.67679 316.270436 
L 603.67679 318.068573 
L 603.67679 278.288504 
L 600.788153 278.288504 
L 600.788153 280.084845 
L 600.788153 277.751893 
L 597.899517 277.751893 
L 597.899517 279.57349 
L 597.899517 272.324384 
L 595.010881 272.324384 
L 595.010881 274.161869 
L 595.010881 203.071528 
L 592.122244 203.071528 
L 592.122244 204.638548 
L 592.122244 170.749941 
L 589.233608 170.749941 
L 589.233608 172.100076 
L 589.233608 167.369896 
L 586.344972 167.369896 
L 586.344972 168.711741 
L 583.456335 168.711741 
L 583.456335 170.086717 
L 583.456335 154.909091 
L 580.567699 154.909091 
L 580.567699 156.17624 
L 580.567699 150.800861 
L 577.679062 150.800861 
L 577.679062 152.047024 
L 577.679062 146.470565 
L 574.790426 146.470565 
L 574.790426 147.69155 
L 571.90179 147.69155 
L 571.90179 148.946452 
L 571.90179 143.090698 
L 569.013153 143.090698 
L 569.013153 144.315727 
L 569.013153 138.223129 
L 566.124517 138.223129 
L 566.124517 139.412607 
L 566.124517 112.831832 
L 563.235881 112.831832 
L 563.235881 113.712677 
L 560.347244 113.712677 
L 560.347244 114.621935 
L 560.347244 83.581724 
L 557.458608 83.581724 
L 557.458608 84.042129 
L 557.458608 75.458864 
L 554.569972 75.458864 
L 554.569972 75.788322 
L 554.569972 57.338636 
L 401.472244 57.338636 
L 401.472244 57.338636 
" style="fill:none;stroke:#4daf4a;stroke-linecap:square;stroke-width:1.5;"/>
   </g>
   <g id="line2d_28">
    <path clip-path="url(#p03c3566fee)" d="M 690.335881 264.488217 
L 687.447244 264.488217 
L 687.447244 265.72125 
L 687.447244 265.72125 
L 687.447244 262.119036 
L 687.447244 262.119036 
L 687.447244 258.428963 
L 687.447244 258.428963 
L 687.447244 254.647778 
L 687.447244 254.647778 
L 687.447244 250.772062 
L 687.447244 250.772062 
L 687.447244 244.773344 
L 687.447244 244.773344 
L 687.447244 238.540909 
L 687.447244 238.540909 
L 687.447244 234.249276 
L 684.558608 234.249276 
L 684.558608 235.42087 
L 684.558608 235.42087 
L 684.558608 231.000949 
L 684.558608 231.000949 
L 684.558608 228.746192 
L 684.558608 228.746192 
L 684.558608 224.144016 
L 681.669972 224.144016 
L 681.669972 225.294398 
L 681.669972 225.294398 
L 681.669972 220.547397 
L 681.669972 220.547397 
L 681.669972 213.172591 
L 681.669972 213.172591 
L 681.669972 210.643581 
L 681.669972 210.643581 
L 681.669972 205.474801 
L 681.669972 205.474801 
L 681.669972 202.833402 
L 681.669972 202.833402 
L 681.669972 194.670885 
L 681.669972 194.670885 
L 681.669972 183.196959 
L 681.669972 183.196959 
L 681.669972 177.188958 
L 678.781335 177.188958 
L 678.781335 175.047633 
L 678.781335 175.047633 
L 678.781335 168.711741 
L 678.781335 168.711741 
L 678.781335 165.465894 
L 675.892699 165.465894 
L 675.892699 159.664626 
L 675.892699 159.664626 
L 675.892699 156.23208 
L 675.892699 156.23208 
L 675.892699 149.189444 
L 675.892699 149.189444 
L 675.892699 138.158057 
L 673.004062 138.158057 
L 673.004062 135.043395 
L 673.004062 135.043395 
L 673.004062 118.981279 
L 673.004062 118.981279 
L 673.004062 114.776338 
L 673.004062 114.776338 
L 673.004062 110.491303 
L 670.115426 110.491303 
L 670.115426 111.002386 
L 664.338153 111.002386 
L 664.338153 112.054617 
L 661.449517 112.054617 
L 661.449517 108.075273 
L 661.449517 108.075273 
L 661.449517 103.462851 
L 661.449517 103.462851 
L 661.449517 98.756299 
L 661.449517 98.756299 
L 661.449517 84.042129 
L 661.449517 84.042129 
L 661.449517 78.928694 
L 658.560881 78.928694 
L 658.560881 79.160846 
L 652.783608 79.160846 
L 652.783608 68.740128 
L 647.006335 68.740128 
L 647.006335 69.002231 
L 644.117699 69.002231 
L 644.117699 63.307652 
L 641.229063 63.307652 
L 641.229063 57.338636 
L 635.45179 57.338636 
L 635.45179 57.338636 
L 401.472244 57.338636 
L 401.472244 57.338636 
" style="fill:none;stroke:#984ea3;stroke-linecap:square;stroke-width:1.5;"/>
   </g>
   <g id="patch_8">
    <path d="M 387.029063 350.05 
L 387.029063 43.4 
" style="fill:none;stroke:#000000;stroke-linecap:square;stroke-linejoin:miter;stroke-width:0.8;"/>
   </g>
   <g id="patch_9">
    <path d="M 704.779063 350.05 
L 704.779063 43.4 
" style="fill:none;stroke:#000000;stroke-linecap:square;stroke-linejoin:miter;stroke-width:0.8;"/>
   </g>
   <g id="patch_10">
    <path d="M 387.029063 350.05 
L 704.779063 350.05 
" style="fill:none;stroke:#000000;stroke-linecap:square;stroke-linejoin:miter;stroke-width:0.8;"/>
   </g>
   <g id="patch_11">
    <path d="M 387.029063 43.4 
L 704.779063 43.4 
" style="fill:none;stroke:#000000;stroke-linecap:square;stroke-linejoin:miter;stroke-width:0.8;"/>
   </g>
   <g id="text_9">
    <!-- Parabola -->
    <g transform="translate(519.911875 37.4)scale(0.12 -0.12)">
     <defs>
      <path d="M 48.6875 27.296875 
Q 48.6875 37.203125 44.609375 42.84375 
Q 40.53125 48.484375 33.40625 48.484375 
Q 26.265625 48.484375 22.1875 42.84375 
Q 18.109375 37.203125 18.109375 27.296875 
Q 18.109375 17.390625 22.1875 11.75 
Q 26.265625 6.109375 33.40625 6.109375 
Q 40.53125 6.109375 44.609375 11.75 
Q 48.6875 17.390625 48.6875 27.296875 
z
M 18.109375 46.390625 
Q 20.953125 51.265625 25.265625 53.625 
Q 29.59375 56 35.59375 56 
Q 45.5625 56 51.78125 48.09375 
Q 58.015625 40.1875 58.015625 27.296875 
Q 58.015625 14.40625 51.78125 6.484375 
Q 45.5625 -1.421875 35.59375 -1.421875 
Q 29.59375 -1.421875 25.265625 0.953125 
Q 20.953125 3.328125 18.109375 8.203125 
L 18.109375 0 
L 9.078125 0 
L 9.078125 75.984375 
L 18.109375 75.984375 
z
" id="DejaVuSans-98"/>
      <path d="M 9.421875 75.984375 
L 18.40625 75.984375 
L 18.40625 0 
L 9.421875 0 
z
" id="DejaVuSans-108"/>
     </defs>
     <use xlink:href="#DejaVuSans-80"/>
     <use x="55.802734" xlink:href="#DejaVuSans-97"/>
     <use x="117.082031" xlink:href="#DejaVuSans-114"/>
     <use x="158.195312" xlink:href="#DejaVuSans-97"/>
     <use x="219.474609" xlink:href="#DejaVuSans-98"/>
     <use x="282.951172" xlink:href="#DejaVuSans-111"/>
     <use x="344.132812" xlink:href="#DejaVuSans-108"/>
     <use x="371.916016" xlink:href="#DejaVuSans-97"/>
    </g>
   </g>
  </g>
  <g id="axes_3">
   <g id="patch_12">
    <path d="M 54.979063 671 
L 372.729062 671 
L 372.729062 364.35 
L 54.979063 364.35 
z
" style="fill:#ffffff;"/>
   </g>
   <g id="matplotlib.axis_5">
    <g id="xtick_13">
     <g id="line2d_29">
      <g>
       <use style="stroke:#000000;stroke-width:0.8;" x="69.422244" xlink:href="#m8baa945a6e" y="671"/>
      </g>
     </g>
     <g id="text_10">
      <!-- 0.0 -->
      <g transform="translate(61.470682 685.598437)scale(0.1 -0.1)">
       <use xlink:href="#DejaVuSans-48"/>
       <use x="63.623047" xlink:href="#DejaVuSans-46"/>
       <use x="95.410156" xlink:href="#DejaVuSans-48"/>
      </g>
     </g>
    </g>
    <g id="xtick_14">
     <g id="line2d_30">
      <g>
       <use style="stroke:#000000;stroke-width:0.8;" x="127.194972" xlink:href="#m8baa945a6e" y="671"/>
      </g>
     </g>
     <g id="text_11">
      <!-- 0.2 -->
      <g transform="translate(119.243409 685.598437)scale(0.1 -0.1)">
       <defs>
        <path d="M 19.1875 8.296875 
L 53.609375 8.296875 
L 53.609375 0 
L 7.328125 0 
L 7.328125 8.296875 
Q 12.9375 14.109375 22.625 23.890625 
Q 32.328125 33.6875 34.8125 36.53125 
Q 39.546875 41.84375 41.421875 45.53125 
Q 43.3125 49.21875 43.3125 52.78125 
Q 43.3125 58.59375 39.234375 62.25 
Q 35.15625 65.921875 28.609375 65.921875 
Q 23.96875 65.921875 18.8125 64.3125 
Q 13.671875 62.703125 7.8125 59.421875 
L 7.8125 69.390625 
Q 13.765625 71.78125 18.9375 73 
Q 24.125 74.21875 28.421875 74.21875 
Q 39.75 74.21875 46.484375 68.546875 
Q 53.21875 62.890625 53.21875 53.421875 
Q 53.21875 48.921875 51.53125 44.890625 
Q 49.859375 40.875 45.40625 35.40625 
Q 44.1875 33.984375 37.640625 27.21875 
Q 31.109375 20.453125 19.1875 8.296875 
z
" id="DejaVuSans-50"/>
       </defs>
       <use xlink:href="#DejaVuSans-48"/>
       <use x="63.623047" xlink:href="#DejaVuSans-46"/>
       <use x="95.410156" xlink:href="#DejaVuSans-50"/>
      </g>
     </g>
    </g>
    <g id="xtick_15">
     <g id="line2d_31">
      <g>
       <use style="stroke:#000000;stroke-width:0.8;" x="184.967699" xlink:href="#m8baa945a6e" y="671"/>
      </g>
     </g>
     <g id="text_12">
      <!-- 0.4 -->
      <g transform="translate(177.016136 685.598437)scale(0.1 -0.1)">
       <defs>
        <path d="M 37.796875 64.3125 
L 12.890625 25.390625 
L 37.796875 25.390625 
z
M 35.203125 72.90625 
L 47.609375 72.90625 
L 47.609375 25.390625 
L 58.015625 25.390625 
L 58.015625 17.1875 
L 47.609375 17.1875 
L 47.609375 0 
L 37.796875 0 
L 37.796875 17.1875 
L 4.890625 17.1875 
L 4.890625 26.703125 
z
" id="DejaVuSans-52"/>
       </defs>
       <use xlink:href="#DejaVuSans-48"/>
       <use x="63.623047" xlink:href="#DejaVuSans-46"/>
       <use x="95.410156" xlink:href="#DejaVuSans-52"/>
      </g>
     </g>
    </g>
    <g id="xtick_16">
     <g id="line2d_32">
      <g>
       <use style="stroke:#000000;stroke-width:0.8;" x="242.740426" xlink:href="#m8baa945a6e" y="671"/>
      </g>
     </g>
     <g id="text_13">
      <!-- 0.6 -->
      <g transform="translate(234.788864 685.598437)scale(0.1 -0.1)">
       <use xlink:href="#DejaVuSans-48"/>
       <use x="63.623047" xlink:href="#DejaVuSans-46"/>
       <use x="95.410156" xlink:href="#DejaVuSans-54"/>
      </g>
     </g>
    </g>
    <g id="xtick_17">
     <g id="line2d_33">
      <g>
       <use style="stroke:#000000;stroke-width:0.8;" x="300.513153" xlink:href="#m8baa945a6e" y="671"/>
      </g>
     </g>
     <g id="text_14">
      <!-- 0.8 -->
      <g transform="translate(292.561591 685.598437)scale(0.1 -0.1)">
       <use xlink:href="#DejaVuSans-48"/>
       <use x="63.623047" xlink:href="#DejaVuSans-46"/>
       <use x="95.410156" xlink:href="#DejaVuSans-56"/>
      </g>
     </g>
    </g>
    <g id="xtick_18">
     <g id="line2d_34">
      <g>
       <use style="stroke:#000000;stroke-width:0.8;" x="358.285881" xlink:href="#m8baa945a6e" y="671"/>
      </g>
     </g>
     <g id="text_15">
      <!-- 1.0 -->
      <g transform="translate(350.334318 685.598437)scale(0.1 -0.1)">
       <use xlink:href="#DejaVuSans-49"/>
       <use x="63.623047" xlink:href="#DejaVuSans-46"/>
       <use x="95.410156" xlink:href="#DejaVuSans-48"/>
      </g>
     </g>
    </g>
    <g id="text_16">
     <!-- Recall -->
     <g transform="translate(198.936875 699.276562)scale(0.1 -0.1)">
      <defs>
       <path d="M 44.390625 34.1875 
Q 47.5625 33.109375 50.5625 29.59375 
Q 53.5625 26.078125 56.59375 19.921875 
L 66.609375 0 
L 56 0 
L 46.6875 18.703125 
Q 43.0625 26.03125 39.671875 28.421875 
Q 36.28125 30.8125 30.421875 30.8125 
L 19.671875 30.8125 
L 19.671875 0 
L 9.8125 0 
L 9.8125 72.90625 
L 32.078125 72.90625 
Q 44.578125 72.90625 50.734375 67.671875 
Q 56.890625 62.453125 56.890625 51.90625 
Q 56.890625 45.015625 53.6875 40.46875 
Q 50.484375 35.9375 44.390625 34.1875 
z
M 19.671875 64.796875 
L 19.671875 38.921875 
L 32.078125 38.921875 
Q 39.203125 38.921875 42.84375 42.21875 
Q 46.484375 45.515625 46.484375 51.90625 
Q 46.484375 58.296875 42.84375 61.546875 
Q 39.203125 64.796875 32.078125 64.796875 
z
" id="DejaVuSans-82"/>
      </defs>
      <use xlink:href="#DejaVuSans-82"/>
      <use x="64.982422" xlink:href="#DejaVuSans-101"/>
      <use x="126.505859" xlink:href="#DejaVuSans-99"/>
      <use x="181.486328" xlink:href="#DejaVuSans-97"/>
      <use x="242.765625" xlink:href="#DejaVuSans-108"/>
      <use x="270.548828" xlink:href="#DejaVuSans-108"/>
     </g>
    </g>
   </g>
   <g id="matplotlib.axis_6">
    <g id="ytick_13">
     <g id="line2d_35">
      <g>
       <use style="stroke:#000000;stroke-width:0.8;" x="54.979063" xlink:href="#mbaa45d2469" y="631.971818"/>
      </g>
     </g>
     <g id="text_17">
      <!-- 0.5 -->
      <g transform="translate(32.075938 635.771037)scale(0.1 -0.1)">
       <use xlink:href="#DejaVuSans-48"/>
       <use x="63.623047" xlink:href="#DejaVuSans-46"/>
       <use x="95.410156" xlink:href="#DejaVuSans-53"/>
      </g>
     </g>
    </g>
    <g id="ytick_14">
     <g id="line2d_36">
      <g>
       <use style="stroke:#000000;stroke-width:0.8;" x="54.979063" xlink:href="#mbaa45d2469" y="581.235182"/>
      </g>
     </g>
     <g id="text_18">
      <!-- 0.6 -->
      <g transform="translate(32.075938 585.034401)scale(0.1 -0.1)">
       <use xlink:href="#DejaVuSans-48"/>
       <use x="63.623047" xlink:href="#DejaVuSans-46"/>
       <use x="95.410156" xlink:href="#DejaVuSans-54"/>
      </g>
     </g>
    </g>
    <g id="ytick_15">
     <g id="line2d_37">
      <g>
       <use style="stroke:#000000;stroke-width:0.8;" x="54.979063" xlink:href="#mbaa45d2469" y="530.498545"/>
      </g>
     </g>
     <g id="text_19">
      <!-- 0.7 -->
      <g transform="translate(32.075938 534.297764)scale(0.1 -0.1)">
       <use xlink:href="#DejaVuSans-48"/>
       <use x="63.623047" xlink:href="#DejaVuSans-46"/>
       <use x="95.410156" xlink:href="#DejaVuSans-55"/>
      </g>
     </g>
    </g>
    <g id="ytick_16">
     <g id="line2d_38">
      <g>
       <use style="stroke:#000000;stroke-width:0.8;" x="54.979063" xlink:href="#mbaa45d2469" y="479.761909"/>
      </g>
     </g>
     <g id="text_20">
      <!-- 0.8 -->
      <g transform="translate(32.075938 483.561128)scale(0.1 -0.1)">
       <use xlink:href="#DejaVuSans-48"/>
       <use x="63.623047" xlink:href="#DejaVuSans-46"/>
       <use x="95.410156" xlink:href="#DejaVuSans-56"/>
      </g>
     </g>
    </g>
    <g id="ytick_17">
     <g id="line2d_39">
      <g>
       <use style="stroke:#000000;stroke-width:0.8;" x="54.979063" xlink:href="#mbaa45d2469" y="429.025273"/>
      </g>
     </g>
     <g id="text_21">
      <!-- 0.9 -->
      <g transform="translate(32.075938 432.824491)scale(0.1 -0.1)">
       <use xlink:href="#DejaVuSans-48"/>
       <use x="63.623047" xlink:href="#DejaVuSans-46"/>
       <use x="95.410156" xlink:href="#DejaVuSans-57"/>
      </g>
     </g>
    </g>
    <g id="ytick_18">
     <g id="line2d_40">
      <g>
       <use style="stroke:#000000;stroke-width:0.8;" x="54.979063" xlink:href="#mbaa45d2469" y="378.288636"/>
      </g>
     </g>
     <g id="text_22">
      <!-- 1.0 -->
      <g transform="translate(32.075938 382.087855)scale(0.1 -0.1)">
       <use xlink:href="#DejaVuSans-49"/>
       <use x="63.623047" xlink:href="#DejaVuSans-46"/>
       <use x="95.410156" xlink:href="#DejaVuSans-48"/>
      </g>
     </g>
    </g>
    <g id="text_23">
     <!-- Same variance  -->
     <g transform="translate(14.798438 556.564844)rotate(-90)scale(0.1 -0.1)">
      <defs>
       <path d="M 53.515625 70.515625 
L 53.515625 60.890625 
Q 47.90625 63.578125 42.921875 64.890625 
Q 37.9375 66.21875 33.296875 66.21875 
Q 25.25 66.21875 20.875 63.09375 
Q 16.5 59.96875 16.5 54.203125 
Q 16.5 49.359375 19.40625 46.890625 
Q 22.3125 44.4375 30.421875 42.921875 
L 36.375 41.703125 
Q 47.40625 39.59375 52.65625 34.296875 
Q 57.90625 29 57.90625 20.125 
Q 57.90625 9.515625 50.796875 4.046875 
Q 43.703125 -1.421875 29.984375 -1.421875 
Q 24.8125 -1.421875 18.96875 -0.25 
Q 13.140625 0.921875 6.890625 3.21875 
L 6.890625 13.375 
Q 12.890625 10.015625 18.65625 8.296875 
Q 24.421875 6.59375 29.984375 6.59375 
Q 38.421875 6.59375 43.015625 9.90625 
Q 47.609375 13.234375 47.609375 19.390625 
Q 47.609375 24.75 44.3125 27.78125 
Q 41.015625 30.8125 33.5 32.328125 
L 27.484375 33.5 
Q 16.453125 35.6875 11.515625 40.375 
Q 6.59375 45.0625 6.59375 53.421875 
Q 6.59375 63.09375 13.40625 68.65625 
Q 20.21875 74.21875 32.171875 74.21875 
Q 37.3125 74.21875 42.625 73.28125 
Q 47.953125 72.359375 53.515625 70.515625 
z
" id="DejaVuSans-83"/>
       <path d="M 52 44.1875 
Q 55.375 50.25 60.0625 53.125 
Q 64.75 56 71.09375 56 
Q 79.640625 56 84.28125 50.015625 
Q 88.921875 44.046875 88.921875 33.015625 
L 88.921875 0 
L 79.890625 0 
L 79.890625 32.71875 
Q 79.890625 40.578125 77.09375 44.375 
Q 74.3125 48.1875 68.609375 48.1875 
Q 61.625 48.1875 57.5625 43.546875 
Q 53.515625 38.921875 53.515625 30.90625 
L 53.515625 0 
L 44.484375 0 
L 44.484375 32.71875 
Q 44.484375 40.625 41.703125 44.40625 
Q 38.921875 48.1875 33.109375 48.1875 
Q 26.21875 48.1875 22.15625 43.53125 
Q 18.109375 38.875 18.109375 30.90625 
L 18.109375 0 
L 9.078125 0 
L 9.078125 54.6875 
L 18.109375 54.6875 
L 18.109375 46.1875 
Q 21.1875 51.21875 25.484375 53.609375 
Q 29.78125 56 35.6875 56 
Q 41.65625 56 45.828125 52.96875 
Q 50 49.953125 52 44.1875 
z
" id="DejaVuSans-109"/>
      </defs>
      <use xlink:href="#DejaVuSans-83"/>
      <use x="63.476562" xlink:href="#DejaVuSans-97"/>
      <use x="124.755859" xlink:href="#DejaVuSans-109"/>
      <use x="222.167969" xlink:href="#DejaVuSans-101"/>
      <use x="283.691406" xlink:href="#DejaVuSans-32"/>
      <use x="315.478516" xlink:href="#DejaVuSans-118"/>
      <use x="374.658203" xlink:href="#DejaVuSans-97"/>
      <use x="435.9375" xlink:href="#DejaVuSans-114"/>
      <use x="477.050781" xlink:href="#DejaVuSans-105"/>
      <use x="504.833984" xlink:href="#DejaVuSans-97"/>
      <use x="566.113281" xlink:href="#DejaVuSans-110"/>
      <use x="629.492188" xlink:href="#DejaVuSans-99"/>
      <use x="684.472656" xlink:href="#DejaVuSans-101"/>
      <use x="745.996094" xlink:href="#DejaVuSans-32"/>
     </g>
     <!--  Precision -->
     <g transform="translate(25.99625 541.571094)rotate(-90)scale(0.1 -0.1)">
      <use xlink:href="#DejaVuSans-32"/>
      <use x="31.787109" xlink:href="#DejaVuSans-80"/>
      <use x="90.339844" xlink:href="#DejaVuSans-114"/>
      <use x="129.203125" xlink:href="#DejaVuSans-101"/>
      <use x="190.726562" xlink:href="#DejaVuSans-99"/>
      <use x="245.707031" xlink:href="#DejaVuSans-105"/>
      <use x="273.490234" xlink:href="#DejaVuSans-115"/>
      <use x="325.589844" xlink:href="#DejaVuSans-105"/>
      <use x="353.373047" xlink:href="#DejaVuSans-111"/>
      <use x="414.554688" xlink:href="#DejaVuSans-110"/>
     </g>
    </g>
   </g>
   <g id="line2d_41">
    <path clip-path="url(#p1ceb10046f)" d="M 358.285881 631.971818 
L 355.397244 631.971818 
L 355.397244 633.246608 
L 352.508608 633.246608 
L 352.508608 634.534275 
L 349.619972 634.534275 
L 349.619972 635.835014 
L 349.619972 618.184689 
L 346.731335 618.184689 
L 346.731335 619.495596 
L 346.731335 607.328309 
L 343.842699 607.328309 
L 343.842699 608.644629 
L 343.842699 593.534972 
L 340.954062 593.534972 
L 340.954062 594.84745 
L 340.954062 567.705412 
L 338.065426 567.705412 
L 338.065426 568.976666 
L 338.065426 566.836947 
L 335.17679 566.836947 
L 335.17679 568.119589 
L 335.17679 490.081225 
L 332.288153 490.081225 
L 332.288153 491.036717 
L 332.288153 465.924645 
L 329.399517 465.924645 
L 329.399517 466.728645 
L 329.399517 462.849697 
L 326.510881 462.849697 
L 326.510881 463.639987 
L 326.510881 455.601606 
L 323.622244 455.601606 
L 323.622244 456.345 
L 320.733608 456.345 
L 320.733608 457.102829 
L 320.733608 452.901337 
L 317.844972 452.901337 
L 317.844972 453.640077 
L 317.844972 449.319927 
L 314.956335 449.319927 
L 314.956335 450.037415 
L 314.956335 445.592338 
L 312.067699 445.592338 
L 312.067699 446.28619 
L 309.179062 446.28619 
L 309.179062 446.994498 
L 309.179062 427.922302 
L 306.290426 427.922302 
L 306.290426 428.467727 
L 306.290426 401.887072 
L 303.40179 401.887072 
L 303.40179 402.164701 
L 300.513153 402.164701 
L 300.513153 402.448939 
L 300.513153 384.552419 
L 297.624517 384.552419 
L 297.624517 384.630716 
L 297.624517 378.288636 
L 69.422244 378.288636 
L 69.422244 378.288636 
" style="fill:none;stroke:#4daf4a;stroke-linecap:square;stroke-width:1.5;"/>
   </g>
   <g id="line2d_42">
    <path clip-path="url(#p1ceb10046f)" d="M 358.285881 629.409362 
L 355.397244 629.409362 
L 355.397244 629.383214 
L 355.397244 626.741237 
L 349.619972 626.686752 
L 349.619972 616.723102 
L 346.731335 616.723102 
L 346.731335 595.731364 
L 343.842699 595.731364 
L 343.842699 591.753753 
L 340.954062 591.753753 
L 340.954062 593.063355 
L 340.954062 561.216645 
L 338.065426 561.216645 
L 338.065426 562.469577 
L 338.065426 555.689463 
L 335.17679 555.689463 
L 335.17679 552.242818 
L 332.288153 552.242818 
L 332.288153 553.494287 
L 332.288153 548.645226 
L 329.399517 548.645226 
L 329.399517 511.368338 
L 326.510881 511.368338 
L 326.510881 506.196123 
L 323.622244 506.196123 
L 323.622244 483.418604 
L 320.733608 483.418604 
L 320.733608 461.223523 
L 317.844972 461.223523 
L 317.844972 462.028716 
L 317.844972 435.825028 
L 314.956335 435.825028 
L 314.956335 436.424366 
L 312.067699 436.424366 
L 312.067699 437.036321 
L 309.179062 437.036321 
L 309.179062 437.661296 
L 309.179062 422.892273 
L 306.290426 422.892273 
L 306.290426 423.387869 
L 306.290426 401.887072 
L 303.40179 401.887072 
L 303.40179 402.164701 
L 300.513153 402.164701 
L 300.513153 402.448939 
L 297.624517 402.448939 
L 297.624517 402.740027 
L 294.735881 402.740027 
L 294.735881 403.038215 
L 294.735881 390.972795 
L 291.847244 390.972795 
L 291.847244 384.793333 
L 286.069972 384.793333 
L 286.069972 378.288636 
L 69.422244 378.288636 
L 69.422244 378.288636 
" style="fill:none;stroke:#984ea3;stroke-linecap:square;stroke-width:1.5;"/>
   </g>
   <g id="patch_13">
    <path d="M 54.979063 671 
L 54.979063 364.35 
" style="fill:none;stroke:#000000;stroke-linecap:square;stroke-linejoin:miter;stroke-width:0.8;"/>
   </g>
   <g id="patch_14">
    <path d="M 372.729062 671 
L 372.729062 364.35 
" style="fill:none;stroke:#000000;stroke-linecap:square;stroke-linejoin:miter;stroke-width:0.8;"/>
   </g>
   <g id="patch_15">
    <path d="M 54.979063 671 
L 372.729062 671 
" style="fill:none;stroke:#000000;stroke-linecap:square;stroke-linejoin:miter;stroke-width:0.8;"/>
   </g>
   <g id="patch_16">
    <path d="M 54.979063 364.35 
L 372.729062 364.35 
" style="fill:none;stroke:#000000;stroke-linecap:square;stroke-linejoin:miter;stroke-width:0.8;"/>
   </g>
   <g id="legend_1">
    <g id="patch_17">
     <path d="M 61.979063 666 
L 153.150937 666 
Q 155.150937 666 155.150937 664 
L 155.150937 635.64375 
Q 155.150937 633.64375 153.150937 633.64375 
L 61.979063 633.64375 
Q 59.979063 633.64375 59.979063 635.64375 
L 59.979063 664 
Q 59.979063 666 61.979063 666 
z
" style="fill:#ffffff;opacity:0.8;stroke:#cccccc;stroke-linejoin:miter;"/>
    </g>
    <g id="line2d_43">
     <path d="M 63.979063 641.742187 
L 83.979062 641.742187 
" style="fill:none;stroke:#4daf4a;stroke-linecap:square;stroke-width:1.5;"/>
    </g>
    <g id="line2d_44"/>
    <g id="text_24">
     <!-- CIT -->
     <g transform="translate(91.979062 645.242187)scale(0.1 -0.1)">
      <defs>
       <path d="M 64.40625 67.28125 
L 64.40625 56.890625 
Q 59.421875 61.53125 53.78125 63.8125 
Q 48.140625 66.109375 41.796875 66.109375 
Q 29.296875 66.109375 22.65625 58.46875 
Q 16.015625 50.828125 16.015625 36.375 
Q 16.015625 21.96875 22.65625 14.328125 
Q 29.296875 6.6875 41.796875 6.6875 
Q 48.140625 6.6875 53.78125 8.984375 
Q 59.421875 11.28125 64.40625 15.921875 
L 64.40625 5.609375 
Q 59.234375 2.09375 53.4375 0.328125 
Q 47.65625 -1.421875 41.21875 -1.421875 
Q 24.65625 -1.421875 15.125 8.703125 
Q 5.609375 18.84375 5.609375 36.375 
Q 5.609375 53.953125 15.125 64.078125 
Q 24.65625 74.21875 41.21875 74.21875 
Q 47.75 74.21875 53.53125 72.484375 
Q 59.328125 70.75 64.40625 67.28125 
z
" id="DejaVuSans-67"/>
       <path d="M 9.8125 72.90625 
L 19.671875 72.90625 
L 19.671875 0 
L 9.8125 0 
z
" id="DejaVuSans-73"/>
       <path d="M -0.296875 72.90625 
L 61.375 72.90625 
L 61.375 64.59375 
L 35.5 64.59375 
L 35.5 0 
L 25.59375 0 
L 25.59375 64.59375 
L -0.296875 64.59375 
z
" id="DejaVuSans-84"/>
      </defs>
      <use xlink:href="#DejaVuSans-67"/>
      <use x="69.824219" xlink:href="#DejaVuSans-73"/>
      <use x="99.316406" xlink:href="#DejaVuSans-84"/>
     </g>
    </g>
    <g id="line2d_45">
     <path d="M 63.979063 656.420312 
L 83.979062 656.420312 
" style="fill:none;stroke:#984ea3;stroke-linecap:square;stroke-width:1.5;"/>
    </g>
    <g id="line2d_46"/>
    <g id="text_25">
     <!-- NLCD (KRR) -->
     <g transform="translate(91.979062 659.920312)scale(0.1 -0.1)">
      <defs>
       <path d="M 9.8125 72.90625 
L 23.09375 72.90625 
L 55.421875 11.921875 
L 55.421875 72.90625 
L 64.984375 72.90625 
L 64.984375 0 
L 51.703125 0 
L 19.390625 60.984375 
L 19.390625 0 
L 9.8125 0 
z
" id="DejaVuSans-78"/>
       <path d="M 31 75.875 
Q 24.46875 64.65625 21.28125 53.65625 
Q 18.109375 42.671875 18.109375 31.390625 
Q 18.109375 20.125 21.3125 9.0625 
Q 24.515625 -2 31 -13.1875 
L 23.1875 -13.1875 
Q 15.875 -1.703125 12.234375 9.375 
Q 8.59375 20.453125 8.59375 31.390625 
Q 8.59375 42.28125 12.203125 53.3125 
Q 15.828125 64.359375 23.1875 75.875 
z
" id="DejaVuSans-40"/>
       <path d="M 9.8125 72.90625 
L 19.671875 72.90625 
L 19.671875 42.09375 
L 52.390625 72.90625 
L 65.09375 72.90625 
L 28.90625 38.921875 
L 67.671875 0 
L 54.6875 0 
L 19.671875 35.109375 
L 19.671875 0 
L 9.8125 0 
z
" id="DejaVuSans-75"/>
       <path d="M 8.015625 75.875 
L 15.828125 75.875 
Q 23.140625 64.359375 26.78125 53.3125 
Q 30.421875 42.28125 30.421875 31.390625 
Q 30.421875 20.453125 26.78125 9.375 
Q 23.140625 -1.703125 15.828125 -13.1875 
L 8.015625 -13.1875 
Q 14.5 -2 17.703125 9.0625 
Q 20.90625 20.125 20.90625 31.390625 
Q 20.90625 42.671875 17.703125 53.65625 
Q 14.5 64.65625 8.015625 75.875 
z
" id="DejaVuSans-41"/>
      </defs>
      <use xlink:href="#DejaVuSans-78"/>
      <use x="74.804688" xlink:href="#DejaVuSans-76"/>
      <use x="130.517578" xlink:href="#DejaVuSans-67"/>
      <use x="200.341797" xlink:href="#DejaVuSans-68"/>
      <use x="277.34375" xlink:href="#DejaVuSans-32"/>
      <use x="309.130859" xlink:href="#DejaVuSans-40"/>
      <use x="348.144531" xlink:href="#DejaVuSans-75"/>
      <use x="413.720703" xlink:href="#DejaVuSans-82"/>
      <use x="483.203125" xlink:href="#DejaVuSans-82"/>
      <use x="552.685547" xlink:href="#DejaVuSans-41"/>
     </g>
    </g>
   </g>
  </g>
  <g id="axes_4">
   <g id="patch_18">
    <path d="M 387.029063 671 
L 704.779063 671 
L 704.779063 364.35 
L 387.029063 364.35 
z
" style="fill:#ffffff;"/>
   </g>
   <g id="matplotlib.axis_7">
    <g id="xtick_19">
     <g id="line2d_47">
      <g>
       <use style="stroke:#000000;stroke-width:0.8;" x="401.472244" xlink:href="#m8baa945a6e" y="671"/>
      </g>
     </g>
     <g id="text_26">
      <!-- 0.0 -->
      <g transform="translate(393.520682 685.598437)scale(0.1 -0.1)">
       <use xlink:href="#DejaVuSans-48"/>
       <use x="63.623047" xlink:href="#DejaVuSans-46"/>
       <use x="95.410156" xlink:href="#DejaVuSans-48"/>
      </g>
     </g>
    </g>
    <g id="xtick_20">
     <g id="line2d_48">
      <g>
       <use style="stroke:#000000;stroke-width:0.8;" x="459.244972" xlink:href="#m8baa945a6e" y="671"/>
      </g>
     </g>
     <g id="text_27">
      <!-- 0.2 -->
      <g transform="translate(451.293409 685.598437)scale(0.1 -0.1)">
       <use xlink:href="#DejaVuSans-48"/>
       <use x="63.623047" xlink:href="#DejaVuSans-46"/>
       <use x="95.410156" xlink:href="#DejaVuSans-50"/>
      </g>
     </g>
    </g>
    <g id="xtick_21">
     <g id="line2d_49">
      <g>
       <use style="stroke:#000000;stroke-width:0.8;" x="517.017699" xlink:href="#m8baa945a6e" y="671"/>
      </g>
     </g>
     <g id="text_28">
      <!-- 0.4 -->
      <g transform="translate(509.066136 685.598437)scale(0.1 -0.1)">
       <use xlink:href="#DejaVuSans-48"/>
       <use x="63.623047" xlink:href="#DejaVuSans-46"/>
       <use x="95.410156" xlink:href="#DejaVuSans-52"/>
      </g>
     </g>
    </g>
    <g id="xtick_22">
     <g id="line2d_50">
      <g>
       <use style="stroke:#000000;stroke-width:0.8;" x="574.790426" xlink:href="#m8baa945a6e" y="671"/>
      </g>
     </g>
     <g id="text_29">
      <!-- 0.6 -->
      <g transform="translate(566.838864 685.598437)scale(0.1 -0.1)">
       <use xlink:href="#DejaVuSans-48"/>
       <use x="63.623047" xlink:href="#DejaVuSans-46"/>
       <use x="95.410156" xlink:href="#DejaVuSans-54"/>
      </g>
     </g>
    </g>
    <g id="xtick_23">
     <g id="line2d_51">
      <g>
       <use style="stroke:#000000;stroke-width:0.8;" x="632.563153" xlink:href="#m8baa945a6e" y="671"/>
      </g>
     </g>
     <g id="text_30">
      <!-- 0.8 -->
      <g transform="translate(624.611591 685.598437)scale(0.1 -0.1)">
       <use xlink:href="#DejaVuSans-48"/>
       <use x="63.623047" xlink:href="#DejaVuSans-46"/>
       <use x="95.410156" xlink:href="#DejaVuSans-56"/>
      </g>
     </g>
    </g>
    <g id="xtick_24">
     <g id="line2d_52">
      <g>
       <use style="stroke:#000000;stroke-width:0.8;" x="690.335881" xlink:href="#m8baa945a6e" y="671"/>
      </g>
     </g>
     <g id="text_31">
      <!-- 1.0 -->
      <g transform="translate(682.384318 685.598437)scale(0.1 -0.1)">
       <use xlink:href="#DejaVuSans-49"/>
       <use x="63.623047" xlink:href="#DejaVuSans-46"/>
       <use x="95.410156" xlink:href="#DejaVuSans-48"/>
      </g>
     </g>
    </g>
    <g id="text_32">
     <!-- Recall -->
     <g transform="translate(530.986875 699.276562)scale(0.1 -0.1)">
      <use xlink:href="#DejaVuSans-82"/>
      <use x="64.982422" xlink:href="#DejaVuSans-101"/>
      <use x="126.505859" xlink:href="#DejaVuSans-99"/>
      <use x="181.486328" xlink:href="#DejaVuSans-97"/>
      <use x="242.765625" xlink:href="#DejaVuSans-108"/>
      <use x="270.548828" xlink:href="#DejaVuSans-108"/>
     </g>
    </g>
   </g>
   <g id="matplotlib.axis_8">
    <g id="ytick_19">
     <g id="line2d_53">
      <g>
       <use style="stroke:#000000;stroke-width:0.8;" x="387.029063" xlink:href="#mbaa45d2469" y="631.971818"/>
      </g>
     </g>
    </g>
    <g id="ytick_20">
     <g id="line2d_54">
      <g>
       <use style="stroke:#000000;stroke-width:0.8;" x="387.029063" xlink:href="#mbaa45d2469" y="581.235182"/>
      </g>
     </g>
    </g>
    <g id="ytick_21">
     <g id="line2d_55">
      <g>
       <use style="stroke:#000000;stroke-width:0.8;" x="387.029063" xlink:href="#mbaa45d2469" y="530.498545"/>
      </g>
     </g>
    </g>
    <g id="ytick_22">
     <g id="line2d_56">
      <g>
       <use style="stroke:#000000;stroke-width:0.8;" x="387.029063" xlink:href="#mbaa45d2469" y="479.761909"/>
      </g>
     </g>
    </g>
    <g id="ytick_23">
     <g id="line2d_57">
      <g>
       <use style="stroke:#000000;stroke-width:0.8;" x="387.029063" xlink:href="#mbaa45d2469" y="429.025273"/>
      </g>
     </g>
    </g>
    <g id="ytick_24">
     <g id="line2d_58">
      <g>
       <use style="stroke:#000000;stroke-width:0.8;" x="387.029063" xlink:href="#mbaa45d2469" y="378.288636"/>
      </g>
     </g>
    </g>
   </g>
   <g id="line2d_59">
    <path clip-path="url(#p75a2cbf1e3)" d="M 690.335881 628.108623 
L 687.447244 628.108623 
L 687.447244 629.383214 
L 687.447244 625.399715 
L 684.558608 625.399715 
L 684.558608 626.686752 
L 684.558608 623.96077 
L 681.669972 623.96077 
L 681.669972 625.260623 
L 681.669972 616.723102 
L 678.781335 616.723102 
L 678.781335 618.033182 
L 678.781335 558.761236 
L 675.892699 558.761236 
L 675.892699 559.980645 
L 675.892699 517.717561 
L 673.004062 517.717561 
L 673.004062 518.790091 
L 673.004062 494.733376 
L 670.115426 494.733376 
L 670.115426 495.695729 
L 670.115426 471.750861 
L 667.22679 471.750861 
L 667.22679 472.577961 
L 667.22679 468.889773 
L 664.338153 468.889773 
L 664.338153 469.705999 
L 664.338153 462.073907 
L 661.449517 462.073907 
L 661.449517 462.849697 
L 658.560881 462.849697 
L 658.560881 463.639987 
L 655.672244 463.639987 
L 655.672244 464.445189 
L 655.672244 389.563444 
L 652.783608 389.563444 
L 652.783608 389.690128 
L 652.783608 384.054163 
L 649.894972 384.054163 
L 649.894972 384.120434 
L 649.894972 378.288636 
L 401.472244 378.288636 
L 401.472244 378.288636 
" style="fill:none;stroke:#4daf4a;stroke-linecap:square;stroke-width:1.5;"/>
   </g>
   <g id="line2d_60">
    <path clip-path="url(#p75a2cbf1e3)" d="M 690.335881 625.467121 
L 687.447244 625.467121 
L 687.447244 625.399715 
L 687.447244 625.399715 
L 687.447244 619.891667 
L 687.447244 619.891667 
L 687.447244 618.478032 
L 684.558608 618.478032 
L 684.558608 615.427263 
L 684.558608 615.427263 
L 684.558608 610.94835 
L 684.558608 610.94835 
L 684.558608 609.422202 
L 681.669972 609.422202 
L 681.669972 607.606767 
L 681.669972 607.606767 
L 681.669972 601.177906 
L 678.781335 601.177906 
L 678.781335 599.14223 
L 678.781335 599.14223 
L 678.781335 595.731364 
L 678.781335 595.731364 
L 678.781335 593.995294 
L 678.781335 593.995294 
L 678.781335 590.460025 
L 675.892699 590.460025 
L 675.892699 591.753753 
L 675.892699 591.753753 
L 675.892699 588.125342 
L 675.892699 588.125342 
L 675.892699 584.406222 
L 675.892699 584.406222 
L 675.892699 580.592946 
L 675.892699 580.592946 
L 675.892699 576.681894 
L 675.892699 576.681894 
L 675.892699 570.623598 
L 675.892699 570.623598 
L 675.892699 564.32297 
L 673.004062 564.32297 
L 673.004062 561.216645 
L 673.004062 561.216645 
L 673.004062 556.741633 
L 673.004062 556.741633 
L 673.004062 554.457513 
L 670.115426 554.457513 
L 670.115426 551.009101 
L 670.115426 551.009101 
L 670.115426 546.194052 
L 670.115426 546.194052 
L 670.115426 538.705943 
L 670.115426 538.705943 
L 670.115426 536.135949 
L 670.115426 536.135949 
L 670.115426 530.880024 
L 670.115426 530.880024 
L 670.115426 528.192335 
L 670.115426 528.192335 
L 670.115426 519.879249 
L 670.115426 519.879249 
L 670.115426 508.174425 
L 670.115426 508.174425 
L 670.115426 502.03653 
L 670.115426 502.03653 
L 670.115426 498.892116 
L 670.115426 498.892116 
L 670.115426 492.446068 
L 667.22679 492.446068 
L 667.22679 493.405374 
L 667.22679 493.405374 
L 667.22679 490.081225 
L 664.338153 490.081225 
L 664.338153 484.173791 
L 664.338153 484.173791 
L 664.338153 480.652026 
L 664.338153 480.652026 
L 664.338153 473.41983 
L 664.338153 473.41983 
L 664.338153 462.073907 
L 664.338153 462.073907 
L 664.338153 458.15186 
L 664.338153 458.15186 
L 664.338153 441.709432 
L 664.338153 441.709432 
L 664.338153 437.399281 
L 661.449517 437.399281 
L 661.449517 437.978797 
L 661.449517 437.978797 
L 661.449517 433.546359 
L 661.449517 433.546359 
L 661.449517 429.025273 
L 655.672244 429.025273 
L 655.672244 425.363866 
L 655.672244 425.363866 
L 655.672244 420.569167 
L 649.894972 420.569167 
L 649.894972 421.468752 
L 649.894972 421.468752 
L 649.894972 406.165909 
L 649.894972 406.165909 
L 649.894972 400.838253 
L 647.006335 400.838253 
L 647.006335 401.091619 
L 644.117699 401.091619 
L 644.117699 401.350744 
L 641.229063 401.350744 
L 641.229063 401.615825 
L 635.45179 401.615825 
L 635.45179 402.164701 
L 632.563153 402.164701 
L 632.563153 390.663426 
L 632.563153 390.663426 
L 632.563153 384.552419 
L 632.563153 384.552419 
L 632.563153 378.288636 
L 626.785881 378.288636 
L 626.785881 378.288636 
L 401.472244 378.288636 
L 401.472244 378.288636 
" style="fill:none;stroke:#984ea3;stroke-linecap:square;stroke-width:1.5;"/>
   </g>
   <g id="patch_19">
    <path d="M 387.029063 671 
L 387.029063 364.35 
" style="fill:none;stroke:#000000;stroke-linecap:square;stroke-linejoin:miter;stroke-width:0.8;"/>
   </g>
   <g id="patch_20">
    <path d="M 704.779063 671 
L 704.779063 364.35 
" style="fill:none;stroke:#000000;stroke-linecap:square;stroke-linejoin:miter;stroke-width:0.8;"/>
   </g>
   <g id="patch_21">
    <path d="M 387.029063 671 
L 704.779063 671 
" style="fill:none;stroke:#000000;stroke-linecap:square;stroke-linejoin:miter;stroke-width:0.8;"/>
   </g>
   <g id="patch_22">
    <path d="M 387.029063 364.35 
L 704.779063 364.35 
" style="fill:none;stroke:#000000;stroke-linecap:square;stroke-linejoin:miter;stroke-width:0.8;"/>
   </g>
  </g>
  <g id="text_33">
   <!-- Performance when the variance changes for sample size of 500  -->
   <g transform="translate(162.468125 16.318125)scale(0.12 -0.12)">
    <defs>
     <path d="M 4.203125 54.6875 
L 13.1875 54.6875 
L 24.421875 12.015625 
L 35.59375 54.6875 
L 46.1875 54.6875 
L 57.421875 12.015625 
L 68.609375 54.6875 
L 77.59375 54.6875 
L 63.28125 0 
L 52.6875 0 
L 40.921875 44.828125 
L 29.109375 0 
L 18.5 0 
z
" id="DejaVuSans-119"/>
     <path d="M 54.890625 33.015625 
L 54.890625 0 
L 45.90625 0 
L 45.90625 32.71875 
Q 45.90625 40.484375 42.875 44.328125 
Q 39.84375 48.1875 33.796875 48.1875 
Q 26.515625 48.1875 22.3125 43.546875 
Q 18.109375 38.921875 18.109375 30.90625 
L 18.109375 0 
L 9.078125 0 
L 9.078125 75.984375 
L 18.109375 75.984375 
L 18.109375 46.1875 
Q 21.34375 51.125 25.703125 53.5625 
Q 30.078125 56 35.796875 56 
Q 45.21875 56 50.046875 50.171875 
Q 54.890625 44.34375 54.890625 33.015625 
z
" id="DejaVuSans-104"/>
     <path d="M 45.40625 27.984375 
Q 45.40625 37.75 41.375 43.109375 
Q 37.359375 48.484375 30.078125 48.484375 
Q 22.859375 48.484375 18.828125 43.109375 
Q 14.796875 37.75 14.796875 27.984375 
Q 14.796875 18.265625 18.828125 12.890625 
Q 22.859375 7.515625 30.078125 7.515625 
Q 37.359375 7.515625 41.375 12.890625 
Q 45.40625 18.265625 45.40625 27.984375 
z
M 54.390625 6.78125 
Q 54.390625 -7.171875 48.1875 -13.984375 
Q 42 -20.796875 29.203125 -20.796875 
Q 24.46875 -20.796875 20.265625 -20.09375 
Q 16.0625 -19.390625 12.109375 -17.921875 
L 12.109375 -9.1875 
Q 16.0625 -11.328125 19.921875 -12.34375 
Q 23.78125 -13.375 27.78125 -13.375 
Q 36.625 -13.375 41.015625 -8.765625 
Q 45.40625 -4.15625 45.40625 5.171875 
L 45.40625 9.625 
Q 42.625 4.78125 38.28125 2.390625 
Q 33.9375 0 27.875 0 
Q 17.828125 0 11.671875 7.65625 
Q 5.515625 15.328125 5.515625 27.984375 
Q 5.515625 40.671875 11.671875 48.328125 
Q 17.828125 56 27.875 56 
Q 33.9375 56 38.28125 53.609375 
Q 42.625 51.21875 45.40625 46.390625 
L 45.40625 54.6875 
L 54.390625 54.6875 
z
" id="DejaVuSans-103"/>
     <path d="M 18.109375 8.203125 
L 18.109375 -20.796875 
L 9.078125 -20.796875 
L 9.078125 54.6875 
L 18.109375 54.6875 
L 18.109375 46.390625 
Q 20.953125 51.265625 25.265625 53.625 
Q 29.59375 56 35.59375 56 
Q 45.5625 56 51.78125 48.09375 
Q 58.015625 40.1875 58.015625 27.296875 
Q 58.015625 14.40625 51.78125 6.484375 
Q 45.5625 -1.421875 35.59375 -1.421875 
Q 29.59375 -1.421875 25.265625 0.953125 
Q 20.953125 3.328125 18.109375 8.203125 
z
M 48.6875 27.296875 
Q 48.6875 37.203125 44.609375 42.84375 
Q 40.53125 48.484375 33.40625 48.484375 
Q 26.265625 48.484375 22.1875 42.84375 
Q 18.109375 37.203125 18.109375 27.296875 
Q 18.109375 17.390625 22.1875 11.75 
Q 26.265625 6.109375 33.40625 6.109375 
Q 40.53125 6.109375 44.609375 11.75 
Q 48.6875 17.390625 48.6875 27.296875 
z
" id="DejaVuSans-112"/>
     <path d="M 5.515625 54.6875 
L 48.1875 54.6875 
L 48.1875 46.484375 
L 14.40625 7.171875 
L 48.1875 7.171875 
L 48.1875 0 
L 4.296875 0 
L 4.296875 8.203125 
L 38.09375 47.515625 
L 5.515625 47.515625 
z
" id="DejaVuSans-122"/>
    </defs>
    <use xlink:href="#DejaVuSans-80"/>
    <use x="56.677734" xlink:href="#DejaVuSans-101"/>
    <use x="118.201172" xlink:href="#DejaVuSans-114"/>
    <use x="159.314453" xlink:href="#DejaVuSans-102"/>
    <use x="194.519531" xlink:href="#DejaVuSans-111"/>
    <use x="255.701172" xlink:href="#DejaVuSans-114"/>
    <use x="295.064453" xlink:href="#DejaVuSans-109"/>
    <use x="392.476562" xlink:href="#DejaVuSans-97"/>
    <use x="453.755859" xlink:href="#DejaVuSans-110"/>
    <use x="517.134766" xlink:href="#DejaVuSans-99"/>
    <use x="572.115234" xlink:href="#DejaVuSans-101"/>
    <use x="633.638672" xlink:href="#DejaVuSans-32"/>
    <use x="665.425781" xlink:href="#DejaVuSans-119"/>
    <use x="747.212891" xlink:href="#DejaVuSans-104"/>
    <use x="810.591797" xlink:href="#DejaVuSans-101"/>
    <use x="872.115234" xlink:href="#DejaVuSans-110"/>
    <use x="935.494141" xlink:href="#DejaVuSans-32"/>
    <use x="967.28125" xlink:href="#DejaVuSans-116"/>
    <use x="1006.490234" xlink:href="#DejaVuSans-104"/>
    <use x="1069.869141" xlink:href="#DejaVuSans-101"/>
    <use x="1131.392578" xlink:href="#DejaVuSans-32"/>
    <use x="1163.179688" xlink:href="#DejaVuSans-118"/>
    <use x="1222.359375" xlink:href="#DejaVuSans-97"/>
    <use x="1283.638672" xlink:href="#DejaVuSans-114"/>
    <use x="1324.751953" xlink:href="#DejaVuSans-105"/>
    <use x="1352.535156" xlink:href="#DejaVuSans-97"/>
    <use x="1413.814453" xlink:href="#DejaVuSans-110"/>
    <use x="1477.193359" xlink:href="#DejaVuSans-99"/>
    <use x="1532.173828" xlink:href="#DejaVuSans-101"/>
    <use x="1593.697266" xlink:href="#DejaVuSans-32"/>
    <use x="1625.484375" xlink:href="#DejaVuSans-99"/>
    <use x="1680.464844" xlink:href="#DejaVuSans-104"/>
    <use x="1743.84375" xlink:href="#DejaVuSans-97"/>
    <use x="1805.123047" xlink:href="#DejaVuSans-110"/>
    <use x="1868.501953" xlink:href="#DejaVuSans-103"/>
    <use x="1931.978516" xlink:href="#DejaVuSans-101"/>
    <use x="1993.501953" xlink:href="#DejaVuSans-115"/>
    <use x="2045.601562" xlink:href="#DejaVuSans-32"/>
    <use x="2077.388672" xlink:href="#DejaVuSans-102"/>
    <use x="2112.59375" xlink:href="#DejaVuSans-111"/>
    <use x="2173.775391" xlink:href="#DejaVuSans-114"/>
    <use x="2214.888672" xlink:href="#DejaVuSans-32"/>
    <use x="2246.675781" xlink:href="#DejaVuSans-115"/>
    <use x="2298.775391" xlink:href="#DejaVuSans-97"/>
    <use x="2360.054688" xlink:href="#DejaVuSans-109"/>
    <use x="2457.466797" xlink:href="#DejaVuSans-112"/>
    <use x="2520.943359" xlink:href="#DejaVuSans-108"/>
    <use x="2548.726562" xlink:href="#DejaVuSans-101"/>
    <use x="2610.25" xlink:href="#DejaVuSans-32"/>
    <use x="2642.037109" xlink:href="#DejaVuSans-115"/>
    <use x="2694.136719" xlink:href="#DejaVuSans-105"/>
    <use x="2721.919922" xlink:href="#DejaVuSans-122"/>
    <use x="2774.410156" xlink:href="#DejaVuSans-101"/>
    <use x="2835.933594" xlink:href="#DejaVuSans-32"/>
    <use x="2867.720703" xlink:href="#DejaVuSans-111"/>
    <use x="2928.902344" xlink:href="#DejaVuSans-102"/>
    <use x="2964.107422" xlink:href="#DejaVuSans-32"/>
    <use x="2995.894531" xlink:href="#DejaVuSans-53"/>
    <use x="3059.517578" xlink:href="#DejaVuSans-48"/>
    <use x="3123.140625" xlink:href="#DejaVuSans-48"/>
    <use x="3186.763672" xlink:href="#DejaVuSans-32"/>
   </g>
  </g>
 </g>
 <defs>
  <clipPath id="p581c4f2499">
   <rect height="306.65" width="317.75" x="54.979063" y="43.4"/>
  </clipPath>
  <clipPath id="p03c3566fee">
   <rect height="306.65" width="317.75" x="387.029063" y="43.4"/>
  </clipPath>
  <clipPath id="p1ceb10046f">
   <rect height="306.65" width="317.75" x="54.979063" y="364.35"/>
  </clipPath>
  <clipPath id="p75a2cbf1e3">
   <rect height="306.65" width="317.75" x="387.029063" y="364.35"/>
  </clipPath>
 </defs>
</svg>
