<?xml version="1.0" encoding="utf-8" standalone="no"?>
<!DOCTYPE svg PUBLIC "-//W3C//DTD SVG 1.1//EN"
  "http://www.w3.org/Graphics/SVG/1.1/DTD/svg11.dtd">
<!-- Created with matplotlib (https://matplotlib.org/) -->
<svg height="708.55625pt" version="1.1" viewBox="0 0 711.979062 708.55625" width="711.979062pt" xmlns="http://www.w3.org/2000/svg" xmlns:xlink="http://www.w3.org/1999/xlink">
 <metadata>
  <rdf:RDF xmlns:cc="http://creativecommons.org/ns#" xmlns:dc="http://purl.org/dc/elements/1.1/" xmlns:rdf="http://www.w3.org/1999/02/22-rdf-syntax-ns#">
   <cc:Work>
    <dc:type rdf:resource="http://purl.org/dc/dcmitype/StillImage"/>
    <dc:date>2023-07-21T10:48:28.869395</dc:date>
    <dc:format>image/svg+xml</dc:format>
    <dc:creator>
     <cc:Agent>
      <dc:title>Matplotlib v3.3.4, https://matplotlib.org/</dc:title>
     </cc:Agent>
    </dc:creator>
   </cc:Work>
  </rdf:RDF>
 </metadata>
 <defs>
  <style type="text/css">*{stroke-linecap:butt;stroke-linejoin:round;}</style>
 </defs>
 <g id="figure_1">
  <g id="patch_1">
   <path d="M 0 708.55625 
L 711.979062 708.55625 
L 711.979062 0 
L 0 0 
z
" style="fill:none;"/>
  </g>
  <g id="axes_1">
   <g id="patch_2">
    <path d="M 54.979063 350.05 
L 372.729062 350.05 
L 372.729062 43.4 
L 54.979063 43.4 
z
" style="fill:#ffffff;"/>
   </g>
   <g id="matplotlib.axis_1">
    <g id="xtick_1">
     <g id="line2d_1">
      <defs>
       <path d="M 0 0 
L 0 3.5 
" id="m06a16ffee9" style="stroke:#000000;stroke-width:0.8;"/>
      </defs>
      <g>
       <use style="stroke:#000000;stroke-width:0.8;" x="69.422244" xlink:href="#m06a16ffee9" y="350.05"/>
      </g>
     </g>
    </g>
    <g id="xtick_2">
     <g id="line2d_2">
      <g>
       <use style="stroke:#000000;stroke-width:0.8;" x="127.194972" xlink:href="#m06a16ffee9" y="350.05"/>
      </g>
     </g>
    </g>
    <g id="xtick_3">
     <g id="line2d_3">
      <g>
       <use style="stroke:#000000;stroke-width:0.8;" x="184.967699" xlink:href="#m06a16ffee9" y="350.05"/>
      </g>
     </g>
    </g>
    <g id="xtick_4">
     <g id="line2d_4">
      <g>
       <use style="stroke:#000000;stroke-width:0.8;" x="242.740426" xlink:href="#m06a16ffee9" y="350.05"/>
      </g>
     </g>
    </g>
    <g id="xtick_5">
     <g id="line2d_5">
      <g>
       <use style="stroke:#000000;stroke-width:0.8;" x="300.513153" xlink:href="#m06a16ffee9" y="350.05"/>
      </g>
     </g>
    </g>
    <g id="xtick_6">
     <g id="line2d_6">
      <g>
       <use style="stroke:#000000;stroke-width:0.8;" x="358.285881" xlink:href="#m06a16ffee9" y="350.05"/>
      </g>
     </g>
    </g>
   </g>
   <g id="matplotlib.axis_2">
    <g id="ytick_1">
     <g id="line2d_7">
      <defs>
       <path d="M 0 0 
L -3.5 0 
" id="m1a8143f0ad" style="stroke:#000000;stroke-width:0.8;"/>
      </defs>
      <g>
       <use style="stroke:#000000;stroke-width:0.8;" x="54.979063" xlink:href="#m1a8143f0ad" y="302.658636"/>
      </g>
     </g>
     <g id="text_1">
      <!-- 0.5 -->
      <g transform="translate(32.075938 306.457855)scale(0.1 -0.1)">
       <defs>
        <path d="M 31.78125 66.40625 
Q 24.171875 66.40625 20.328125 58.90625 
Q 16.5 51.421875 16.5 36.375 
Q 16.5 21.390625 20.328125 13.890625 
Q 24.171875 6.390625 31.78125 6.390625 
Q 39.453125 6.390625 43.28125 13.890625 
Q 47.125 21.390625 47.125 36.375 
Q 47.125 51.421875 43.28125 58.90625 
Q 39.453125 66.40625 31.78125 66.40625 
z
M 31.78125 74.21875 
Q 44.046875 74.21875 50.515625 64.515625 
Q 56.984375 54.828125 56.984375 36.375 
Q 56.984375 17.96875 50.515625 8.265625 
Q 44.046875 -1.421875 31.78125 -1.421875 
Q 19.53125 -1.421875 13.0625 8.265625 
Q 6.59375 17.96875 6.59375 36.375 
Q 6.59375 54.828125 13.0625 64.515625 
Q 19.53125 74.21875 31.78125 74.21875 
z
" id="DejaVuSans-48"/>
        <path d="M 10.6875 12.40625 
L 21 12.40625 
L 21 0 
L 10.6875 0 
z
" id="DejaVuSans-46"/>
        <path d="M 10.796875 72.90625 
L 49.515625 72.90625 
L 49.515625 64.59375 
L 19.828125 64.59375 
L 19.828125 46.734375 
Q 21.96875 47.46875 24.109375 47.828125 
Q 26.265625 48.1875 28.421875 48.1875 
Q 40.625 48.1875 47.75 41.5 
Q 54.890625 34.8125 54.890625 23.390625 
Q 54.890625 11.625 47.5625 5.09375 
Q 40.234375 -1.421875 26.90625 -1.421875 
Q 22.3125 -1.421875 17.546875 -0.640625 
Q 12.796875 0.140625 7.71875 1.703125 
L 7.71875 11.625 
Q 12.109375 9.234375 16.796875 8.0625 
Q 21.484375 6.890625 26.703125 6.890625 
Q 35.15625 6.890625 40.078125 11.328125 
Q 45.015625 15.765625 45.015625 23.390625 
Q 45.015625 31 40.078125 35.4375 
Q 35.15625 39.890625 26.703125 39.890625 
Q 22.75 39.890625 18.8125 39.015625 
Q 14.890625 38.140625 10.796875 36.28125 
z
" id="DejaVuSans-53"/>
       </defs>
       <use xlink:href="#DejaVuSans-48"/>
       <use x="63.623047" xlink:href="#DejaVuSans-46"/>
       <use x="95.410156" xlink:href="#DejaVuSans-53"/>
      </g>
     </g>
    </g>
    <g id="ytick_2">
     <g id="line2d_8">
      <g>
       <use style="stroke:#000000;stroke-width:0.8;" x="54.979063" xlink:href="#m1a8143f0ad" y="253.594636"/>
      </g>
     </g>
     <g id="text_2">
      <!-- 0.6 -->
      <g transform="translate(32.075938 257.393855)scale(0.1 -0.1)">
       <defs>
        <path d="M 33.015625 40.375 
Q 26.375 40.375 22.484375 35.828125 
Q 18.609375 31.296875 18.609375 23.390625 
Q 18.609375 15.53125 22.484375 10.953125 
Q 26.375 6.390625 33.015625 6.390625 
Q 39.65625 6.390625 43.53125 10.953125 
Q 47.40625 15.53125 47.40625 23.390625 
Q 47.40625 31.296875 43.53125 35.828125 
Q 39.65625 40.375 33.015625 40.375 
z
M 52.59375 71.296875 
L 52.59375 62.3125 
Q 48.875 64.0625 45.09375 64.984375 
Q 41.3125 65.921875 37.59375 65.921875 
Q 27.828125 65.921875 22.671875 59.328125 
Q 17.53125 52.734375 16.796875 39.40625 
Q 19.671875 43.65625 24.015625 45.921875 
Q 28.375 48.1875 33.59375 48.1875 
Q 44.578125 48.1875 50.953125 41.515625 
Q 57.328125 34.859375 57.328125 23.390625 
Q 57.328125 12.15625 50.6875 5.359375 
Q 44.046875 -1.421875 33.015625 -1.421875 
Q 20.359375 -1.421875 13.671875 8.265625 
Q 6.984375 17.96875 6.984375 36.375 
Q 6.984375 53.65625 15.1875 63.9375 
Q 23.390625 74.21875 37.203125 74.21875 
Q 40.921875 74.21875 44.703125 73.484375 
Q 48.484375 72.75 52.59375 71.296875 
z
" id="DejaVuSans-54"/>
       </defs>
       <use xlink:href="#DejaVuSans-48"/>
       <use x="63.623047" xlink:href="#DejaVuSans-46"/>
       <use x="95.410156" xlink:href="#DejaVuSans-54"/>
      </g>
     </g>
    </g>
    <g id="ytick_3">
     <g id="line2d_9">
      <g>
       <use style="stroke:#000000;stroke-width:0.8;" x="54.979063" xlink:href="#m1a8143f0ad" y="204.530636"/>
      </g>
     </g>
     <g id="text_3">
      <!-- 0.7 -->
      <g transform="translate(32.075938 208.329855)scale(0.1 -0.1)">
       <defs>
        <path d="M 8.203125 72.90625 
L 55.078125 72.90625 
L 55.078125 68.703125 
L 28.609375 0 
L 18.3125 0 
L 43.21875 64.59375 
L 8.203125 64.59375 
z
" id="DejaVuSans-55"/>
       </defs>
       <use xlink:href="#DejaVuSans-48"/>
       <use x="63.623047" xlink:href="#DejaVuSans-46"/>
       <use x="95.410156" xlink:href="#DejaVuSans-55"/>
      </g>
     </g>
    </g>
    <g id="ytick_4">
     <g id="line2d_10">
      <g>
       <use style="stroke:#000000;stroke-width:0.8;" x="54.979063" xlink:href="#m1a8143f0ad" y="155.466636"/>
      </g>
     </g>
     <g id="text_4">
      <!-- 0.8 -->
      <g transform="translate(32.075938 159.265855)scale(0.1 -0.1)">
       <defs>
        <path d="M 31.78125 34.625 
Q 24.75 34.625 20.71875 30.859375 
Q 16.703125 27.09375 16.703125 20.515625 
Q 16.703125 13.921875 20.71875 10.15625 
Q 24.75 6.390625 31.78125 6.390625 
Q 38.8125 6.390625 42.859375 10.171875 
Q 46.921875 13.96875 46.921875 20.515625 
Q 46.921875 27.09375 42.890625 30.859375 
Q 38.875 34.625 31.78125 34.625 
z
M 21.921875 38.8125 
Q 15.578125 40.375 12.03125 44.71875 
Q 8.5 49.078125 8.5 55.328125 
Q 8.5 64.0625 14.71875 69.140625 
Q 20.953125 74.21875 31.78125 74.21875 
Q 42.671875 74.21875 48.875 69.140625 
Q 55.078125 64.0625 55.078125 55.328125 
Q 55.078125 49.078125 51.53125 44.71875 
Q 48 40.375 41.703125 38.8125 
Q 48.828125 37.15625 52.796875 32.3125 
Q 56.78125 27.484375 56.78125 20.515625 
Q 56.78125 9.90625 50.3125 4.234375 
Q 43.84375 -1.421875 31.78125 -1.421875 
Q 19.734375 -1.421875 13.25 4.234375 
Q 6.78125 9.90625 6.78125 20.515625 
Q 6.78125 27.484375 10.78125 32.3125 
Q 14.796875 37.15625 21.921875 38.8125 
z
M 18.3125 54.390625 
Q 18.3125 48.734375 21.84375 45.5625 
Q 25.390625 42.390625 31.78125 42.390625 
Q 38.140625 42.390625 41.71875 45.5625 
Q 45.3125 48.734375 45.3125 54.390625 
Q 45.3125 60.0625 41.71875 63.234375 
Q 38.140625 66.40625 31.78125 66.40625 
Q 25.390625 66.40625 21.84375 63.234375 
Q 18.3125 60.0625 18.3125 54.390625 
z
" id="DejaVuSans-56"/>
       </defs>
       <use xlink:href="#DejaVuSans-48"/>
       <use x="63.623047" xlink:href="#DejaVuSans-46"/>
       <use x="95.410156" xlink:href="#DejaVuSans-56"/>
      </g>
     </g>
    </g>
    <g id="ytick_5">
     <g id="line2d_11">
      <g>
       <use style="stroke:#000000;stroke-width:0.8;" x="54.979063" xlink:href="#m1a8143f0ad" y="106.402636"/>
      </g>
     </g>
     <g id="text_5">
      <!-- 0.9 -->
      <g transform="translate(32.075938 110.201855)scale(0.1 -0.1)">
       <defs>
        <path d="M 10.984375 1.515625 
L 10.984375 10.5 
Q 14.703125 8.734375 18.5 7.8125 
Q 22.3125 6.890625 25.984375 6.890625 
Q 35.75 6.890625 40.890625 13.453125 
Q 46.046875 20.015625 46.78125 33.40625 
Q 43.953125 29.203125 39.59375 26.953125 
Q 35.25 24.703125 29.984375 24.703125 
Q 19.046875 24.703125 12.671875 31.3125 
Q 6.296875 37.9375 6.296875 49.421875 
Q 6.296875 60.640625 12.9375 67.421875 
Q 19.578125 74.21875 30.609375 74.21875 
Q 43.265625 74.21875 49.921875 64.515625 
Q 56.59375 54.828125 56.59375 36.375 
Q 56.59375 19.140625 48.40625 8.859375 
Q 40.234375 -1.421875 26.421875 -1.421875 
Q 22.703125 -1.421875 18.890625 -0.6875 
Q 15.09375 0.046875 10.984375 1.515625 
z
M 30.609375 32.421875 
Q 37.25 32.421875 41.125 36.953125 
Q 45.015625 41.5 45.015625 49.421875 
Q 45.015625 57.28125 41.125 61.84375 
Q 37.25 66.40625 30.609375 66.40625 
Q 23.96875 66.40625 20.09375 61.84375 
Q 16.21875 57.28125 16.21875 49.421875 
Q 16.21875 41.5 20.09375 36.953125 
Q 23.96875 32.421875 30.609375 32.421875 
z
" id="DejaVuSans-57"/>
       </defs>
       <use xlink:href="#DejaVuSans-48"/>
       <use x="63.623047" xlink:href="#DejaVuSans-46"/>
       <use x="95.410156" xlink:href="#DejaVuSans-57"/>
      </g>
     </g>
    </g>
    <g id="ytick_6">
     <g id="line2d_12">
      <g>
       <use style="stroke:#000000;stroke-width:0.8;" x="54.979063" xlink:href="#m1a8143f0ad" y="57.338636"/>
      </g>
     </g>
     <g id="text_6">
      <!-- 1.0 -->
      <g transform="translate(32.075938 61.137855)scale(0.1 -0.1)">
       <defs>
        <path d="M 12.40625 8.296875 
L 28.515625 8.296875 
L 28.515625 63.921875 
L 10.984375 60.40625 
L 10.984375 69.390625 
L 28.421875 72.90625 
L 38.28125 72.90625 
L 38.28125 8.296875 
L 54.390625 8.296875 
L 54.390625 0 
L 12.40625 0 
z
" id="DejaVuSans-49"/>
       </defs>
       <use xlink:href="#DejaVuSans-49"/>
       <use x="63.623047" xlink:href="#DejaVuSans-46"/>
       <use x="95.410156" xlink:href="#DejaVuSans-48"/>
      </g>
     </g>
    </g>
    <g id="text_7">
     <!-- Different Variance  -->
     <g transform="translate(14.798438 243.4875)rotate(-90)scale(0.1 -0.1)">
      <defs>
       <path d="M 19.671875 64.796875 
L 19.671875 8.109375 
L 31.59375 8.109375 
Q 46.6875 8.109375 53.6875 14.9375 
Q 60.6875 21.78125 60.6875 36.53125 
Q 60.6875 51.171875 53.6875 57.984375 
Q 46.6875 64.796875 31.59375 64.796875 
z
M 9.8125 72.90625 
L 30.078125 72.90625 
Q 51.265625 72.90625 61.171875 64.09375 
Q 71.09375 55.28125 71.09375 36.53125 
Q 71.09375 17.671875 61.125 8.828125 
Q 51.171875 0 30.078125 0 
L 9.8125 0 
z
" id="DejaVuSans-68"/>
       <path d="M 9.421875 54.6875 
L 18.40625 54.6875 
L 18.40625 0 
L 9.421875 0 
z
M 9.421875 75.984375 
L 18.40625 75.984375 
L 18.40625 64.59375 
L 9.421875 64.59375 
z
" id="DejaVuSans-105"/>
       <path d="M 37.109375 75.984375 
L 37.109375 68.5 
L 28.515625 68.5 
Q 23.6875 68.5 21.796875 66.546875 
Q 19.921875 64.59375 19.921875 59.515625 
L 19.921875 54.6875 
L 34.71875 54.6875 
L 34.71875 47.703125 
L 19.921875 47.703125 
L 19.921875 0 
L 10.890625 0 
L 10.890625 47.703125 
L 2.296875 47.703125 
L 2.296875 54.6875 
L 10.890625 54.6875 
L 10.890625 58.5 
Q 10.890625 67.625 15.140625 71.796875 
Q 19.390625 75.984375 28.609375 75.984375 
z
" id="DejaVuSans-102"/>
       <path d="M 56.203125 29.59375 
L 56.203125 25.203125 
L 14.890625 25.203125 
Q 15.484375 15.921875 20.484375 11.0625 
Q 25.484375 6.203125 34.421875 6.203125 
Q 39.59375 6.203125 44.453125 7.46875 
Q 49.3125 8.734375 54.109375 11.28125 
L 54.109375 2.78125 
Q 49.265625 0.734375 44.1875 -0.34375 
Q 39.109375 -1.421875 33.890625 -1.421875 
Q 20.796875 -1.421875 13.15625 6.1875 
Q 5.515625 13.8125 5.515625 26.8125 
Q 5.515625 40.234375 12.765625 48.109375 
Q 20.015625 56 32.328125 56 
Q 43.359375 56 49.78125 48.890625 
Q 56.203125 41.796875 56.203125 29.59375 
z
M 47.21875 32.234375 
Q 47.125 39.59375 43.09375 43.984375 
Q 39.0625 48.390625 32.421875 48.390625 
Q 24.90625 48.390625 20.390625 44.140625 
Q 15.875 39.890625 15.1875 32.171875 
z
" id="DejaVuSans-101"/>
       <path d="M 41.109375 46.296875 
Q 39.59375 47.171875 37.8125 47.578125 
Q 36.03125 48 33.890625 48 
Q 26.265625 48 22.1875 43.046875 
Q 18.109375 38.09375 18.109375 28.8125 
L 18.109375 0 
L 9.078125 0 
L 9.078125 54.6875 
L 18.109375 54.6875 
L 18.109375 46.1875 
Q 20.953125 51.171875 25.484375 53.578125 
Q 30.03125 56 36.53125 56 
Q 37.453125 56 38.578125 55.875 
Q 39.703125 55.765625 41.0625 55.515625 
z
" id="DejaVuSans-114"/>
       <path d="M 54.890625 33.015625 
L 54.890625 0 
L 45.90625 0 
L 45.90625 32.71875 
Q 45.90625 40.484375 42.875 44.328125 
Q 39.84375 48.1875 33.796875 48.1875 
Q 26.515625 48.1875 22.3125 43.546875 
Q 18.109375 38.921875 18.109375 30.90625 
L 18.109375 0 
L 9.078125 0 
L 9.078125 54.6875 
L 18.109375 54.6875 
L 18.109375 46.1875 
Q 21.34375 51.125 25.703125 53.5625 
Q 30.078125 56 35.796875 56 
Q 45.21875 56 50.046875 50.171875 
Q 54.890625 44.34375 54.890625 33.015625 
z
" id="DejaVuSans-110"/>
       <path d="M 18.3125 70.21875 
L 18.3125 54.6875 
L 36.8125 54.6875 
L 36.8125 47.703125 
L 18.3125 47.703125 
L 18.3125 18.015625 
Q 18.3125 11.328125 20.140625 9.421875 
Q 21.96875 7.515625 27.59375 7.515625 
L 36.8125 7.515625 
L 36.8125 0 
L 27.59375 0 
Q 17.1875 0 13.234375 3.875 
Q 9.28125 7.765625 9.28125 18.015625 
L 9.28125 47.703125 
L 2.6875 47.703125 
L 2.6875 54.6875 
L 9.28125 54.6875 
L 9.28125 70.21875 
z
" id="DejaVuSans-116"/>
       <path id="DejaVuSans-32"/>
       <path d="M 28.609375 0 
L 0.78125 72.90625 
L 11.078125 72.90625 
L 34.1875 11.53125 
L 57.328125 72.90625 
L 67.578125 72.90625 
L 39.796875 0 
z
" id="DejaVuSans-86"/>
       <path d="M 34.28125 27.484375 
Q 23.390625 27.484375 19.1875 25 
Q 14.984375 22.515625 14.984375 16.5 
Q 14.984375 11.71875 18.140625 8.90625 
Q 21.296875 6.109375 26.703125 6.109375 
Q 34.1875 6.109375 38.703125 11.40625 
Q 43.21875 16.703125 43.21875 25.484375 
L 43.21875 27.484375 
z
M 52.203125 31.203125 
L 52.203125 0 
L 43.21875 0 
L 43.21875 8.296875 
Q 40.140625 3.328125 35.546875 0.953125 
Q 30.953125 -1.421875 24.3125 -1.421875 
Q 15.921875 -1.421875 10.953125 3.296875 
Q 6 8.015625 6 15.921875 
Q 6 25.140625 12.171875 29.828125 
Q 18.359375 34.515625 30.609375 34.515625 
L 43.21875 34.515625 
L 43.21875 35.40625 
Q 43.21875 41.609375 39.140625 45 
Q 35.0625 48.390625 27.6875 48.390625 
Q 23 48.390625 18.546875 47.265625 
Q 14.109375 46.140625 10.015625 43.890625 
L 10.015625 52.203125 
Q 14.9375 54.109375 19.578125 55.046875 
Q 24.21875 56 28.609375 56 
Q 40.484375 56 46.34375 49.84375 
Q 52.203125 43.703125 52.203125 31.203125 
z
" id="DejaVuSans-97"/>
       <path d="M 48.78125 52.59375 
L 48.78125 44.1875 
Q 44.96875 46.296875 41.140625 47.34375 
Q 37.3125 48.390625 33.40625 48.390625 
Q 24.65625 48.390625 19.8125 42.84375 
Q 14.984375 37.3125 14.984375 27.296875 
Q 14.984375 17.28125 19.8125 11.734375 
Q 24.65625 6.203125 33.40625 6.203125 
Q 37.3125 6.203125 41.140625 7.25 
Q 44.96875 8.296875 48.78125 10.40625 
L 48.78125 2.09375 
Q 45.015625 0.34375 40.984375 -0.53125 
Q 36.96875 -1.421875 32.421875 -1.421875 
Q 20.0625 -1.421875 12.78125 6.34375 
Q 5.515625 14.109375 5.515625 27.296875 
Q 5.515625 40.671875 12.859375 48.328125 
Q 20.21875 56 33.015625 56 
Q 37.15625 56 41.109375 55.140625 
Q 45.0625 54.296875 48.78125 52.59375 
z
" id="DejaVuSans-99"/>
      </defs>
      <use xlink:href="#DejaVuSans-68"/>
      <use x="77.001953" xlink:href="#DejaVuSans-105"/>
      <use x="104.785156" xlink:href="#DejaVuSans-102"/>
      <use x="139.990234" xlink:href="#DejaVuSans-102"/>
      <use x="175.195312" xlink:href="#DejaVuSans-101"/>
      <use x="236.71875" xlink:href="#DejaVuSans-114"/>
      <use x="275.582031" xlink:href="#DejaVuSans-101"/>
      <use x="337.105469" xlink:href="#DejaVuSans-110"/>
      <use x="400.484375" xlink:href="#DejaVuSans-116"/>
      <use x="439.693359" xlink:href="#DejaVuSans-32"/>
      <use x="471.480469" xlink:href="#DejaVuSans-86"/>
      <use x="532.138672" xlink:href="#DejaVuSans-97"/>
      <use x="593.417969" xlink:href="#DejaVuSans-114"/>
      <use x="634.53125" xlink:href="#DejaVuSans-105"/>
      <use x="662.314453" xlink:href="#DejaVuSans-97"/>
      <use x="723.59375" xlink:href="#DejaVuSans-110"/>
      <use x="786.972656" xlink:href="#DejaVuSans-99"/>
      <use x="841.953125" xlink:href="#DejaVuSans-101"/>
      <use x="903.476562" xlink:href="#DejaVuSans-32"/>
     </g>
     <!--  Precision -->
     <g transform="translate(25.99625 220.621094)rotate(-90)scale(0.1 -0.1)">
      <defs>
       <path d="M 19.671875 64.796875 
L 19.671875 37.40625 
L 32.078125 37.40625 
Q 38.96875 37.40625 42.71875 40.96875 
Q 46.484375 44.53125 46.484375 51.125 
Q 46.484375 57.671875 42.71875 61.234375 
Q 38.96875 64.796875 32.078125 64.796875 
z
M 9.8125 72.90625 
L 32.078125 72.90625 
Q 44.34375 72.90625 50.609375 67.359375 
Q 56.890625 61.8125 56.890625 51.125 
Q 56.890625 40.328125 50.609375 34.8125 
Q 44.34375 29.296875 32.078125 29.296875 
L 19.671875 29.296875 
L 19.671875 0 
L 9.8125 0 
z
" id="DejaVuSans-80"/>
       <path d="M 44.28125 53.078125 
L 44.28125 44.578125 
Q 40.484375 46.53125 36.375 47.5 
Q 32.28125 48.484375 27.875 48.484375 
Q 21.1875 48.484375 17.84375 46.4375 
Q 14.5 44.390625 14.5 40.28125 
Q 14.5 37.15625 16.890625 35.375 
Q 19.28125 33.59375 26.515625 31.984375 
L 29.59375 31.296875 
Q 39.15625 29.25 43.1875 25.515625 
Q 47.21875 21.78125 47.21875 15.09375 
Q 47.21875 7.46875 41.1875 3.015625 
Q 35.15625 -1.421875 24.609375 -1.421875 
Q 20.21875 -1.421875 15.453125 -0.5625 
Q 10.6875 0.296875 5.421875 2 
L 5.421875 11.28125 
Q 10.40625 8.6875 15.234375 7.390625 
Q 20.0625 6.109375 24.8125 6.109375 
Q 31.15625 6.109375 34.5625 8.28125 
Q 37.984375 10.453125 37.984375 14.40625 
Q 37.984375 18.0625 35.515625 20.015625 
Q 33.0625 21.96875 24.703125 23.78125 
L 21.578125 24.515625 
Q 13.234375 26.265625 9.515625 29.90625 
Q 5.8125 33.546875 5.8125 39.890625 
Q 5.8125 47.609375 11.28125 51.796875 
Q 16.75 56 26.8125 56 
Q 31.78125 56 36.171875 55.265625 
Q 40.578125 54.546875 44.28125 53.078125 
z
" id="DejaVuSans-115"/>
       <path d="M 30.609375 48.390625 
Q 23.390625 48.390625 19.1875 42.75 
Q 14.984375 37.109375 14.984375 27.296875 
Q 14.984375 17.484375 19.15625 11.84375 
Q 23.34375 6.203125 30.609375 6.203125 
Q 37.796875 6.203125 41.984375 11.859375 
Q 46.1875 17.53125 46.1875 27.296875 
Q 46.1875 37.015625 41.984375 42.703125 
Q 37.796875 48.390625 30.609375 48.390625 
z
M 30.609375 56 
Q 42.328125 56 49.015625 48.375 
Q 55.71875 40.765625 55.71875 27.296875 
Q 55.71875 13.875 49.015625 6.21875 
Q 42.328125 -1.421875 30.609375 -1.421875 
Q 18.84375 -1.421875 12.171875 6.21875 
Q 5.515625 13.875 5.515625 27.296875 
Q 5.515625 40.765625 12.171875 48.375 
Q 18.84375 56 30.609375 56 
z
" id="DejaVuSans-111"/>
      </defs>
      <use xlink:href="#DejaVuSans-32"/>
      <use x="31.787109" xlink:href="#DejaVuSans-80"/>
      <use x="90.339844" xlink:href="#DejaVuSans-114"/>
      <use x="129.203125" xlink:href="#DejaVuSans-101"/>
      <use x="190.726562" xlink:href="#DejaVuSans-99"/>
      <use x="245.707031" xlink:href="#DejaVuSans-105"/>
      <use x="273.490234" xlink:href="#DejaVuSans-115"/>
      <use x="325.589844" xlink:href="#DejaVuSans-105"/>
      <use x="353.373047" xlink:href="#DejaVuSans-111"/>
      <use x="414.554688" xlink:href="#DejaVuSans-110"/>
     </g>
    </g>
   </g>
   <g id="line2d_13">
    <path clip-path="url(#p7406da6727)" d="M 358.285881 302.658636 
L 355.397244 302.658636 
L 355.397244 303.8914 
L 355.397244 301.413357 
L 352.508608 301.413357 
L 352.508608 302.658636 
L 349.619972 302.658636 
L 349.619972 303.916688 
L 349.619972 302.658636 
L 346.731335 302.658636 
L 346.731335 303.929724 
L 346.731335 290.593718 
L 343.842699 290.593718 
L 343.842699 291.87534 
L 343.842699 290.460404 
L 340.954062 290.460404 
L 340.954062 291.755525 
L 340.954062 287.412761 
L 338.065426 287.412761 
L 338.065426 288.72 
L 338.065426 285.740016 
L 335.17679 285.740016 
L 335.17679 287.060255 
L 335.17679 262.289522 
L 332.288153 262.289522 
L 332.288153 263.594942 
L 332.288153 252.294928 
L 329.399517 252.294928 
L 329.399517 253.594636 
L 326.510881 253.594636 
L 326.510881 254.911791 
L 323.622244 254.911791 
L 323.622244 256.246744 
L 323.622244 254.262174 
L 320.733608 254.262174 
L 320.733608 255.610965 
L 320.733608 253.594636 
L 317.844972 253.594636 
L 317.844972 254.957525 
L 317.844972 235.422785 
L 314.956335 235.422785 
L 314.956335 236.751771 
L 312.067699 236.751771 
L 312.067699 238.100742 
L 312.067699 235.753182 
L 309.179062 235.753182 
L 309.179062 237.115125 
L 309.179062 214.182571 
L 306.290426 214.182571 
L 306.290426 215.478802 
L 303.40179 215.478802 
L 303.40179 216.796636 
L 303.40179 202.397419 
L 300.513153 202.397419 
L 300.513153 203.669864 
L 300.513153 191.149545 
L 297.624517 191.149545 
L 297.624517 192.377168 
L 294.735881 192.377168 
L 294.735881 193.627525 
L 291.847244 193.627525 
L 291.847244 194.901253 
L 291.847244 184.716329 
L 288.958608 184.716329 
L 288.958608 185.953005 
L 288.958608 182.403734 
L 286.069972 182.403734 
L 286.069972 183.642003 
L 283.181335 183.642003 
L 283.181335 184.905036 
L 283.181335 173.675956 
L 280.292699 173.675956 
L 280.292699 174.887803 
L 277.404063 174.887803 
L 277.404063 176.125163 
L 274.515426 176.125163 
L 274.515426 177.388849 
L 274.515426 173.404013 
L 271.62679 173.404013 
L 271.62679 174.665593 
L 271.62679 139.11197 
L 268.738153 139.11197 
L 268.738153 140.097191 
L 265.849517 140.097191 
L 265.849517 141.106441 
L 262.960881 141.106441 
L 262.960881 142.140612 
L 260.072244 142.140612 
L 260.072244 143.200636 
L 260.072244 127.430065 
L 257.183608 127.430065 
L 257.183608 128.352321 
L 254.294972 128.352321 
L 254.294972 129.29917 
L 254.294972 123.641339 
L 251.406335 123.641339 
L 251.406335 124.549595 
L 248.517699 124.549595 
L 248.517699 125.483081 
L 245.629063 125.483081 
L 245.629063 126.442862 
L 242.740426 126.442862 
L 242.740426 127.430065 
L 239.85179 127.430065 
L 239.85179 128.445883 
L 239.85179 122.276283 
L 236.963153 122.276283 
L 236.963153 123.245502 
L 234.074517 123.245502 
L 234.074517 124.244091 
L 234.074517 117.725098 
L 231.185881 117.725098 
L 231.185881 118.668636 
L 231.185881 97.55503 
L 228.297244 97.55503 
L 228.297244 98.225303 
L 228.297244 74.554075 
L 225.408608 74.554075 
L 225.408608 74.861494 
L 222.519972 74.861494 
L 222.519972 75.180091 
L 219.631335 75.180091 
L 219.631335 75.510488 
L 216.742699 75.510488 
L 216.742699 75.853353 
L 216.742699 57.338636 
L 69.422244 57.338636 
L 69.422244 57.338636 
" style="fill:none;stroke:#aedea7;stroke-linecap:square;stroke-width:1.5;"/>
   </g>
   <g id="line2d_14">
    <path clip-path="url(#p7406da6727)" d="M 358.285881 302.658636 
L 355.397244 302.658636 
L 355.397244 302.658636 
L 355.397244 234.60212 
L 352.508608 234.60212 
L 352.508608 166.369747 
L 346.731335 166.369747 
L 346.731335 168.128314 
L 346.731335 127.430065 
L 343.842699 127.430065 
L 343.842699 128.061519 
L 340.954062 128.061519 
L 340.954062 128.704455 
L 340.954062 108.739017 
L 338.065426 108.739017 
L 338.065426 104.973588 
L 335.17679 104.973588 
L 335.17679 77.78197 
L 332.288153 77.78197 
L 332.288153 77.997163 
L 332.288153 72.99736 
L 329.399517 72.99736 
L 329.399517 73.165733 
L 323.622244 73.165733 
L 323.622244 73.513581 
L 320.733608 73.513581 
L 320.733608 73.693303 
L 317.844972 73.693303 
L 317.844972 73.877063 
L 317.844972 68.489545 
L 314.956335 68.489545 
L 314.956335 68.617717 
L 312.067699 68.617717 
L 312.067699 63.110872 
L 306.290426 63.110872 
L 306.290426 63.249962 
L 303.40179 63.249962 
L 303.40179 57.338636 
L 69.422244 57.338636 
L 69.422244 57.338636 
" style="fill:none;stroke:#c6c7e1;stroke-linecap:square;stroke-width:1.5;"/>
   </g>
   <g id="line2d_15">
    <path clip-path="url(#p7406da6727)" d="M 358.285881 302.658636 
L 355.397244 302.658636 
L 355.397244 303.8914 
L 355.397244 195.997767 
L 352.508608 195.997767 
L 352.508608 197.009877 
L 352.508608 166.369747 
L 349.619972 166.369747 
L 349.619972 167.241996 
L 349.619972 148.045191 
L 346.731335 148.045191 
L 346.731335 148.813891 
L 346.731335 145.402226 
L 343.842699 145.402226 
L 343.842699 146.161395 
L 343.842699 139.11197 
L 340.954062 139.11197 
L 340.954062 139.835628 
L 340.954062 128.704455 
L 338.065426 128.704455 
L 338.065426 129.359187 
L 335.17679 129.359187 
L 335.17679 130.026044 
L 335.17679 118.084541 
L 332.288153 118.084541 
L 332.288153 118.668636 
L 329.399517 118.668636 
L 329.399517 119.264073 
L 329.399517 110.774676 
L 326.510881 110.774676 
L 326.510881 111.309036 
L 323.622244 111.309036 
L 323.622244 111.854192 
L 323.622244 107.403942 
L 320.733608 107.403942 
L 320.733608 107.92008 
L 320.733608 103.336136 
L 317.844972 103.336136 
L 317.844972 103.820321 
L 317.844972 94.268529 
L 314.956335 94.268529 
L 314.956335 94.669941 
L 312.067699 94.669941 
L 312.067699 95.080175 
L 312.067699 79.640455 
L 309.179062 79.640455 
L 309.179062 79.896797 
L 306.290426 79.896797 
L 306.290426 80.159101 
L 306.290426 74.655342 
L 303.40179 74.655342 
L 303.40179 74.861494 
L 300.513153 74.861494 
L 300.513153 75.072612 
L 297.624517 75.072612 
L 297.624517 75.28888 
L 294.735881 75.28888 
L 294.735881 75.510488 
L 291.847244 75.510488 
L 291.847244 75.737636 
L 291.847244 69.759902 
L 288.958608 69.759902 
L 288.958608 69.919149 
L 286.069972 69.919149 
L 286.069972 70.082532 
L 283.181335 70.082532 
L 283.181335 70.250215 
L 280.292699 70.250215 
L 280.292699 70.42237 
L 277.404063 70.42237 
L 277.404063 70.599177 
L 274.515426 70.599177 
L 274.515426 70.780828 
L 271.62679 70.780828 
L 271.62679 70.967525 
L 268.738153 70.967525 
L 268.738153 71.159481 
L 265.849517 71.159481 
L 265.849517 71.356922 
L 262.960881 71.356922 
L 262.960881 71.560086 
L 262.960881 57.338636 
L 69.422244 57.338636 
L 69.422244 57.338636 
" style="fill:none;stroke:#37a055;stroke-linecap:square;stroke-width:1.5;"/>
   </g>
   <g id="line2d_16">
    <path clip-path="url(#p7406da6727)" d="M 358.285881 149.084327 
L 355.397244 149.084327 
L 355.397244 149.836341 
L 355.397244 149.836341 
L 355.397244 136.339992 
L 355.397244 136.339992 
L 355.397244 132.821713 
L 355.397244 132.821713 
L 355.397244 121.896531 
L 355.397244 121.896531 
L 355.397244 114.287922 
L 355.397244 114.287922 
L 355.397244 110.380799 
L 355.397244 110.380799 
L 355.397244 102.35148 
L 355.397244 102.35148 
L 355.397244 98.225303 
L 352.508608 98.225303 
L 352.508608 94.36807 
L 349.619972 94.36807 
L 349.619972 90.362483 
L 349.619972 90.362483 
L 349.619972 85.919607 
L 349.619972 85.919607 
L 349.619972 81.389617 
L 349.619972 81.389617 
L 349.619972 72.057836 
L 346.731335 72.057836 
L 346.731335 67.351698 
L 343.842699 67.351698 
L 343.842699 67.454925 
L 340.954062 67.454925 
L 340.954062 62.503268 
L 335.17679 62.503268 
L 335.17679 62.614335 
L 329.399517 62.614335 
L 329.399517 62.730285 
L 326.510881 62.730285 
L 326.510881 62.790192 
L 323.622244 62.790192 
L 323.622244 62.851445 
L 300.513153 62.851445 
L 300.513153 57.338636 
L 69.422244 57.338636 
L 69.422244 57.338636 
" style="fill:none;stroke:#796eb2;stroke-linecap:square;stroke-width:1.5;"/>
   </g>
   <g id="patch_3">
    <path d="M 54.979063 350.05 
L 54.979063 43.4 
" style="fill:none;stroke:#000000;stroke-linecap:square;stroke-linejoin:miter;stroke-width:0.8;"/>
   </g>
   <g id="patch_4">
    <path d="M 372.729062 350.05 
L 372.729062 43.4 
" style="fill:none;stroke:#000000;stroke-linecap:square;stroke-linejoin:miter;stroke-width:0.8;"/>
   </g>
   <g id="patch_5">
    <path d="M 54.979063 350.05 
L 372.729062 350.05 
" style="fill:none;stroke:#000000;stroke-linecap:square;stroke-linejoin:miter;stroke-width:0.8;"/>
   </g>
   <g id="patch_6">
    <path d="M 54.979063 43.4 
L 372.729062 43.4 
" style="fill:none;stroke:#000000;stroke-linecap:square;stroke-linejoin:miter;stroke-width:0.8;"/>
   </g>
   <g id="text_8">
    <!-- Linear -->
    <g transform="translate(195.20625 37.4)scale(0.12 -0.12)">
     <defs>
      <path d="M 9.8125 72.90625 
L 19.671875 72.90625 
L 19.671875 8.296875 
L 55.171875 8.296875 
L 55.171875 0 
L 9.8125 0 
z
" id="DejaVuSans-76"/>
     </defs>
     <use xlink:href="#DejaVuSans-76"/>
     <use x="55.712891" xlink:href="#DejaVuSans-105"/>
     <use x="83.496094" xlink:href="#DejaVuSans-110"/>
     <use x="146.875" xlink:href="#DejaVuSans-101"/>
     <use x="208.398438" xlink:href="#DejaVuSans-97"/>
     <use x="269.677734" xlink:href="#DejaVuSans-114"/>
    </g>
   </g>
  </g>
  <g id="axes_2">
   <g id="patch_7">
    <path d="M 387.029063 350.05 
L 704.779063 350.05 
L 704.779063 43.4 
L 387.029063 43.4 
z
" style="fill:#ffffff;"/>
   </g>
   <g id="matplotlib.axis_3">
    <g id="xtick_7">
     <g id="line2d_17">
      <g>
       <use style="stroke:#000000;stroke-width:0.8;" x="401.472244" xlink:href="#m06a16ffee9" y="350.05"/>
      </g>
     </g>
    </g>
    <g id="xtick_8">
     <g id="line2d_18">
      <g>
       <use style="stroke:#000000;stroke-width:0.8;" x="459.244972" xlink:href="#m06a16ffee9" y="350.05"/>
      </g>
     </g>
    </g>
    <g id="xtick_9">
     <g id="line2d_19">
      <g>
       <use style="stroke:#000000;stroke-width:0.8;" x="517.017699" xlink:href="#m06a16ffee9" y="350.05"/>
      </g>
     </g>
    </g>
    <g id="xtick_10">
     <g id="line2d_20">
      <g>
       <use style="stroke:#000000;stroke-width:0.8;" x="574.790426" xlink:href="#m06a16ffee9" y="350.05"/>
      </g>
     </g>
    </g>
    <g id="xtick_11">
     <g id="line2d_21">
      <g>
       <use style="stroke:#000000;stroke-width:0.8;" x="632.563153" xlink:href="#m06a16ffee9" y="350.05"/>
      </g>
     </g>
    </g>
    <g id="xtick_12">
     <g id="line2d_22">
      <g>
       <use style="stroke:#000000;stroke-width:0.8;" x="690.335881" xlink:href="#m06a16ffee9" y="350.05"/>
      </g>
     </g>
    </g>
   </g>
   <g id="matplotlib.axis_4">
    <g id="ytick_7">
     <g id="line2d_23">
      <g>
       <use style="stroke:#000000;stroke-width:0.8;" x="387.029063" xlink:href="#m1a8143f0ad" y="302.658636"/>
      </g>
     </g>
    </g>
    <g id="ytick_8">
     <g id="line2d_24">
      <g>
       <use style="stroke:#000000;stroke-width:0.8;" x="387.029063" xlink:href="#m1a8143f0ad" y="253.594636"/>
      </g>
     </g>
    </g>
    <g id="ytick_9">
     <g id="line2d_25">
      <g>
       <use style="stroke:#000000;stroke-width:0.8;" x="387.029063" xlink:href="#m1a8143f0ad" y="204.530636"/>
      </g>
     </g>
    </g>
    <g id="ytick_10">
     <g id="line2d_26">
      <g>
       <use style="stroke:#000000;stroke-width:0.8;" x="387.029063" xlink:href="#m1a8143f0ad" y="155.466636"/>
      </g>
     </g>
    </g>
    <g id="ytick_11">
     <g id="line2d_27">
      <g>
       <use style="stroke:#000000;stroke-width:0.8;" x="387.029063" xlink:href="#m1a8143f0ad" y="106.402636"/>
      </g>
     </g>
    </g>
    <g id="ytick_12">
     <g id="line2d_28">
      <g>
       <use style="stroke:#000000;stroke-width:0.8;" x="387.029063" xlink:href="#m1a8143f0ad" y="57.338636"/>
      </g>
     </g>
    </g>
   </g>
   <g id="line2d_29">
    <path clip-path="url(#p1752b1869d)" d="M 690.335881 302.658636 
L 687.447244 302.658636 
L 687.447244 303.8914 
L 684.558608 303.8914 
L 684.558608 305.136616 
L 681.669972 305.136616 
L 681.669972 306.394474 
L 678.781335 306.394474 
L 678.781335 307.665167 
L 675.892699 307.665167 
L 675.892699 308.948893 
L 673.004062 308.948893 
L 673.004062 310.245853 
L 670.115426 310.245853 
L 670.115426 311.556253 
L 667.22679 311.556253 
L 667.22679 312.880303 
L 664.338153 312.880303 
L 664.338153 314.218218 
L 661.449517 314.218218 
L 661.449517 315.570215 
L 658.560881 315.570215 
L 658.560881 316.93652 
L 655.672244 316.93652 
L 655.672244 318.31736 
L 652.783608 318.31736 
L 652.783608 319.712968 
L 649.894972 319.712968 
L 649.894972 321.123583 
L 647.006335 321.123583 
L 647.006335 322.549447 
L 644.117699 322.549447 
L 644.117699 323.99081 
L 641.229063 323.99081 
L 641.229063 325.447926 
L 641.229063 324.22523 
L 638.340426 324.22523 
L 638.340426 325.699741 
L 638.340426 324.464859 
L 635.45179 324.464859 
L 635.45179 325.957184 
L 635.45179 324.709872 
L 632.563153 324.709872 
L 632.563153 326.220444 
L 632.563153 323.686065 
L 629.674517 323.686065 
L 629.674517 325.216797 
L 629.674517 322.626543 
L 626.785881 322.626543 
L 626.785881 324.177935 
L 626.785881 317.43695 
L 623.897244 317.43695 
L 623.897244 319.013303 
L 623.897244 301.055238 
L 621.008608 301.055238 
L 621.008608 302.658636 
L 621.008608 296.028366 
L 618.119972 296.028366 
L 618.119972 297.652106 
L 618.119972 285.135779 
L 615.231335 285.135779 
L 615.231335 286.774608 
L 615.231335 270.823217 
L 612.342699 270.823217 
L 612.342699 272.465406 
L 609.454062 272.465406 
L 609.454062 274.133055 
L 609.454062 263.090894 
L 606.565426 263.090894 
L 606.565426 264.763677 
L 606.565426 262.442243 
L 603.67679 262.442243 
L 603.67679 264.137314 
L 600.788153 264.137314 
L 600.788153 265.860636 
L 597.899517 265.860636 
L 597.899517 267.612922 
L 597.899517 262.820346 
L 595.010881 262.820346 
L 595.010881 264.59174 
L 595.010881 262.127506 
L 592.122244 262.127506 
L 592.122244 263.9239 
L 592.122244 258.851494 
L 589.233608 258.851494 
L 589.233608 260.666925 
L 589.233608 241.328636 
L 586.344972 241.328636 
L 586.344972 243.114947 
L 586.344972 227.560677 
L 583.456335 227.560677 
L 583.456335 229.315544 
L 583.456335 222.606847 
L 580.567699 222.606847 
L 580.567699 224.365019 
L 580.567699 206.184479 
L 577.679062 206.184479 
L 577.679062 207.875909 
L 577.679062 191.680541 
L 574.790426 191.680541 
L 574.790426 193.299118 
L 571.90179 193.299118 
L 571.90179 194.957173 
L 571.90179 181.551295 
L 569.013153 181.551295 
L 569.013153 183.143765 
L 569.013153 178.405649 
L 566.124517 178.405649 
L 566.124517 179.998636 
L 566.124517 154.084552 
L 563.235881 154.084552 
L 563.235881 155.466636 
L 560.347244 155.466636 
L 560.347244 156.888781 
L 560.347244 132.821713 
L 557.458608 132.821713 
L 557.458608 134.001136 
L 554.569972 134.001136 
L 554.569972 135.218001 
L 554.569972 128.560572 
L 551.681335 128.560572 
L 551.681335 129.728145 
L 551.681335 122.757303 
L 548.792699 122.757303 
L 548.792699 123.866094 
L 548.792699 108.984952 
L 545.904063 108.984952 
L 545.904063 109.907208 
L 545.904063 101.942273 
L 543.015426 101.942273 
L 543.015426 102.768266 
L 543.015426 76.579421 
L 540.12679 76.579421 
L 540.12679 76.964236 
L 537.238153 76.964236 
L 537.238153 77.364759 
L 534.349517 77.364759 
L 534.349517 77.78197 
L 534.349517 57.338636 
L 401.472244 57.338636 
L 401.472244 57.338636 
" style="fill:none;stroke:#aedea7;stroke-linecap:square;stroke-width:1.5;"/>
   </g>
   <g id="line2d_30">
    <path clip-path="url(#p1752b1869d)" d="M 690.335881 292.43697 
L 687.447244 292.43697 
L 687.447244 292.329373 
L 687.447244 279.617531 
L 684.558608 279.617531 
L 684.558608 279.360089 
L 681.669972 279.360089 
L 681.669972 280.6074 
L 681.669972 271.280497 
L 678.781335 271.280497 
L 678.781335 264.235022 
L 675.892699 264.235022 
L 675.892699 265.488939 
L 675.892699 243.332885 
L 673.004062 243.332885 
L 673.004062 244.556531 
L 673.004062 218.548922 
L 670.115426 218.548922 
L 670.115426 199.66169 
L 667.22679 199.66169 
L 667.22679 171.821303 
L 664.338153 171.821303 
L 664.338153 172.783342 
L 664.338153 138.361756 
L 661.449517 138.361756 
L 661.449517 135.290786 
L 658.560881 135.290786 
L 658.560881 128.104021 
L 655.672244 128.104021 
L 655.672244 128.791064 
L 655.672244 120.49032 
L 652.783608 120.49032 
L 652.783608 107.92008 
L 649.894972 107.92008 
L 649.894972 108.44697 
L 647.006335 108.44697 
L 647.006335 79.389872 
L 644.117699 79.389872 
L 644.117699 79.640455 
L 644.117699 74.257257 
L 638.340426 74.257257 
L 638.340426 74.655342 
L 638.340426 69.020541 
L 632.563153 69.020541 
L 632.563153 69.305466 
L 629.674517 69.305466 
L 629.674517 63.471636 
L 623.897244 63.471636 
L 623.897244 63.628893 
L 621.008608 63.628893 
L 621.008608 57.338636 
L 401.472244 57.338636 
L 401.472244 57.338636 
" style="fill:none;stroke:#c6c7e1;stroke-linecap:square;stroke-width:1.5;"/>
   </g>
   <g id="line2d_31">
    <path clip-path="url(#p1752b1869d)" d="M 690.335881 302.658636 
L 678.781335 302.658636 
L 678.781335 307.665167 
L 675.892699 307.665167 
L 675.892699 308.948893 
L 673.004062 308.948893 
L 673.004062 310.245853 
L 670.115426 310.245853 
L 670.115426 311.556253 
L 667.22679 311.556253 
L 667.22679 312.880303 
L 664.338153 312.880303 
L 664.338153 314.218218 
L 661.449517 314.218218 
L 661.449517 315.570215 
L 658.560881 315.570215 
L 658.560881 316.93652 
L 655.672244 316.93652 
L 655.672244 318.31736 
L 652.783608 318.31736 
L 652.783608 319.712968 
L 649.894972 319.712968 
L 649.894972 321.123583 
L 647.006335 321.123583 
L 647.006335 322.549447 
L 644.117699 322.549447 
L 644.117699 323.99081 
L 641.229063 323.99081 
L 641.229063 325.447926 
L 638.340426 325.447926 
L 638.340426 326.921054 
L 635.45179 326.921054 
L 635.45179 328.41046 
L 632.563153 328.41046 
L 632.563153 329.916414 
L 629.674517 329.916414 
L 629.674517 331.439195 
L 626.785881 331.439195 
L 626.785881 332.979086 
L 623.897244 332.979086 
L 623.897244 334.536376 
L 621.008608 334.536376 
L 621.008608 336.111364 
L 621.008608 332.437365 
L 618.119972 332.437365 
L 618.119972 334.036776 
L 618.119972 331.519813 
L 615.231335 331.519813 
L 615.231335 333.142187 
L 615.231335 318.185219 
L 612.342699 318.185219 
L 612.342699 319.846662 
L 609.454062 319.846662 
L 609.454062 321.529406 
L 609.454062 295.649494 
L 606.565426 295.649494 
L 606.565426 297.36396 
L 606.565426 288.012666 
L 603.67679 288.012666 
L 603.67679 289.747057 
L 603.67679 266.463882 
L 600.788153 266.463882 
L 600.788153 268.19219 
L 600.788153 240.213545 
L 597.899517 240.213545 
L 597.899517 241.891297 
L 597.899517 210.973384 
L 595.010881 210.973384 
L 595.010881 212.541085 
L 595.010881 198.267147 
L 592.122244 198.267147 
L 592.122244 199.782507 
L 589.233608 199.782507 
L 589.233608 201.33081 
L 589.233608 181.408521 
L 586.344972 181.408521 
L 586.344972 182.851195 
L 586.344972 134.80811 
L 583.456335 134.80811 
L 583.456335 135.841036 
L 583.456335 130.271609 
L 580.567699 130.271609 
L 580.567699 131.270691 
L 577.679062 131.270691 
L 577.679062 132.297525 
L 577.679062 94.508333 
L 574.790426 94.508333 
L 574.790426 95.080175 
L 574.790426 88.003636 
L 571.90179 88.003636 
L 571.90179 88.490382 
L 569.013153 88.490382 
L 569.013153 88.99283 
L 569.013153 81.468472 
L 566.124517 81.468472 
L 566.124517 81.870636 
L 563.235881 81.870636 
L 563.235881 82.286433 
L 563.235881 74.257257 
L 560.347244 74.257257 
L 560.347244 74.554075 
L 560.347244 66.100065 
L 557.458608 66.100065 
L 557.458608 66.259364 
L 557.458608 57.338636 
L 401.472244 57.338636 
L 401.472244 57.338636 
" style="fill:none;stroke:#37a055;stroke-linecap:square;stroke-width:1.5;"/>
   </g>
   <g id="line2d_32">
    <path clip-path="url(#p1752b1869d)" d="M 690.335881 292.43697 
L 687.447244 292.43697 
L 687.447244 283.992984 
L 684.558608 283.992984 
L 684.558608 211.735839 
L 681.669972 211.735839 
L 681.669972 179.047784 
L 678.781335 179.047784 
L 678.781335 152.168216 
L 675.892699 152.168216 
L 675.892699 152.971857 
L 670.115426 152.971857 
L 670.115426 104.973588 
L 667.22679 104.973588 
L 667.22679 105.440597 
L 667.22679 72.832531 
L 664.338153 72.832531 
L 664.338153 72.99736 
L 664.338153 67.890034 
L 661.449517 67.890034 
L 661.449517 62.730285 
L 655.672244 62.790192 
L 655.672244 62.851445 
L 649.894972 62.914091 
L 649.894972 57.338636 
L 401.472244 57.338636 
L 401.472244 57.338636 
" style="fill:none;stroke:#796eb2;stroke-linecap:square;stroke-width:1.5;"/>
   </g>
   <g id="patch_8">
    <path d="M 387.029063 350.05 
L 387.029063 43.4 
" style="fill:none;stroke:#000000;stroke-linecap:square;stroke-linejoin:miter;stroke-width:0.8;"/>
   </g>
   <g id="patch_9">
    <path d="M 704.779063 350.05 
L 704.779063 43.4 
" style="fill:none;stroke:#000000;stroke-linecap:square;stroke-linejoin:miter;stroke-width:0.8;"/>
   </g>
   <g id="patch_10">
    <path d="M 387.029063 350.05 
L 704.779063 350.05 
" style="fill:none;stroke:#000000;stroke-linecap:square;stroke-linejoin:miter;stroke-width:0.8;"/>
   </g>
   <g id="patch_11">
    <path d="M 387.029063 43.4 
L 704.779063 43.4 
" style="fill:none;stroke:#000000;stroke-linecap:square;stroke-linejoin:miter;stroke-width:0.8;"/>
   </g>
   <g id="text_9">
    <!-- Parabola -->
    <g transform="translate(519.911875 37.4)scale(0.12 -0.12)">
     <defs>
      <path d="M 48.6875 27.296875 
Q 48.6875 37.203125 44.609375 42.84375 
Q 40.53125 48.484375 33.40625 48.484375 
Q 26.265625 48.484375 22.1875 42.84375 
Q 18.109375 37.203125 18.109375 27.296875 
Q 18.109375 17.390625 22.1875 11.75 
Q 26.265625 6.109375 33.40625 6.109375 
Q 40.53125 6.109375 44.609375 11.75 
Q 48.6875 17.390625 48.6875 27.296875 
z
M 18.109375 46.390625 
Q 20.953125 51.265625 25.265625 53.625 
Q 29.59375 56 35.59375 56 
Q 45.5625 56 51.78125 48.09375 
Q 58.015625 40.1875 58.015625 27.296875 
Q 58.015625 14.40625 51.78125 6.484375 
Q 45.5625 -1.421875 35.59375 -1.421875 
Q 29.59375 -1.421875 25.265625 0.953125 
Q 20.953125 3.328125 18.109375 8.203125 
L 18.109375 0 
L 9.078125 0 
L 9.078125 75.984375 
L 18.109375 75.984375 
z
" id="DejaVuSans-98"/>
      <path d="M 9.421875 75.984375 
L 18.40625 75.984375 
L 18.40625 0 
L 9.421875 0 
z
" id="DejaVuSans-108"/>
     </defs>
     <use xlink:href="#DejaVuSans-80"/>
     <use x="55.802734" xlink:href="#DejaVuSans-97"/>
     <use x="117.082031" xlink:href="#DejaVuSans-114"/>
     <use x="158.195312" xlink:href="#DejaVuSans-97"/>
     <use x="219.474609" xlink:href="#DejaVuSans-98"/>
     <use x="282.951172" xlink:href="#DejaVuSans-111"/>
     <use x="344.132812" xlink:href="#DejaVuSans-108"/>
     <use x="371.916016" xlink:href="#DejaVuSans-97"/>
    </g>
   </g>
  </g>
  <g id="axes_3">
   <g id="patch_12">
    <path d="M 54.979063 671 
L 372.729062 671 
L 372.729062 364.35 
L 54.979063 364.35 
z
" style="fill:#ffffff;"/>
   </g>
   <g id="matplotlib.axis_5">
    <g id="xtick_13">
     <g id="line2d_33">
      <g>
       <use style="stroke:#000000;stroke-width:0.8;" x="69.422244" xlink:href="#m06a16ffee9" y="671"/>
      </g>
     </g>
     <g id="text_10">
      <!-- 0.0 -->
      <g transform="translate(61.470682 685.598437)scale(0.1 -0.1)">
       <use xlink:href="#DejaVuSans-48"/>
       <use x="63.623047" xlink:href="#DejaVuSans-46"/>
       <use x="95.410156" xlink:href="#DejaVuSans-48"/>
      </g>
     </g>
    </g>
    <g id="xtick_14">
     <g id="line2d_34">
      <g>
       <use style="stroke:#000000;stroke-width:0.8;" x="127.194972" xlink:href="#m06a16ffee9" y="671"/>
      </g>
     </g>
     <g id="text_11">
      <!-- 0.2 -->
      <g transform="translate(119.243409 685.598437)scale(0.1 -0.1)">
       <defs>
        <path d="M 19.1875 8.296875 
L 53.609375 8.296875 
L 53.609375 0 
L 7.328125 0 
L 7.328125 8.296875 
Q 12.9375 14.109375 22.625 23.890625 
Q 32.328125 33.6875 34.8125 36.53125 
Q 39.546875 41.84375 41.421875 45.53125 
Q 43.3125 49.21875 43.3125 52.78125 
Q 43.3125 58.59375 39.234375 62.25 
Q 35.15625 65.921875 28.609375 65.921875 
Q 23.96875 65.921875 18.8125 64.3125 
Q 13.671875 62.703125 7.8125 59.421875 
L 7.8125 69.390625 
Q 13.765625 71.78125 18.9375 73 
Q 24.125 74.21875 28.421875 74.21875 
Q 39.75 74.21875 46.484375 68.546875 
Q 53.21875 62.890625 53.21875 53.421875 
Q 53.21875 48.921875 51.53125 44.890625 
Q 49.859375 40.875 45.40625 35.40625 
Q 44.1875 33.984375 37.640625 27.21875 
Q 31.109375 20.453125 19.1875 8.296875 
z
" id="DejaVuSans-50"/>
       </defs>
       <use xlink:href="#DejaVuSans-48"/>
       <use x="63.623047" xlink:href="#DejaVuSans-46"/>
       <use x="95.410156" xlink:href="#DejaVuSans-50"/>
      </g>
     </g>
    </g>
    <g id="xtick_15">
     <g id="line2d_35">
      <g>
       <use style="stroke:#000000;stroke-width:0.8;" x="184.967699" xlink:href="#m06a16ffee9" y="671"/>
      </g>
     </g>
     <g id="text_12">
      <!-- 0.4 -->
      <g transform="translate(177.016136 685.598437)scale(0.1 -0.1)">
       <defs>
        <path d="M 37.796875 64.3125 
L 12.890625 25.390625 
L 37.796875 25.390625 
z
M 35.203125 72.90625 
L 47.609375 72.90625 
L 47.609375 25.390625 
L 58.015625 25.390625 
L 58.015625 17.1875 
L 47.609375 17.1875 
L 47.609375 0 
L 37.796875 0 
L 37.796875 17.1875 
L 4.890625 17.1875 
L 4.890625 26.703125 
z
" id="DejaVuSans-52"/>
       </defs>
       <use xlink:href="#DejaVuSans-48"/>
       <use x="63.623047" xlink:href="#DejaVuSans-46"/>
       <use x="95.410156" xlink:href="#DejaVuSans-52"/>
      </g>
     </g>
    </g>
    <g id="xtick_16">
     <g id="line2d_36">
      <g>
       <use style="stroke:#000000;stroke-width:0.8;" x="242.740426" xlink:href="#m06a16ffee9" y="671"/>
      </g>
     </g>
     <g id="text_13">
      <!-- 0.6 -->
      <g transform="translate(234.788864 685.598437)scale(0.1 -0.1)">
       <use xlink:href="#DejaVuSans-48"/>
       <use x="63.623047" xlink:href="#DejaVuSans-46"/>
       <use x="95.410156" xlink:href="#DejaVuSans-54"/>
      </g>
     </g>
    </g>
    <g id="xtick_17">
     <g id="line2d_37">
      <g>
       <use style="stroke:#000000;stroke-width:0.8;" x="300.513153" xlink:href="#m06a16ffee9" y="671"/>
      </g>
     </g>
     <g id="text_14">
      <!-- 0.8 -->
      <g transform="translate(292.561591 685.598437)scale(0.1 -0.1)">
       <use xlink:href="#DejaVuSans-48"/>
       <use x="63.623047" xlink:href="#DejaVuSans-46"/>
       <use x="95.410156" xlink:href="#DejaVuSans-56"/>
      </g>
     </g>
    </g>
    <g id="xtick_18">
     <g id="line2d_38">
      <g>
       <use style="stroke:#000000;stroke-width:0.8;" x="358.285881" xlink:href="#m06a16ffee9" y="671"/>
      </g>
     </g>
     <g id="text_15">
      <!-- 1.0 -->
      <g transform="translate(350.334318 685.598437)scale(0.1 -0.1)">
       <use xlink:href="#DejaVuSans-49"/>
       <use x="63.623047" xlink:href="#DejaVuSans-46"/>
       <use x="95.410156" xlink:href="#DejaVuSans-48"/>
      </g>
     </g>
    </g>
    <g id="text_16">
     <!-- Recall -->
     <g transform="translate(198.936875 699.276562)scale(0.1 -0.1)">
      <defs>
       <path d="M 44.390625 34.1875 
Q 47.5625 33.109375 50.5625 29.59375 
Q 53.5625 26.078125 56.59375 19.921875 
L 66.609375 0 
L 56 0 
L 46.6875 18.703125 
Q 43.0625 26.03125 39.671875 28.421875 
Q 36.28125 30.8125 30.421875 30.8125 
L 19.671875 30.8125 
L 19.671875 0 
L 9.8125 0 
L 9.8125 72.90625 
L 32.078125 72.90625 
Q 44.578125 72.90625 50.734375 67.671875 
Q 56.890625 62.453125 56.890625 51.90625 
Q 56.890625 45.015625 53.6875 40.46875 
Q 50.484375 35.9375 44.390625 34.1875 
z
M 19.671875 64.796875 
L 19.671875 38.921875 
L 32.078125 38.921875 
Q 39.203125 38.921875 42.84375 42.21875 
Q 46.484375 45.515625 46.484375 51.90625 
Q 46.484375 58.296875 42.84375 61.546875 
Q 39.203125 64.796875 32.078125 64.796875 
z
" id="DejaVuSans-82"/>
      </defs>
      <use xlink:href="#DejaVuSans-82"/>
      <use x="64.982422" xlink:href="#DejaVuSans-101"/>
      <use x="126.505859" xlink:href="#DejaVuSans-99"/>
      <use x="181.486328" xlink:href="#DejaVuSans-97"/>
      <use x="242.765625" xlink:href="#DejaVuSans-108"/>
      <use x="270.548828" xlink:href="#DejaVuSans-108"/>
     </g>
    </g>
   </g>
   <g id="matplotlib.axis_6">
    <g id="ytick_13">
     <g id="line2d_39">
      <g>
       <use style="stroke:#000000;stroke-width:0.8;" x="54.979063" xlink:href="#m1a8143f0ad" y="623.608636"/>
      </g>
     </g>
     <g id="text_17">
      <!-- 0.5 -->
      <g transform="translate(32.075938 627.407855)scale(0.1 -0.1)">
       <use xlink:href="#DejaVuSans-48"/>
       <use x="63.623047" xlink:href="#DejaVuSans-46"/>
       <use x="95.410156" xlink:href="#DejaVuSans-53"/>
      </g>
     </g>
    </g>
    <g id="ytick_14">
     <g id="line2d_40">
      <g>
       <use style="stroke:#000000;stroke-width:0.8;" x="54.979063" xlink:href="#m1a8143f0ad" y="574.544636"/>
      </g>
     </g>
     <g id="text_18">
      <!-- 0.6 -->
      <g transform="translate(32.075938 578.343855)scale(0.1 -0.1)">
       <use xlink:href="#DejaVuSans-48"/>
       <use x="63.623047" xlink:href="#DejaVuSans-46"/>
       <use x="95.410156" xlink:href="#DejaVuSans-54"/>
      </g>
     </g>
    </g>
    <g id="ytick_15">
     <g id="line2d_41">
      <g>
       <use style="stroke:#000000;stroke-width:0.8;" x="54.979063" xlink:href="#m1a8143f0ad" y="525.480636"/>
      </g>
     </g>
     <g id="text_19">
      <!-- 0.7 -->
      <g transform="translate(32.075938 529.279855)scale(0.1 -0.1)">
       <use xlink:href="#DejaVuSans-48"/>
       <use x="63.623047" xlink:href="#DejaVuSans-46"/>
       <use x="95.410156" xlink:href="#DejaVuSans-55"/>
      </g>
     </g>
    </g>
    <g id="ytick_16">
     <g id="line2d_42">
      <g>
       <use style="stroke:#000000;stroke-width:0.8;" x="54.979063" xlink:href="#m1a8143f0ad" y="476.416636"/>
      </g>
     </g>
     <g id="text_20">
      <!-- 0.8 -->
      <g transform="translate(32.075938 480.215855)scale(0.1 -0.1)">
       <use xlink:href="#DejaVuSans-48"/>
       <use x="63.623047" xlink:href="#DejaVuSans-46"/>
       <use x="95.410156" xlink:href="#DejaVuSans-56"/>
      </g>
     </g>
    </g>
    <g id="ytick_17">
     <g id="line2d_43">
      <g>
       <use style="stroke:#000000;stroke-width:0.8;" x="54.979063" xlink:href="#m1a8143f0ad" y="427.352636"/>
      </g>
     </g>
     <g id="text_21">
      <!-- 0.9 -->
      <g transform="translate(32.075938 431.151855)scale(0.1 -0.1)">
       <use xlink:href="#DejaVuSans-48"/>
       <use x="63.623047" xlink:href="#DejaVuSans-46"/>
       <use x="95.410156" xlink:href="#DejaVuSans-57"/>
      </g>
     </g>
    </g>
    <g id="ytick_18">
     <g id="line2d_44">
      <g>
       <use style="stroke:#000000;stroke-width:0.8;" x="54.979063" xlink:href="#m1a8143f0ad" y="378.288636"/>
      </g>
     </g>
     <g id="text_22">
      <!-- 1.0 -->
      <g transform="translate(32.075938 382.087855)scale(0.1 -0.1)">
       <use xlink:href="#DejaVuSans-49"/>
       <use x="63.623047" xlink:href="#DejaVuSans-46"/>
       <use x="95.410156" xlink:href="#DejaVuSans-48"/>
      </g>
     </g>
    </g>
    <g id="text_23">
     <!-- Same Variance  -->
     <g transform="translate(14.798438 556.638281)rotate(-90)scale(0.1 -0.1)">
      <defs>
       <path d="M 53.515625 70.515625 
L 53.515625 60.890625 
Q 47.90625 63.578125 42.921875 64.890625 
Q 37.9375 66.21875 33.296875 66.21875 
Q 25.25 66.21875 20.875 63.09375 
Q 16.5 59.96875 16.5 54.203125 
Q 16.5 49.359375 19.40625 46.890625 
Q 22.3125 44.4375 30.421875 42.921875 
L 36.375 41.703125 
Q 47.40625 39.59375 52.65625 34.296875 
Q 57.90625 29 57.90625 20.125 
Q 57.90625 9.515625 50.796875 4.046875 
Q 43.703125 -1.421875 29.984375 -1.421875 
Q 24.8125 -1.421875 18.96875 -0.25 
Q 13.140625 0.921875 6.890625 3.21875 
L 6.890625 13.375 
Q 12.890625 10.015625 18.65625 8.296875 
Q 24.421875 6.59375 29.984375 6.59375 
Q 38.421875 6.59375 43.015625 9.90625 
Q 47.609375 13.234375 47.609375 19.390625 
Q 47.609375 24.75 44.3125 27.78125 
Q 41.015625 30.8125 33.5 32.328125 
L 27.484375 33.5 
Q 16.453125 35.6875 11.515625 40.375 
Q 6.59375 45.0625 6.59375 53.421875 
Q 6.59375 63.09375 13.40625 68.65625 
Q 20.21875 74.21875 32.171875 74.21875 
Q 37.3125 74.21875 42.625 73.28125 
Q 47.953125 72.359375 53.515625 70.515625 
z
" id="DejaVuSans-83"/>
       <path d="M 52 44.1875 
Q 55.375 50.25 60.0625 53.125 
Q 64.75 56 71.09375 56 
Q 79.640625 56 84.28125 50.015625 
Q 88.921875 44.046875 88.921875 33.015625 
L 88.921875 0 
L 79.890625 0 
L 79.890625 32.71875 
Q 79.890625 40.578125 77.09375 44.375 
Q 74.3125 48.1875 68.609375 48.1875 
Q 61.625 48.1875 57.5625 43.546875 
Q 53.515625 38.921875 53.515625 30.90625 
L 53.515625 0 
L 44.484375 0 
L 44.484375 32.71875 
Q 44.484375 40.625 41.703125 44.40625 
Q 38.921875 48.1875 33.109375 48.1875 
Q 26.21875 48.1875 22.15625 43.53125 
Q 18.109375 38.875 18.109375 30.90625 
L 18.109375 0 
L 9.078125 0 
L 9.078125 54.6875 
L 18.109375 54.6875 
L 18.109375 46.1875 
Q 21.1875 51.21875 25.484375 53.609375 
Q 29.78125 56 35.6875 56 
Q 41.65625 56 45.828125 52.96875 
Q 50 49.953125 52 44.1875 
z
" id="DejaVuSans-109"/>
      </defs>
      <use xlink:href="#DejaVuSans-83"/>
      <use x="63.476562" xlink:href="#DejaVuSans-97"/>
      <use x="124.755859" xlink:href="#DejaVuSans-109"/>
      <use x="222.167969" xlink:href="#DejaVuSans-101"/>
      <use x="283.691406" xlink:href="#DejaVuSans-32"/>
      <use x="315.478516" xlink:href="#DejaVuSans-86"/>
      <use x="376.136719" xlink:href="#DejaVuSans-97"/>
      <use x="437.416016" xlink:href="#DejaVuSans-114"/>
      <use x="478.529297" xlink:href="#DejaVuSans-105"/>
      <use x="506.3125" xlink:href="#DejaVuSans-97"/>
      <use x="567.591797" xlink:href="#DejaVuSans-110"/>
      <use x="630.970703" xlink:href="#DejaVuSans-99"/>
      <use x="685.951172" xlink:href="#DejaVuSans-101"/>
      <use x="747.474609" xlink:href="#DejaVuSans-32"/>
     </g>
     <!--  Precision -->
     <g transform="translate(25.99625 541.571094)rotate(-90)scale(0.1 -0.1)">
      <use xlink:href="#DejaVuSans-32"/>
      <use x="31.787109" xlink:href="#DejaVuSans-80"/>
      <use x="90.339844" xlink:href="#DejaVuSans-114"/>
      <use x="129.203125" xlink:href="#DejaVuSans-101"/>
      <use x="190.726562" xlink:href="#DejaVuSans-99"/>
      <use x="245.707031" xlink:href="#DejaVuSans-105"/>
      <use x="273.490234" xlink:href="#DejaVuSans-115"/>
      <use x="325.589844" xlink:href="#DejaVuSans-105"/>
      <use x="353.373047" xlink:href="#DejaVuSans-111"/>
      <use x="414.554688" xlink:href="#DejaVuSans-110"/>
     </g>
    </g>
   </g>
   <g id="line2d_45">
    <path clip-path="url(#p227b5db51a)" d="M 358.285881 623.608636 
L 355.397244 623.608636 
L 355.397244 624.8414 
L 352.508608 624.8414 
L 352.508608 626.086616 
L 349.619972 626.086616 
L 349.619972 627.344474 
L 349.619972 626.111902 
L 346.731335 626.111902 
L 346.731335 627.38279 
L 346.731335 586.884085 
L 343.842699 586.884085 
L 343.842699 588.140685 
L 343.842699 582.972808 
L 340.954062 582.972808 
L 340.954062 584.236291 
L 340.954062 571.379217 
L 338.065426 571.379217 
L 338.065426 572.633052 
L 338.065426 564.731836 
L 335.17679 564.731836 
L 335.17679 565.983133 
L 332.288153 565.983133 
L 332.288153 567.251339 
L 332.288153 554.504411 
L 329.399517 554.504411 
L 329.399517 555.754168 
L 329.399517 544.240401 
L 326.510881 544.240401 
L 326.510881 545.469673 
L 326.510881 540.605629 
L 323.622244 540.605629 
L 323.622244 541.835303 
L 323.622244 528.957613 
L 320.733608 528.957613 
L 320.733608 530.153398 
L 320.733608 504.093765 
L 317.844972 504.093765 
L 317.844972 505.178292 
L 317.844972 498.796707 
L 314.956335 498.796707 
L 314.956335 499.86315 
L 314.956335 493.213321 
L 312.067699 493.213321 
L 312.067699 494.258091 
L 312.067699 487.319747 
L 309.179062 487.319747 
L 309.179062 488.33873 
L 306.290426 488.33873 
L 306.290426 489.376938 
L 306.290426 485.76216 
L 303.40179 485.76216 
L 303.40179 486.795559 
L 300.513153 486.795559 
L 300.513153 487.849025 
L 297.624517 487.849025 
L 297.624517 488.923146 
L 297.624517 485.160716 
L 294.735881 485.160716 
L 294.735881 486.229436 
L 294.735881 478.419249 
L 291.847244 478.419249 
L 291.847244 479.451523 
L 288.958608 479.451523 
L 288.958608 480.505303 
L 288.958608 454.610414 
L 286.069972 454.610414 
L 286.069972 455.467962 
L 283.181335 455.467962 
L 283.181335 456.345 
L 283.181335 436.69816 
L 280.292699 436.69816 
L 280.292699 437.401889 
L 280.292699 421.219636 
L 277.404063 421.219636 
L 277.404063 421.763067 
L 277.404063 391.549177 
L 274.515426 391.549177 
L 274.515426 391.730828 
L 274.515426 378.288636 
L 69.422244 378.288636 
L 69.422244 378.288636 
" style="fill:none;stroke:#aedea7;stroke-linecap:square;stroke-width:1.5;"/>
   </g>
   <g id="line2d_46">
    <path clip-path="url(#p227b5db51a)" d="M 358.285881 614.71102 
L 355.397244 614.71102 
L 355.397244 615.942386 
L 355.397244 613.279373 
L 352.508608 613.279373 
L 352.508608 572.121723 
L 349.619972 572.121723 
L 349.619972 538.428081 
L 346.731335 538.428081 
L 346.731335 537.228355 
L 340.954062 537.228355 
L 340.954062 537.128924 
L 340.954062 527.297822 
L 338.065426 527.297822 
L 338.065426 509.641077 
L 335.17679 509.641077 
L 335.17679 495.880041 
L 329.399517 495.880041 
L 329.399517 494.711687 
L 326.510881 494.711687 
L 326.510881 495.706756 
L 326.510881 482.495362 
L 323.622244 482.495362 
L 323.622244 483.425779 
L 317.844972 483.425779 
L 317.844972 470.862221 
L 314.956335 470.862221 
L 314.956335 471.743874 
L 314.956335 464.031549 
L 312.067699 464.031549 
L 312.067699 456.791036 
L 309.179062 456.791036 
L 309.179062 453.386596 
L 306.290426 453.386596 
L 306.290426 454.160801 
L 306.290426 436.321325 
L 303.40179 436.321325 
L 303.40179 422.391108 
L 300.513153 422.391108 
L 300.513153 422.892273 
L 297.624517 422.892273 
L 297.624517 396.23888 
L 294.735881 396.23888 
L 294.735881 396.460488 
L 291.847244 396.460488 
L 291.847244 396.687636 
L 288.958608 396.687636 
L 288.958608 384.660584 
L 277.404063 384.744426 
L 277.404063 378.288636 
L 69.422244 378.288636 
L 69.422244 378.288636 
" style="fill:none;stroke:#c6c7e1;stroke-linecap:square;stroke-width:1.5;"/>
   </g>
   <g id="line2d_47">
    <path clip-path="url(#p227b5db51a)" d="M 358.285881 623.608636 
L 352.508608 623.608636 
L 352.508608 626.086616 
L 349.619972 626.086616 
L 349.619972 627.344474 
L 349.619972 603.051094 
L 346.731335 603.051094 
L 346.731335 604.313805 
L 346.731335 578.179007 
L 343.842699 578.179007 
L 343.842699 579.420562 
L 343.842699 540.683566 
L 340.954062 540.683566 
L 340.954062 541.835303 
L 340.954062 519.533485 
L 338.065426 519.533485 
L 338.065426 520.61169 
L 338.065426 500.948636 
L 335.17679 500.948636 
L 335.17679 501.945872 
L 335.17679 472.973549 
L 332.288153 472.973549 
L 332.288153 473.811468 
L 332.288153 447.718825 
L 329.399517 447.718825 
L 329.399517 448.380065 
L 329.399517 440.214073 
L 326.510881 440.214073 
L 326.510881 440.821185 
L 323.622244 440.821185 
L 323.622244 441.44032 
L 320.733608 441.44032 
L 320.733608 442.071836 
L 320.733608 437.760152 
L 317.844972 437.760152 
L 317.844972 438.367004 
L 317.844972 433.928224 
L 314.956335 433.928224 
L 314.956335 434.507803 
L 314.956335 405.546414 
L 312.067699 405.546414 
L 312.067699 405.852681 
L 312.067699 395.207257 
L 309.179062 395.207257 
L 309.179062 395.403985 
L 306.290426 395.403985 
L 306.290426 395.605342 
L 306.290426 389.970541 
L 303.40179 389.970541 
L 303.40179 390.111287 
L 300.513153 390.111287 
L 300.513153 390.255466 
L 297.624517 390.255466 
L 297.624517 390.403204 
L 294.735881 390.403204 
L 294.735881 390.554636 
L 294.735881 384.499269 
L 291.847244 384.499269 
L 291.847244 384.578893 
L 291.847244 378.288636 
L 69.422244 378.288636 
L 69.422244 378.288636 
" style="fill:none;stroke:#37a055;stroke-linecap:square;stroke-width:1.5;"/>
   </g>
   <g id="line2d_48">
    <path clip-path="url(#p227b5db51a)" d="M 358.285881 609.330753 
L 352.508608 609.330753 
L 352.508608 610.419389 
L 352.508608 604.737867 
L 349.619972 604.737867 
L 349.619972 593.829908 
L 346.731335 593.829908 
L 346.731335 565.048378 
L 343.842699 565.048378 
L 343.842699 566.261104 
L 343.842699 551.848364 
L 340.954062 551.848364 
L 340.954062 550.858567 
L 338.065426 550.858567 
L 338.065426 545.315019 
L 335.17679 545.315019 
L 335.17679 521.706483 
L 326.510881 521.706483 
L 326.510881 522.365462 
L 326.510881 511.002735 
L 323.622244 511.002735 
L 323.622244 486.837309 
L 320.733608 486.837309 
L 320.733608 480.877 
L 317.844972 480.877 
L 317.844972 481.818178 
L 314.956335 481.818178 
L 314.956335 464.031549 
L 312.067699 464.031549 
L 312.067699 464.872166 
L 309.179062 464.872166 
L 309.179062 421.421823 
L 306.290426 421.421823 
L 306.290426 421.901081 
L 306.290426 416.878299 
L 303.40179 416.878299 
L 303.40179 417.316818 
L 303.40179 390.111287 
L 300.513153 390.111287 
L 300.513153 390.255466 
L 297.624517 390.255466 
L 297.624517 390.403204 
L 297.624517 384.421636 
L 291.847244 384.421636 
L 291.847244 384.578893 
L 280.292699 384.660584 
L 280.292699 378.288636 
L 69.422244 378.288636 
L 69.422244 378.288636 
" style="fill:none;stroke:#796eb2;stroke-linecap:square;stroke-width:1.5;"/>
   </g>
   <g id="patch_13">
    <path d="M 54.979063 671 
L 54.979063 364.35 
" style="fill:none;stroke:#000000;stroke-linecap:square;stroke-linejoin:miter;stroke-width:0.8;"/>
   </g>
   <g id="patch_14">
    <path d="M 372.729062 671 
L 372.729062 364.35 
" style="fill:none;stroke:#000000;stroke-linecap:square;stroke-linejoin:miter;stroke-width:0.8;"/>
   </g>
   <g id="patch_15">
    <path d="M 54.979063 671 
L 372.729062 671 
" style="fill:none;stroke:#000000;stroke-linecap:square;stroke-linejoin:miter;stroke-width:0.8;"/>
   </g>
   <g id="patch_16">
    <path d="M 54.979063 364.35 
L 372.729062 364.35 
" style="fill:none;stroke:#000000;stroke-linecap:square;stroke-linejoin:miter;stroke-width:0.8;"/>
   </g>
   <g id="legend_1">
    <g id="patch_17">
     <path d="M 61.979063 666 
L 158.14625 666 
Q 160.14625 666 160.14625 664 
L 160.14625 606.2875 
Q 160.14625 604.2875 158.14625 604.2875 
L 61.979063 604.2875 
Q 59.979063 604.2875 59.979063 606.2875 
L 59.979063 664 
Q 59.979063 666 61.979063 666 
z
" style="fill:#ffffff;opacity:0.8;stroke:#cccccc;stroke-linejoin:miter;"/>
    </g>
    <g id="line2d_49">
     <path d="M 63.979063 612.385937 
L 83.979062 612.385937 
" style="fill:none;stroke:#c6c7e1;stroke-linecap:square;stroke-width:1.5;"/>
    </g>
    <g id="line2d_50"/>
    <g id="text_24">
     <!-- NLCD (300) -->
     <g transform="translate(91.979062 615.885937)scale(0.1 -0.1)">
      <defs>
       <path d="M 9.8125 72.90625 
L 23.09375 72.90625 
L 55.421875 11.921875 
L 55.421875 72.90625 
L 64.984375 72.90625 
L 64.984375 0 
L 51.703125 0 
L 19.390625 60.984375 
L 19.390625 0 
L 9.8125 0 
z
" id="DejaVuSans-78"/>
       <path d="M 64.40625 67.28125 
L 64.40625 56.890625 
Q 59.421875 61.53125 53.78125 63.8125 
Q 48.140625 66.109375 41.796875 66.109375 
Q 29.296875 66.109375 22.65625 58.46875 
Q 16.015625 50.828125 16.015625 36.375 
Q 16.015625 21.96875 22.65625 14.328125 
Q 29.296875 6.6875 41.796875 6.6875 
Q 48.140625 6.6875 53.78125 8.984375 
Q 59.421875 11.28125 64.40625 15.921875 
L 64.40625 5.609375 
Q 59.234375 2.09375 53.4375 0.328125 
Q 47.65625 -1.421875 41.21875 -1.421875 
Q 24.65625 -1.421875 15.125 8.703125 
Q 5.609375 18.84375 5.609375 36.375 
Q 5.609375 53.953125 15.125 64.078125 
Q 24.65625 74.21875 41.21875 74.21875 
Q 47.75 74.21875 53.53125 72.484375 
Q 59.328125 70.75 64.40625 67.28125 
z
" id="DejaVuSans-67"/>
       <path d="M 31 75.875 
Q 24.46875 64.65625 21.28125 53.65625 
Q 18.109375 42.671875 18.109375 31.390625 
Q 18.109375 20.125 21.3125 9.0625 
Q 24.515625 -2 31 -13.1875 
L 23.1875 -13.1875 
Q 15.875 -1.703125 12.234375 9.375 
Q 8.59375 20.453125 8.59375 31.390625 
Q 8.59375 42.28125 12.203125 53.3125 
Q 15.828125 64.359375 23.1875 75.875 
z
" id="DejaVuSans-40"/>
       <path d="M 40.578125 39.3125 
Q 47.65625 37.796875 51.625 33 
Q 55.609375 28.21875 55.609375 21.1875 
Q 55.609375 10.40625 48.1875 4.484375 
Q 40.765625 -1.421875 27.09375 -1.421875 
Q 22.515625 -1.421875 17.65625 -0.515625 
Q 12.796875 0.390625 7.625 2.203125 
L 7.625 11.71875 
Q 11.71875 9.328125 16.59375 8.109375 
Q 21.484375 6.890625 26.8125 6.890625 
Q 36.078125 6.890625 40.9375 10.546875 
Q 45.796875 14.203125 45.796875 21.1875 
Q 45.796875 27.640625 41.28125 31.265625 
Q 36.765625 34.90625 28.71875 34.90625 
L 20.21875 34.90625 
L 20.21875 43.015625 
L 29.109375 43.015625 
Q 36.375 43.015625 40.234375 45.921875 
Q 44.09375 48.828125 44.09375 54.296875 
Q 44.09375 59.90625 40.109375 62.90625 
Q 36.140625 65.921875 28.71875 65.921875 
Q 24.65625 65.921875 20.015625 65.03125 
Q 15.375 64.15625 9.8125 62.3125 
L 9.8125 71.09375 
Q 15.4375 72.65625 20.34375 73.4375 
Q 25.25 74.21875 29.59375 74.21875 
Q 40.828125 74.21875 47.359375 69.109375 
Q 53.90625 64.015625 53.90625 55.328125 
Q 53.90625 49.265625 50.4375 45.09375 
Q 46.96875 40.921875 40.578125 39.3125 
z
" id="DejaVuSans-51"/>
       <path d="M 8.015625 75.875 
L 15.828125 75.875 
Q 23.140625 64.359375 26.78125 53.3125 
Q 30.421875 42.28125 30.421875 31.390625 
Q 30.421875 20.453125 26.78125 9.375 
Q 23.140625 -1.703125 15.828125 -13.1875 
L 8.015625 -13.1875 
Q 14.5 -2 17.703125 9.0625 
Q 20.90625 20.125 20.90625 31.390625 
Q 20.90625 42.671875 17.703125 53.65625 
Q 14.5 64.65625 8.015625 75.875 
z
" id="DejaVuSans-41"/>
      </defs>
      <use xlink:href="#DejaVuSans-78"/>
      <use x="74.804688" xlink:href="#DejaVuSans-76"/>
      <use x="130.517578" xlink:href="#DejaVuSans-67"/>
      <use x="200.341797" xlink:href="#DejaVuSans-68"/>
      <use x="277.34375" xlink:href="#DejaVuSans-32"/>
      <use x="309.130859" xlink:href="#DejaVuSans-40"/>
      <use x="348.144531" xlink:href="#DejaVuSans-51"/>
      <use x="411.767578" xlink:href="#DejaVuSans-48"/>
      <use x="475.390625" xlink:href="#DejaVuSans-48"/>
      <use x="539.013672" xlink:href="#DejaVuSans-41"/>
     </g>
    </g>
    <g id="line2d_51">
     <path d="M 63.979063 627.064062 
L 83.979062 627.064062 
" style="fill:none;stroke:#796eb2;stroke-linecap:square;stroke-width:1.5;"/>
    </g>
    <g id="line2d_52"/>
    <g id="text_25">
     <!-- NLCD (1000) -->
     <g transform="translate(91.979062 630.564062)scale(0.1 -0.1)">
      <use xlink:href="#DejaVuSans-78"/>
      <use x="74.804688" xlink:href="#DejaVuSans-76"/>
      <use x="130.517578" xlink:href="#DejaVuSans-67"/>
      <use x="200.341797" xlink:href="#DejaVuSans-68"/>
      <use x="277.34375" xlink:href="#DejaVuSans-32"/>
      <use x="309.130859" xlink:href="#DejaVuSans-40"/>
      <use x="348.144531" xlink:href="#DejaVuSans-49"/>
      <use x="411.767578" xlink:href="#DejaVuSans-48"/>
      <use x="475.390625" xlink:href="#DejaVuSans-48"/>
      <use x="539.013672" xlink:href="#DejaVuSans-48"/>
      <use x="602.636719" xlink:href="#DejaVuSans-41"/>
     </g>
    </g>
    <g id="line2d_53">
     <path d="M 63.979063 641.742187 
L 83.979062 641.742187 
" style="fill:none;stroke:#aedea7;stroke-linecap:square;stroke-width:1.5;"/>
    </g>
    <g id="line2d_54"/>
    <g id="text_26">
     <!-- CIT (300) -->
     <g transform="translate(91.979062 645.242187)scale(0.1 -0.1)">
      <defs>
       <path d="M 9.8125 72.90625 
L 19.671875 72.90625 
L 19.671875 0 
L 9.8125 0 
z
" id="DejaVuSans-73"/>
       <path d="M -0.296875 72.90625 
L 61.375 72.90625 
L 61.375 64.59375 
L 35.5 64.59375 
L 35.5 0 
L 25.59375 0 
L 25.59375 64.59375 
L -0.296875 64.59375 
z
" id="DejaVuSans-84"/>
      </defs>
      <use xlink:href="#DejaVuSans-67"/>
      <use x="69.824219" xlink:href="#DejaVuSans-73"/>
      <use x="99.316406" xlink:href="#DejaVuSans-84"/>
      <use x="160.400391" xlink:href="#DejaVuSans-32"/>
      <use x="192.1875" xlink:href="#DejaVuSans-40"/>
      <use x="231.201172" xlink:href="#DejaVuSans-51"/>
      <use x="294.824219" xlink:href="#DejaVuSans-48"/>
      <use x="358.447266" xlink:href="#DejaVuSans-48"/>
      <use x="422.070312" xlink:href="#DejaVuSans-41"/>
     </g>
    </g>
    <g id="line2d_55">
     <path d="M 63.979063 656.420312 
L 83.979062 656.420312 
" style="fill:none;stroke:#37a055;stroke-linecap:square;stroke-width:1.5;"/>
    </g>
    <g id="line2d_56"/>
    <g id="text_27">
     <!-- CIT (1000) -->
     <g transform="translate(91.979062 659.920312)scale(0.1 -0.1)">
      <use xlink:href="#DejaVuSans-67"/>
      <use x="69.824219" xlink:href="#DejaVuSans-73"/>
      <use x="99.316406" xlink:href="#DejaVuSans-84"/>
      <use x="160.400391" xlink:href="#DejaVuSans-32"/>
      <use x="192.1875" xlink:href="#DejaVuSans-40"/>
      <use x="231.201172" xlink:href="#DejaVuSans-49"/>
      <use x="294.824219" xlink:href="#DejaVuSans-48"/>
      <use x="358.447266" xlink:href="#DejaVuSans-48"/>
      <use x="422.070312" xlink:href="#DejaVuSans-48"/>
      <use x="485.693359" xlink:href="#DejaVuSans-41"/>
     </g>
    </g>
   </g>
  </g>
  <g id="axes_4">
   <g id="patch_18">
    <path d="M 387.029063 671 
L 704.779063 671 
L 704.779063 364.35 
L 387.029063 364.35 
z
" style="fill:#ffffff;"/>
   </g>
   <g id="matplotlib.axis_7">
    <g id="xtick_19">
     <g id="line2d_57">
      <g>
       <use style="stroke:#000000;stroke-width:0.8;" x="401.472244" xlink:href="#m06a16ffee9" y="671"/>
      </g>
     </g>
     <g id="text_28">
      <!-- 0.0 -->
      <g transform="translate(393.520682 685.598437)scale(0.1 -0.1)">
       <use xlink:href="#DejaVuSans-48"/>
       <use x="63.623047" xlink:href="#DejaVuSans-46"/>
       <use x="95.410156" xlink:href="#DejaVuSans-48"/>
      </g>
     </g>
    </g>
    <g id="xtick_20">
     <g id="line2d_58">
      <g>
       <use style="stroke:#000000;stroke-width:0.8;" x="459.244972" xlink:href="#m06a16ffee9" y="671"/>
      </g>
     </g>
     <g id="text_29">
      <!-- 0.2 -->
      <g transform="translate(451.293409 685.598437)scale(0.1 -0.1)">
       <use xlink:href="#DejaVuSans-48"/>
       <use x="63.623047" xlink:href="#DejaVuSans-46"/>
       <use x="95.410156" xlink:href="#DejaVuSans-50"/>
      </g>
     </g>
    </g>
    <g id="xtick_21">
     <g id="line2d_59">
      <g>
       <use style="stroke:#000000;stroke-width:0.8;" x="517.017699" xlink:href="#m06a16ffee9" y="671"/>
      </g>
     </g>
     <g id="text_30">
      <!-- 0.4 -->
      <g transform="translate(509.066136 685.598437)scale(0.1 -0.1)">
       <use xlink:href="#DejaVuSans-48"/>
       <use x="63.623047" xlink:href="#DejaVuSans-46"/>
       <use x="95.410156" xlink:href="#DejaVuSans-52"/>
      </g>
     </g>
    </g>
    <g id="xtick_22">
     <g id="line2d_60">
      <g>
       <use style="stroke:#000000;stroke-width:0.8;" x="574.790426" xlink:href="#m06a16ffee9" y="671"/>
      </g>
     </g>
     <g id="text_31">
      <!-- 0.6 -->
      <g transform="translate(566.838864 685.598437)scale(0.1 -0.1)">
       <use xlink:href="#DejaVuSans-48"/>
       <use x="63.623047" xlink:href="#DejaVuSans-46"/>
       <use x="95.410156" xlink:href="#DejaVuSans-54"/>
      </g>
     </g>
    </g>
    <g id="xtick_23">
     <g id="line2d_61">
      <g>
       <use style="stroke:#000000;stroke-width:0.8;" x="632.563153" xlink:href="#m06a16ffee9" y="671"/>
      </g>
     </g>
     <g id="text_32">
      <!-- 0.8 -->
      <g transform="translate(624.611591 685.598437)scale(0.1 -0.1)">
       <use xlink:href="#DejaVuSans-48"/>
       <use x="63.623047" xlink:href="#DejaVuSans-46"/>
       <use x="95.410156" xlink:href="#DejaVuSans-56"/>
      </g>
     </g>
    </g>
    <g id="xtick_24">
     <g id="line2d_62">
      <g>
       <use style="stroke:#000000;stroke-width:0.8;" x="690.335881" xlink:href="#m06a16ffee9" y="671"/>
      </g>
     </g>
     <g id="text_33">
      <!-- 1.0 -->
      <g transform="translate(682.384318 685.598437)scale(0.1 -0.1)">
       <use xlink:href="#DejaVuSans-49"/>
       <use x="63.623047" xlink:href="#DejaVuSans-46"/>
       <use x="95.410156" xlink:href="#DejaVuSans-48"/>
      </g>
     </g>
    </g>
    <g id="text_34">
     <!-- Recall -->
     <g transform="translate(530.986875 699.276562)scale(0.1 -0.1)">
      <use xlink:href="#DejaVuSans-82"/>
      <use x="64.982422" xlink:href="#DejaVuSans-101"/>
      <use x="126.505859" xlink:href="#DejaVuSans-99"/>
      <use x="181.486328" xlink:href="#DejaVuSans-97"/>
      <use x="242.765625" xlink:href="#DejaVuSans-108"/>
      <use x="270.548828" xlink:href="#DejaVuSans-108"/>
     </g>
    </g>
   </g>
   <g id="matplotlib.axis_8">
    <g id="ytick_19">
     <g id="line2d_63">
      <g>
       <use style="stroke:#000000;stroke-width:0.8;" x="387.029063" xlink:href="#m1a8143f0ad" y="623.608636"/>
      </g>
     </g>
    </g>
    <g id="ytick_20">
     <g id="line2d_64">
      <g>
       <use style="stroke:#000000;stroke-width:0.8;" x="387.029063" xlink:href="#m1a8143f0ad" y="574.544636"/>
      </g>
     </g>
    </g>
    <g id="ytick_21">
     <g id="line2d_65">
      <g>
       <use style="stroke:#000000;stroke-width:0.8;" x="387.029063" xlink:href="#m1a8143f0ad" y="525.480636"/>
      </g>
     </g>
    </g>
    <g id="ytick_22">
     <g id="line2d_66">
      <g>
       <use style="stroke:#000000;stroke-width:0.8;" x="387.029063" xlink:href="#m1a8143f0ad" y="476.416636"/>
      </g>
     </g>
    </g>
    <g id="ytick_23">
     <g id="line2d_67">
      <g>
       <use style="stroke:#000000;stroke-width:0.8;" x="387.029063" xlink:href="#m1a8143f0ad" y="427.352636"/>
      </g>
     </g>
    </g>
    <g id="ytick_24">
     <g id="line2d_68">
      <g>
       <use style="stroke:#000000;stroke-width:0.8;" x="387.029063" xlink:href="#m1a8143f0ad" y="378.288636"/>
      </g>
     </g>
    </g>
   </g>
   <g id="line2d_69">
    <path clip-path="url(#pc74462c1f6)" d="M 690.335881 623.608636 
L 687.447244 623.608636 
L 687.447244 624.8414 
L 687.447244 623.608636 
L 684.558608 623.608636 
L 684.558608 624.853916 
L 684.558608 623.608636 
L 681.669972 623.608636 
L 681.669972 624.866688 
L 681.669972 613.057239 
L 678.781335 613.057239 
L 678.781335 614.326258 
L 678.781335 596.665977 
L 675.892699 596.665977 
L 675.892699 597.935613 
L 675.892699 596.350859 
L 673.004062 596.350859 
L 673.004062 597.633578 
L 673.004062 592.760014 
L 670.115426 592.760014 
L 670.115426 594.05201 
L 670.115426 587.264933 
L 667.22679 587.264933 
L 667.22679 588.562922 
L 667.22679 571.962321 
L 664.338153 571.962321 
L 664.338153 573.244928 
L 664.338153 558.871414 
L 661.449517 558.871414 
L 661.449517 560.134231 
L 661.449517 555.754168 
L 658.560881 555.754168 
L 658.560881 557.021779 
L 658.560881 538.118333 
L 655.672244 538.118333 
L 655.672244 539.338407 
L 655.672244 483.425779 
L 652.783608 483.425779 
L 652.783608 484.372961 
L 649.894972 484.372961 
L 649.894972 485.337364 
L 649.894972 467.071113 
L 647.006335 467.071113 
L 647.006335 467.92479 
L 647.006335 456.013785 
L 644.117699 456.013785 
L 644.117699 456.791036 
L 644.117699 430.484381 
L 641.229063 430.484381 
L 641.229063 431.045626 
L 641.229063 426.286028 
L 638.340426 426.286028 
L 638.340426 426.813472 
L 638.340426 421.901081 
L 635.45179 421.901081 
L 635.45179 422.391108 
L 635.45179 378.288636 
L 401.472244 378.288636 
L 401.472244 378.288636 
" style="fill:none;stroke:#aedea7;stroke-linecap:square;stroke-width:1.5;"/>
   </g>
   <g id="line2d_70">
    <path clip-path="url(#pc74462c1f6)" d="M 690.335881 588.562922 
L 687.447244 588.562922 
L 687.447244 588.157769 
L 684.558608 588.157769 
L 684.558608 587.743139 
L 678.781335 587.743139 
L 678.781335 588.562922 
L 675.892699 588.562922 
L 675.892699 586.438939 
L 675.892699 586.438939 
L 675.892699 582.972808 
L 675.892699 582.972808 
L 675.892699 581.207649 
L 675.892699 581.207649 
L 675.892699 577.611136 
L 675.892699 577.611136 
L 675.892699 575.778951 
L 675.892699 575.778951 
L 675.892699 572.04456 
L 673.004062 572.04456 
L 673.004062 569.447078 
L 673.004062 569.447078 
L 673.004062 567.489682 
L 673.004062 567.489682 
L 673.004062 565.506531 
L 673.004062 565.506531 
L 673.004062 563.497113 
L 670.115426 563.497113 
L 670.115426 562.690247 
L 670.115426 562.690247 
L 670.115426 556.397677 
L 670.115426 556.397677 
L 670.115426 552.05697 
L 670.115426 552.05697 
L 670.115426 545.315019 
L 670.115426 545.315019 
L 670.115426 543.003494 
L 670.115426 543.003494 
L 670.115426 540.658708 
L 670.115426 540.658708 
L 670.115426 538.279941 
L 670.115426 538.279941 
L 670.115426 533.41746 
L 670.115426 533.41746 
L 670.115426 528.40983 
L 664.338153 528.40983 
L 664.338153 525.480636 
L 661.449517 525.480636 
L 661.449517 523.947386 
L 658.560881 523.947386 
L 658.560881 516.775733 
L 658.560881 516.775733 
L 658.560881 513.912701 
L 658.560881 513.912701 
L 658.560881 511.002735 
L 658.560881 511.002735 
L 658.560881 501.979393 
L 655.672244 501.979393 
L 655.672244 499.90026 
L 655.672244 499.90026 
L 655.672244 496.718981 
L 652.783608 496.718981 
L 652.783608 497.74881 
L 649.894972 497.74881 
L 649.894972 498.796707 
L 649.894972 498.796707 
L 649.894972 492.187208 
L 647.006335 492.187208 
L 647.006335 493.213321 
L 647.006335 493.213321 
L 647.006335 486.319462 
L 644.117699 486.319462 
L 644.117699 487.319747 
L 644.117699 487.319747 
L 644.117699 476.416636 
L 644.117699 476.416636 
L 644.117699 472.642483 
L 644.117699 472.642483 
L 644.117699 464.872166 
L 644.117699 464.872166 
L 644.117699 460.871607 
L 644.117699 460.871607 
L 644.117699 456.791036 
L 644.117699 456.791036 
L 644.117699 452.62803 
L 644.117699 452.62803 
L 644.117699 444.044513 
L 644.117699 444.044513 
L 644.117699 439.618636 
L 644.117699 439.618636 
L 644.117699 435.099584 
L 644.117699 435.099584 
L 644.117699 430.484381 
L 644.117699 430.484381 
L 644.117699 425.769927 
L 644.117699 425.769927 
L 644.117699 420.952984 
L 644.117699 420.952984 
L 644.117699 405.852681 
L 641.229063 405.852681 
L 641.229063 406.165909 
L 638.340426 406.165909 
L 638.340426 401.109101 
L 638.340426 401.109101 
L 638.340426 395.605342 
L 635.45179 395.605342 
L 635.45179 395.811494 
L 635.45179 395.811494 
L 635.45179 390.111287 
L 632.563153 390.111287 
L 632.563153 384.34592 
L 629.674517 384.34592 
L 629.674517 384.421636 
L 623.897244 384.421636 
L 623.897244 384.578893 
L 618.119972 384.578893 
L 618.119972 378.288636 
L 615.231335 378.288636 
L 615.231335 378.288636 
L 606.565426 378.288636 
L 606.565426 378.288636 
L 401.472244 378.288636 
L 401.472244 378.288636 
" style="fill:none;stroke:#c6c7e1;stroke-linecap:square;stroke-width:1.5;"/>
   </g>
   <g id="line2d_71">
    <path clip-path="url(#pc74462c1f6)" d="M 690.335881 623.608636 
L 687.447244 623.608636 
L 687.447244 624.8414 
L 684.558608 624.8414 
L 684.558608 626.086616 
L 681.669972 626.086616 
L 681.669972 627.344474 
L 678.781335 627.344474 
L 678.781335 628.615167 
L 675.892699 628.615167 
L 675.892699 629.898893 
L 675.892699 615.609071 
L 673.004062 615.609071 
L 673.004062 616.905904 
L 673.004062 606.882273 
L 670.115426 606.882273 
L 670.115426 608.188522 
L 667.22679 608.188522 
L 667.22679 609.509786 
L 667.22679 601.834672 
L 664.338153 601.834672 
L 664.338153 603.165303 
L 664.338153 525.480636 
L 661.449517 525.480636 
L 661.449517 526.62166 
L 661.449517 440.214073 
L 658.560881 440.214073 
L 658.560881 440.821185 
L 658.560881 427.848232 
L 655.672244 427.848232 
L 655.672244 428.353942 
L 655.672244 399.62081 
L 652.783608 399.62081 
L 652.783608 399.85523 
L 652.783608 389.314254 
L 649.894972 389.314254 
L 649.894972 389.439545 
L 647.006335 389.439545 
L 647.006335 389.567717 
L 644.117699 389.567717 
L 644.117699 389.698869 
L 644.117699 384.060872 
L 641.229063 384.060872 
L 641.229063 384.129589 
L 641.229063 378.288636 
L 401.472244 378.288636 
L 401.472244 378.288636 
" style="fill:none;stroke:#37a055;stroke-linecap:square;stroke-width:1.5;"/>
   </g>
   <g id="line2d_72">
    <path clip-path="url(#pc74462c1f6)" d="M 690.335881 602.276462 
L 687.447244 602.276462 
L 687.447244 603.50044 
L 687.447244 603.50044 
L 687.447244 602.042043 
L 684.558608 602.042043 
L 684.558608 601.802414 
L 684.558608 601.802414 
L 684.558608 597.274851 
L 684.558608 597.274851 
L 684.558608 592.591165 
L 681.669972 592.591165 
L 681.669972 590.612379 
L 678.781335 590.612379 
L 678.781335 588.562922 
L 678.781335 588.562922 
L 678.781335 585.185022 
L 678.781335 585.185022 
L 678.781335 576.373108 
L 675.892699 576.373108 
L 675.892699 575.778951 
L 673.004062 575.778951 
L 673.004062 575.169655 
L 673.004062 575.169655 
L 673.004062 573.286585 
L 673.004062 573.286585 
L 673.004062 571.379217 
L 667.22679 571.379217 
L 667.22679 571.962321 
L 667.22679 571.962321 
L 667.22679 569.995656 
L 667.22679 569.995656 
L 667.22679 568.00277 
L 664.338153 568.00277 
L 664.338153 567.251339 
L 664.338153 567.251339 
L 664.338153 565.199113 
L 664.338153 565.199113 
L 664.338153 558.871414 
L 664.338153 558.871414 
L 664.338153 556.703182 
L 664.338153 556.703182 
L 664.338153 554.504411 
L 664.338153 554.504411 
L 664.338153 552.274452 
L 664.338153 552.274452 
L 664.338153 547.718277 
L 664.338153 547.718277 
L 664.338153 540.632754 
L 664.338153 540.632754 
L 664.338153 538.200933 
L 664.338153 538.200933 
L 664.338153 533.227584 
L 664.338153 533.227584 
L 664.338153 530.684394 
L 664.338153 530.684394 
L 664.338153 528.102377 
L 664.338153 528.102377 
L 664.338153 525.480636 
L 664.338153 525.480636 
L 664.338153 522.818249 
L 664.338153 522.818249 
L 664.338153 520.114261 
L 664.338153 520.114261 
L 664.338153 517.367691 
L 661.449517 517.367691 
L 661.449517 515.667836 
L 661.449517 515.667836 
L 661.449517 509.923758 
L 661.449517 509.923758 
L 661.449517 506.981095 
L 661.449517 506.981095 
L 661.449517 503.989793 
L 661.449517 503.989793 
L 661.449517 500.948636 
L 661.449517 500.948636 
L 661.449517 491.513252 
L 661.449517 491.513252 
L 661.449517 484.949506 
L 661.449517 484.949506 
L 661.449517 481.581268 
L 661.449517 481.581268 
L 661.449517 478.153415 
L 661.449517 478.153415 
L 661.449517 463.81304 
L 661.449517 463.81304 
L 661.449517 460.06197 
L 661.449517 460.06197 
L 661.449517 448.380065 
L 661.449517 448.380065 
L 661.449517 440.214073 
L 661.449517 440.214073 
L 661.449517 436.010989 
L 661.449517 436.010989 
L 661.449517 427.352636 
L 658.560881 427.352636 
L 658.560881 423.347412 
L 658.560881 423.347412 
L 658.560881 418.753791 
L 655.672244 418.753791 
L 655.672244 419.175303 
L 655.672244 419.175303 
L 655.672244 414.441057 
L 655.672244 414.441057 
L 655.672244 409.606083 
L 655.672244 409.606083 
L 655.672244 404.667131 
L 652.783608 404.667131 
L 652.783608 404.953854 
L 649.894972 404.953854 
L 649.894972 394.827063 
L 647.006335 394.827063 
L 647.006335 389.567717 
L 644.117699 389.567717 
L 644.117699 389.698869 
L 641.229063 389.698869 
L 641.229063 384.129589 
L 635.45179 384.129589 
L 635.45179 384.272051 
L 632.563153 384.272051 
L 632.563153 384.34592 
L 632.563153 384.34592 
L 632.563153 378.288636 
L 401.472244 378.288636 
L 401.472244 378.288636 
" style="fill:none;stroke:#796eb2;stroke-linecap:square;stroke-width:1.5;"/>
   </g>
   <g id="patch_19">
    <path d="M 387.029063 671 
L 387.029063 364.35 
" style="fill:none;stroke:#000000;stroke-linecap:square;stroke-linejoin:miter;stroke-width:0.8;"/>
   </g>
   <g id="patch_20">
    <path d="M 704.779063 671 
L 704.779063 364.35 
" style="fill:none;stroke:#000000;stroke-linecap:square;stroke-linejoin:miter;stroke-width:0.8;"/>
   </g>
   <g id="patch_21">
    <path d="M 387.029063 671 
L 704.779063 671 
" style="fill:none;stroke:#000000;stroke-linecap:square;stroke-linejoin:miter;stroke-width:0.8;"/>
   </g>
   <g id="patch_22">
    <path d="M 387.029063 364.35 
L 704.779063 364.35 
" style="fill:none;stroke:#000000;stroke-linecap:square;stroke-linejoin:miter;stroke-width:0.8;"/>
   </g>
  </g>
  <g id="text_35">
   <!-- Performance when the variance changes for sample sizes of 300 and 1000  -->
   <g transform="translate(128.970313 16.318125)scale(0.12 -0.12)">
    <defs>
     <path d="M 4.203125 54.6875 
L 13.1875 54.6875 
L 24.421875 12.015625 
L 35.59375 54.6875 
L 46.1875 54.6875 
L 57.421875 12.015625 
L 68.609375 54.6875 
L 77.59375 54.6875 
L 63.28125 0 
L 52.6875 0 
L 40.921875 44.828125 
L 29.109375 0 
L 18.5 0 
z
" id="DejaVuSans-119"/>
     <path d="M 54.890625 33.015625 
L 54.890625 0 
L 45.90625 0 
L 45.90625 32.71875 
Q 45.90625 40.484375 42.875 44.328125 
Q 39.84375 48.1875 33.796875 48.1875 
Q 26.515625 48.1875 22.3125 43.546875 
Q 18.109375 38.921875 18.109375 30.90625 
L 18.109375 0 
L 9.078125 0 
L 9.078125 75.984375 
L 18.109375 75.984375 
L 18.109375 46.1875 
Q 21.34375 51.125 25.703125 53.5625 
Q 30.078125 56 35.796875 56 
Q 45.21875 56 50.046875 50.171875 
Q 54.890625 44.34375 54.890625 33.015625 
z
" id="DejaVuSans-104"/>
     <path d="M 2.984375 54.6875 
L 12.5 54.6875 
L 29.59375 8.796875 
L 46.6875 54.6875 
L 56.203125 54.6875 
L 35.6875 0 
L 23.484375 0 
z
" id="DejaVuSans-118"/>
     <path d="M 45.40625 27.984375 
Q 45.40625 37.75 41.375 43.109375 
Q 37.359375 48.484375 30.078125 48.484375 
Q 22.859375 48.484375 18.828125 43.109375 
Q 14.796875 37.75 14.796875 27.984375 
Q 14.796875 18.265625 18.828125 12.890625 
Q 22.859375 7.515625 30.078125 7.515625 
Q 37.359375 7.515625 41.375 12.890625 
Q 45.40625 18.265625 45.40625 27.984375 
z
M 54.390625 6.78125 
Q 54.390625 -7.171875 48.1875 -13.984375 
Q 42 -20.796875 29.203125 -20.796875 
Q 24.46875 -20.796875 20.265625 -20.09375 
Q 16.0625 -19.390625 12.109375 -17.921875 
L 12.109375 -9.1875 
Q 16.0625 -11.328125 19.921875 -12.34375 
Q 23.78125 -13.375 27.78125 -13.375 
Q 36.625 -13.375 41.015625 -8.765625 
Q 45.40625 -4.15625 45.40625 5.171875 
L 45.40625 9.625 
Q 42.625 4.78125 38.28125 2.390625 
Q 33.9375 0 27.875 0 
Q 17.828125 0 11.671875 7.65625 
Q 5.515625 15.328125 5.515625 27.984375 
Q 5.515625 40.671875 11.671875 48.328125 
Q 17.828125 56 27.875 56 
Q 33.9375 56 38.28125 53.609375 
Q 42.625 51.21875 45.40625 46.390625 
L 45.40625 54.6875 
L 54.390625 54.6875 
z
" id="DejaVuSans-103"/>
     <path d="M 18.109375 8.203125 
L 18.109375 -20.796875 
L 9.078125 -20.796875 
L 9.078125 54.6875 
L 18.109375 54.6875 
L 18.109375 46.390625 
Q 20.953125 51.265625 25.265625 53.625 
Q 29.59375 56 35.59375 56 
Q 45.5625 56 51.78125 48.09375 
Q 58.015625 40.1875 58.015625 27.296875 
Q 58.015625 14.40625 51.78125 6.484375 
Q 45.5625 -1.421875 35.59375 -1.421875 
Q 29.59375 -1.421875 25.265625 0.953125 
Q 20.953125 3.328125 18.109375 8.203125 
z
M 48.6875 27.296875 
Q 48.6875 37.203125 44.609375 42.84375 
Q 40.53125 48.484375 33.40625 48.484375 
Q 26.265625 48.484375 22.1875 42.84375 
Q 18.109375 37.203125 18.109375 27.296875 
Q 18.109375 17.390625 22.1875 11.75 
Q 26.265625 6.109375 33.40625 6.109375 
Q 40.53125 6.109375 44.609375 11.75 
Q 48.6875 17.390625 48.6875 27.296875 
z
" id="DejaVuSans-112"/>
     <path d="M 5.515625 54.6875 
L 48.1875 54.6875 
L 48.1875 46.484375 
L 14.40625 7.171875 
L 48.1875 7.171875 
L 48.1875 0 
L 4.296875 0 
L 4.296875 8.203125 
L 38.09375 47.515625 
L 5.515625 47.515625 
z
" id="DejaVuSans-122"/>
     <path d="M 45.40625 46.390625 
L 45.40625 75.984375 
L 54.390625 75.984375 
L 54.390625 0 
L 45.40625 0 
L 45.40625 8.203125 
Q 42.578125 3.328125 38.25 0.953125 
Q 33.9375 -1.421875 27.875 -1.421875 
Q 17.96875 -1.421875 11.734375 6.484375 
Q 5.515625 14.40625 5.515625 27.296875 
Q 5.515625 40.1875 11.734375 48.09375 
Q 17.96875 56 27.875 56 
Q 33.9375 56 38.25 53.625 
Q 42.578125 51.265625 45.40625 46.390625 
z
M 14.796875 27.296875 
Q 14.796875 17.390625 18.875 11.75 
Q 22.953125 6.109375 30.078125 6.109375 
Q 37.203125 6.109375 41.296875 11.75 
Q 45.40625 17.390625 45.40625 27.296875 
Q 45.40625 37.203125 41.296875 42.84375 
Q 37.203125 48.484375 30.078125 48.484375 
Q 22.953125 48.484375 18.875 42.84375 
Q 14.796875 37.203125 14.796875 27.296875 
z
" id="DejaVuSans-100"/>
    </defs>
    <use xlink:href="#DejaVuSans-80"/>
    <use x="56.677734" xlink:href="#DejaVuSans-101"/>
    <use x="118.201172" xlink:href="#DejaVuSans-114"/>
    <use x="159.314453" xlink:href="#DejaVuSans-102"/>
    <use x="194.519531" xlink:href="#DejaVuSans-111"/>
    <use x="255.701172" xlink:href="#DejaVuSans-114"/>
    <use x="295.064453" xlink:href="#DejaVuSans-109"/>
    <use x="392.476562" xlink:href="#DejaVuSans-97"/>
    <use x="453.755859" xlink:href="#DejaVuSans-110"/>
    <use x="517.134766" xlink:href="#DejaVuSans-99"/>
    <use x="572.115234" xlink:href="#DejaVuSans-101"/>
    <use x="633.638672" xlink:href="#DejaVuSans-32"/>
    <use x="665.425781" xlink:href="#DejaVuSans-119"/>
    <use x="747.212891" xlink:href="#DejaVuSans-104"/>
    <use x="810.591797" xlink:href="#DejaVuSans-101"/>
    <use x="872.115234" xlink:href="#DejaVuSans-110"/>
    <use x="935.494141" xlink:href="#DejaVuSans-32"/>
    <use x="967.28125" xlink:href="#DejaVuSans-116"/>
    <use x="1006.490234" xlink:href="#DejaVuSans-104"/>
    <use x="1069.869141" xlink:href="#DejaVuSans-101"/>
    <use x="1131.392578" xlink:href="#DejaVuSans-32"/>
    <use x="1163.179688" xlink:href="#DejaVuSans-118"/>
    <use x="1222.359375" xlink:href="#DejaVuSans-97"/>
    <use x="1283.638672" xlink:href="#DejaVuSans-114"/>
    <use x="1324.751953" xlink:href="#DejaVuSans-105"/>
    <use x="1352.535156" xlink:href="#DejaVuSans-97"/>
    <use x="1413.814453" xlink:href="#DejaVuSans-110"/>
    <use x="1477.193359" xlink:href="#DejaVuSans-99"/>
    <use x="1532.173828" xlink:href="#DejaVuSans-101"/>
    <use x="1593.697266" xlink:href="#DejaVuSans-32"/>
    <use x="1625.484375" xlink:href="#DejaVuSans-99"/>
    <use x="1680.464844" xlink:href="#DejaVuSans-104"/>
    <use x="1743.84375" xlink:href="#DejaVuSans-97"/>
    <use x="1805.123047" xlink:href="#DejaVuSans-110"/>
    <use x="1868.501953" xlink:href="#DejaVuSans-103"/>
    <use x="1931.978516" xlink:href="#DejaVuSans-101"/>
    <use x="1993.501953" xlink:href="#DejaVuSans-115"/>
    <use x="2045.601562" xlink:href="#DejaVuSans-32"/>
    <use x="2077.388672" xlink:href="#DejaVuSans-102"/>
    <use x="2112.59375" xlink:href="#DejaVuSans-111"/>
    <use x="2173.775391" xlink:href="#DejaVuSans-114"/>
    <use x="2214.888672" xlink:href="#DejaVuSans-32"/>
    <use x="2246.675781" xlink:href="#DejaVuSans-115"/>
    <use x="2298.775391" xlink:href="#DejaVuSans-97"/>
    <use x="2360.054688" xlink:href="#DejaVuSans-109"/>
    <use x="2457.466797" xlink:href="#DejaVuSans-112"/>
    <use x="2520.943359" xlink:href="#DejaVuSans-108"/>
    <use x="2548.726562" xlink:href="#DejaVuSans-101"/>
    <use x="2610.25" xlink:href="#DejaVuSans-32"/>
    <use x="2642.037109" xlink:href="#DejaVuSans-115"/>
    <use x="2694.136719" xlink:href="#DejaVuSans-105"/>
    <use x="2721.919922" xlink:href="#DejaVuSans-122"/>
    <use x="2774.410156" xlink:href="#DejaVuSans-101"/>
    <use x="2835.933594" xlink:href="#DejaVuSans-115"/>
    <use x="2888.033203" xlink:href="#DejaVuSans-32"/>
    <use x="2919.820312" xlink:href="#DejaVuSans-111"/>
    <use x="2981.001953" xlink:href="#DejaVuSans-102"/>
    <use x="3016.207031" xlink:href="#DejaVuSans-32"/>
    <use x="3047.994141" xlink:href="#DejaVuSans-51"/>
    <use x="3111.617188" xlink:href="#DejaVuSans-48"/>
    <use x="3175.240234" xlink:href="#DejaVuSans-48"/>
    <use x="3238.863281" xlink:href="#DejaVuSans-32"/>
    <use x="3270.650391" xlink:href="#DejaVuSans-97"/>
    <use x="3331.929688" xlink:href="#DejaVuSans-110"/>
    <use x="3395.308594" xlink:href="#DejaVuSans-100"/>
    <use x="3458.785156" xlink:href="#DejaVuSans-32"/>
    <use x="3490.572266" xlink:href="#DejaVuSans-49"/>
    <use x="3554.195312" xlink:href="#DejaVuSans-48"/>
    <use x="3617.818359" xlink:href="#DejaVuSans-48"/>
    <use x="3681.441406" xlink:href="#DejaVuSans-48"/>
    <use x="3745.064453" xlink:href="#DejaVuSans-32"/>
   </g>
  </g>
 </g>
 <defs>
  <clipPath id="p7406da6727">
   <rect height="306.65" width="317.75" x="54.979063" y="43.4"/>
  </clipPath>
  <clipPath id="p1752b1869d">
   <rect height="306.65" width="317.75" x="387.029063" y="43.4"/>
  </clipPath>
  <clipPath id="p227b5db51a">
   <rect height="306.65" width="317.75" x="54.979063" y="364.35"/>
  </clipPath>
  <clipPath id="pc74462c1f6">
   <rect height="306.65" width="317.75" x="387.029063" y="364.35"/>
  </clipPath>
 </defs>
</svg>
