<?xml version="1.0" encoding="utf-8" standalone="no"?>
<!DOCTYPE svg PUBLIC "-//W3C//DTD SVG 1.1//EN"
  "http://www.w3.org/Graphics/SVG/1.1/DTD/svg11.dtd">
<!-- Created with matplotlib (https://matplotlib.org/) -->
<svg height="711.274375pt" version="1.1" viewBox="0 0 712.38125 711.274375" width="712.38125pt" xmlns="http://www.w3.org/2000/svg" xmlns:xlink="http://www.w3.org/1999/xlink">
 <metadata>
  <rdf:RDF xmlns:cc="http://creativecommons.org/ns#" xmlns:dc="http://purl.org/dc/elements/1.1/" xmlns:rdf="http://www.w3.org/1999/02/22-rdf-syntax-ns#">
   <cc:Work>
    <dc:type rdf:resource="http://purl.org/dc/dcmitype/StillImage"/>
    <dc:date>2023-07-18T11:35:25.403048</dc:date>
    <dc:format>image/svg+xml</dc:format>
    <dc:creator>
     <cc:Agent>
      <dc:title>Matplotlib v3.3.4, https://matplotlib.org/</dc:title>
     </cc:Agent>
    </dc:creator>
   </cc:Work>
  </rdf:RDF>
 </metadata>
 <defs>
  <style type="text/css">*{stroke-linecap:butt;stroke-linejoin:round;}</style>
 </defs>
 <g id="figure_1">
  <g id="patch_1">
   <path d="M 0 711.274375 
L 712.38125 711.274375 
L 712.38125 0 
L 0 0 
z
" style="fill:none;"/>
  </g>
  <g id="axes_1">
   <g id="patch_2">
    <path d="M 43.78125 673.718125 
L 367.33125 673.718125 
L 367.33125 22.318125 
L 43.78125 22.318125 
z
" style="fill:#ffffff;"/>
   </g>
   <g id="matplotlib.axis_1">
    <g id="xtick_1">
     <g id="line2d_1">
      <defs>
       <path d="M 0 0 
L 0 3.5 
" id="m1ad0bf3d83" style="stroke:#000000;stroke-width:0.8;"/>
      </defs>
      <g>
       <use style="stroke:#000000;stroke-width:0.8;" x="58.488068" xlink:href="#m1ad0bf3d83" y="673.718125"/>
      </g>
     </g>
     <g id="text_1">
      <!-- 0.0 -->
      <g transform="translate(50.536506 688.316562)scale(0.1 -0.1)">
       <defs>
        <path d="M 31.78125 66.40625 
Q 24.171875 66.40625 20.328125 58.90625 
Q 16.5 51.421875 16.5 36.375 
Q 16.5 21.390625 20.328125 13.890625 
Q 24.171875 6.390625 31.78125 6.390625 
Q 39.453125 6.390625 43.28125 13.890625 
Q 47.125 21.390625 47.125 36.375 
Q 47.125 51.421875 43.28125 58.90625 
Q 39.453125 66.40625 31.78125 66.40625 
z
M 31.78125 74.21875 
Q 44.046875 74.21875 50.515625 64.515625 
Q 56.984375 54.828125 56.984375 36.375 
Q 56.984375 17.96875 50.515625 8.265625 
Q 44.046875 -1.421875 31.78125 -1.421875 
Q 19.53125 -1.421875 13.0625 8.265625 
Q 6.59375 17.96875 6.59375 36.375 
Q 6.59375 54.828125 13.0625 64.515625 
Q 19.53125 74.21875 31.78125 74.21875 
z
" id="DejaVuSans-48"/>
        <path d="M 10.6875 12.40625 
L 21 12.40625 
L 21 0 
L 10.6875 0 
z
" id="DejaVuSans-46"/>
       </defs>
       <use xlink:href="#DejaVuSans-48"/>
       <use x="63.623047" xlink:href="#DejaVuSans-46"/>
       <use x="95.410156" xlink:href="#DejaVuSans-48"/>
      </g>
     </g>
    </g>
    <g id="xtick_2">
     <g id="line2d_2">
      <g>
       <use style="stroke:#000000;stroke-width:0.8;" x="117.315341" xlink:href="#m1ad0bf3d83" y="673.718125"/>
      </g>
     </g>
     <g id="text_2">
      <!-- 0.2 -->
      <g transform="translate(109.363778 688.316562)scale(0.1 -0.1)">
       <defs>
        <path d="M 19.1875 8.296875 
L 53.609375 8.296875 
L 53.609375 0 
L 7.328125 0 
L 7.328125 8.296875 
Q 12.9375 14.109375 22.625 23.890625 
Q 32.328125 33.6875 34.8125 36.53125 
Q 39.546875 41.84375 41.421875 45.53125 
Q 43.3125 49.21875 43.3125 52.78125 
Q 43.3125 58.59375 39.234375 62.25 
Q 35.15625 65.921875 28.609375 65.921875 
Q 23.96875 65.921875 18.8125 64.3125 
Q 13.671875 62.703125 7.8125 59.421875 
L 7.8125 69.390625 
Q 13.765625 71.78125 18.9375 73 
Q 24.125 74.21875 28.421875 74.21875 
Q 39.75 74.21875 46.484375 68.546875 
Q 53.21875 62.890625 53.21875 53.421875 
Q 53.21875 48.921875 51.53125 44.890625 
Q 49.859375 40.875 45.40625 35.40625 
Q 44.1875 33.984375 37.640625 27.21875 
Q 31.109375 20.453125 19.1875 8.296875 
z
" id="DejaVuSans-50"/>
       </defs>
       <use xlink:href="#DejaVuSans-48"/>
       <use x="63.623047" xlink:href="#DejaVuSans-46"/>
       <use x="95.410156" xlink:href="#DejaVuSans-50"/>
      </g>
     </g>
    </g>
    <g id="xtick_3">
     <g id="line2d_3">
      <g>
       <use style="stroke:#000000;stroke-width:0.8;" x="176.142614" xlink:href="#m1ad0bf3d83" y="673.718125"/>
      </g>
     </g>
     <g id="text_3">
      <!-- 0.4 -->
      <g transform="translate(168.191051 688.316562)scale(0.1 -0.1)">
       <defs>
        <path d="M 37.796875 64.3125 
L 12.890625 25.390625 
L 37.796875 25.390625 
z
M 35.203125 72.90625 
L 47.609375 72.90625 
L 47.609375 25.390625 
L 58.015625 25.390625 
L 58.015625 17.1875 
L 47.609375 17.1875 
L 47.609375 0 
L 37.796875 0 
L 37.796875 17.1875 
L 4.890625 17.1875 
L 4.890625 26.703125 
z
" id="DejaVuSans-52"/>
       </defs>
       <use xlink:href="#DejaVuSans-48"/>
       <use x="63.623047" xlink:href="#DejaVuSans-46"/>
       <use x="95.410156" xlink:href="#DejaVuSans-52"/>
      </g>
     </g>
    </g>
    <g id="xtick_4">
     <g id="line2d_4">
      <g>
       <use style="stroke:#000000;stroke-width:0.8;" x="234.969886" xlink:href="#m1ad0bf3d83" y="673.718125"/>
      </g>
     </g>
     <g id="text_4">
      <!-- 0.6 -->
      <g transform="translate(227.018324 688.316562)scale(0.1 -0.1)">
       <defs>
        <path d="M 33.015625 40.375 
Q 26.375 40.375 22.484375 35.828125 
Q 18.609375 31.296875 18.609375 23.390625 
Q 18.609375 15.53125 22.484375 10.953125 
Q 26.375 6.390625 33.015625 6.390625 
Q 39.65625 6.390625 43.53125 10.953125 
Q 47.40625 15.53125 47.40625 23.390625 
Q 47.40625 31.296875 43.53125 35.828125 
Q 39.65625 40.375 33.015625 40.375 
z
M 52.59375 71.296875 
L 52.59375 62.3125 
Q 48.875 64.0625 45.09375 64.984375 
Q 41.3125 65.921875 37.59375 65.921875 
Q 27.828125 65.921875 22.671875 59.328125 
Q 17.53125 52.734375 16.796875 39.40625 
Q 19.671875 43.65625 24.015625 45.921875 
Q 28.375 48.1875 33.59375 48.1875 
Q 44.578125 48.1875 50.953125 41.515625 
Q 57.328125 34.859375 57.328125 23.390625 
Q 57.328125 12.15625 50.6875 5.359375 
Q 44.046875 -1.421875 33.015625 -1.421875 
Q 20.359375 -1.421875 13.671875 8.265625 
Q 6.984375 17.96875 6.984375 36.375 
Q 6.984375 53.65625 15.1875 63.9375 
Q 23.390625 74.21875 37.203125 74.21875 
Q 40.921875 74.21875 44.703125 73.484375 
Q 48.484375 72.75 52.59375 71.296875 
z
" id="DejaVuSans-54"/>
       </defs>
       <use xlink:href="#DejaVuSans-48"/>
       <use x="63.623047" xlink:href="#DejaVuSans-46"/>
       <use x="95.410156" xlink:href="#DejaVuSans-54"/>
      </g>
     </g>
    </g>
    <g id="xtick_5">
     <g id="line2d_5">
      <g>
       <use style="stroke:#000000;stroke-width:0.8;" x="293.797159" xlink:href="#m1ad0bf3d83" y="673.718125"/>
      </g>
     </g>
     <g id="text_5">
      <!-- 0.8 -->
      <g transform="translate(285.845597 688.316562)scale(0.1 -0.1)">
       <defs>
        <path d="M 31.78125 34.625 
Q 24.75 34.625 20.71875 30.859375 
Q 16.703125 27.09375 16.703125 20.515625 
Q 16.703125 13.921875 20.71875 10.15625 
Q 24.75 6.390625 31.78125 6.390625 
Q 38.8125 6.390625 42.859375 10.171875 
Q 46.921875 13.96875 46.921875 20.515625 
Q 46.921875 27.09375 42.890625 30.859375 
Q 38.875 34.625 31.78125 34.625 
z
M 21.921875 38.8125 
Q 15.578125 40.375 12.03125 44.71875 
Q 8.5 49.078125 8.5 55.328125 
Q 8.5 64.0625 14.71875 69.140625 
Q 20.953125 74.21875 31.78125 74.21875 
Q 42.671875 74.21875 48.875 69.140625 
Q 55.078125 64.0625 55.078125 55.328125 
Q 55.078125 49.078125 51.53125 44.71875 
Q 48 40.375 41.703125 38.8125 
Q 48.828125 37.15625 52.796875 32.3125 
Q 56.78125 27.484375 56.78125 20.515625 
Q 56.78125 9.90625 50.3125 4.234375 
Q 43.84375 -1.421875 31.78125 -1.421875 
Q 19.734375 -1.421875 13.25 4.234375 
Q 6.78125 9.90625 6.78125 20.515625 
Q 6.78125 27.484375 10.78125 32.3125 
Q 14.796875 37.15625 21.921875 38.8125 
z
M 18.3125 54.390625 
Q 18.3125 48.734375 21.84375 45.5625 
Q 25.390625 42.390625 31.78125 42.390625 
Q 38.140625 42.390625 41.71875 45.5625 
Q 45.3125 48.734375 45.3125 54.390625 
Q 45.3125 60.0625 41.71875 63.234375 
Q 38.140625 66.40625 31.78125 66.40625 
Q 25.390625 66.40625 21.84375 63.234375 
Q 18.3125 60.0625 18.3125 54.390625 
z
" id="DejaVuSans-56"/>
       </defs>
       <use xlink:href="#DejaVuSans-48"/>
       <use x="63.623047" xlink:href="#DejaVuSans-46"/>
       <use x="95.410156" xlink:href="#DejaVuSans-56"/>
      </g>
     </g>
    </g>
    <g id="xtick_6">
     <g id="line2d_6">
      <g>
       <use style="stroke:#000000;stroke-width:0.8;" x="352.624432" xlink:href="#m1ad0bf3d83" y="673.718125"/>
      </g>
     </g>
     <g id="text_6">
      <!-- 1.0 -->
      <g transform="translate(344.672869 688.316562)scale(0.1 -0.1)">
       <defs>
        <path d="M 12.40625 8.296875 
L 28.515625 8.296875 
L 28.515625 63.921875 
L 10.984375 60.40625 
L 10.984375 69.390625 
L 28.421875 72.90625 
L 38.28125 72.90625 
L 38.28125 8.296875 
L 54.390625 8.296875 
L 54.390625 0 
L 12.40625 0 
z
" id="DejaVuSans-49"/>
       </defs>
       <use xlink:href="#DejaVuSans-49"/>
       <use x="63.623047" xlink:href="#DejaVuSans-46"/>
       <use x="95.410156" xlink:href="#DejaVuSans-48"/>
      </g>
     </g>
    </g>
    <g id="text_7">
     <!-- Recall -->
     <g transform="translate(190.639062 701.994687)scale(0.1 -0.1)">
      <defs>
       <path d="M 44.390625 34.1875 
Q 47.5625 33.109375 50.5625 29.59375 
Q 53.5625 26.078125 56.59375 19.921875 
L 66.609375 0 
L 56 0 
L 46.6875 18.703125 
Q 43.0625 26.03125 39.671875 28.421875 
Q 36.28125 30.8125 30.421875 30.8125 
L 19.671875 30.8125 
L 19.671875 0 
L 9.8125 0 
L 9.8125 72.90625 
L 32.078125 72.90625 
Q 44.578125 72.90625 50.734375 67.671875 
Q 56.890625 62.453125 56.890625 51.90625 
Q 56.890625 45.015625 53.6875 40.46875 
Q 50.484375 35.9375 44.390625 34.1875 
z
M 19.671875 64.796875 
L 19.671875 38.921875 
L 32.078125 38.921875 
Q 39.203125 38.921875 42.84375 42.21875 
Q 46.484375 45.515625 46.484375 51.90625 
Q 46.484375 58.296875 42.84375 61.546875 
Q 39.203125 64.796875 32.078125 64.796875 
z
" id="DejaVuSans-82"/>
       <path d="M 56.203125 29.59375 
L 56.203125 25.203125 
L 14.890625 25.203125 
Q 15.484375 15.921875 20.484375 11.0625 
Q 25.484375 6.203125 34.421875 6.203125 
Q 39.59375 6.203125 44.453125 7.46875 
Q 49.3125 8.734375 54.109375 11.28125 
L 54.109375 2.78125 
Q 49.265625 0.734375 44.1875 -0.34375 
Q 39.109375 -1.421875 33.890625 -1.421875 
Q 20.796875 -1.421875 13.15625 6.1875 
Q 5.515625 13.8125 5.515625 26.8125 
Q 5.515625 40.234375 12.765625 48.109375 
Q 20.015625 56 32.328125 56 
Q 43.359375 56 49.78125 48.890625 
Q 56.203125 41.796875 56.203125 29.59375 
z
M 47.21875 32.234375 
Q 47.125 39.59375 43.09375 43.984375 
Q 39.0625 48.390625 32.421875 48.390625 
Q 24.90625 48.390625 20.390625 44.140625 
Q 15.875 39.890625 15.1875 32.171875 
z
" id="DejaVuSans-101"/>
       <path d="M 48.78125 52.59375 
L 48.78125 44.1875 
Q 44.96875 46.296875 41.140625 47.34375 
Q 37.3125 48.390625 33.40625 48.390625 
Q 24.65625 48.390625 19.8125 42.84375 
Q 14.984375 37.3125 14.984375 27.296875 
Q 14.984375 17.28125 19.8125 11.734375 
Q 24.65625 6.203125 33.40625 6.203125 
Q 37.3125 6.203125 41.140625 7.25 
Q 44.96875 8.296875 48.78125 10.40625 
L 48.78125 2.09375 
Q 45.015625 0.34375 40.984375 -0.53125 
Q 36.96875 -1.421875 32.421875 -1.421875 
Q 20.0625 -1.421875 12.78125 6.34375 
Q 5.515625 14.109375 5.515625 27.296875 
Q 5.515625 40.671875 12.859375 48.328125 
Q 20.21875 56 33.015625 56 
Q 37.15625 56 41.109375 55.140625 
Q 45.0625 54.296875 48.78125 52.59375 
z
" id="DejaVuSans-99"/>
       <path d="M 34.28125 27.484375 
Q 23.390625 27.484375 19.1875 25 
Q 14.984375 22.515625 14.984375 16.5 
Q 14.984375 11.71875 18.140625 8.90625 
Q 21.296875 6.109375 26.703125 6.109375 
Q 34.1875 6.109375 38.703125 11.40625 
Q 43.21875 16.703125 43.21875 25.484375 
L 43.21875 27.484375 
z
M 52.203125 31.203125 
L 52.203125 0 
L 43.21875 0 
L 43.21875 8.296875 
Q 40.140625 3.328125 35.546875 0.953125 
Q 30.953125 -1.421875 24.3125 -1.421875 
Q 15.921875 -1.421875 10.953125 3.296875 
Q 6 8.015625 6 15.921875 
Q 6 25.140625 12.171875 29.828125 
Q 18.359375 34.515625 30.609375 34.515625 
L 43.21875 34.515625 
L 43.21875 35.40625 
Q 43.21875 41.609375 39.140625 45 
Q 35.0625 48.390625 27.6875 48.390625 
Q 23 48.390625 18.546875 47.265625 
Q 14.109375 46.140625 10.015625 43.890625 
L 10.015625 52.203125 
Q 14.9375 54.109375 19.578125 55.046875 
Q 24.21875 56 28.609375 56 
Q 40.484375 56 46.34375 49.84375 
Q 52.203125 43.703125 52.203125 31.203125 
z
" id="DejaVuSans-97"/>
       <path d="M 9.421875 75.984375 
L 18.40625 75.984375 
L 18.40625 0 
L 9.421875 0 
z
" id="DejaVuSans-108"/>
      </defs>
      <use xlink:href="#DejaVuSans-82"/>
      <use x="64.982422" xlink:href="#DejaVuSans-101"/>
      <use x="126.505859" xlink:href="#DejaVuSans-99"/>
      <use x="181.486328" xlink:href="#DejaVuSans-97"/>
      <use x="242.765625" xlink:href="#DejaVuSans-108"/>
      <use x="270.548828" xlink:href="#DejaVuSans-108"/>
     </g>
    </g>
   </g>
   <g id="matplotlib.axis_2">
    <g id="ytick_1">
     <g id="line2d_7">
      <defs>
       <path d="M 0 0 
L -3.5 0 
" id="m4abdef542c" style="stroke:#000000;stroke-width:0.8;"/>
      </defs>
      <g>
       <use style="stroke:#000000;stroke-width:0.8;" x="43.78125" xlink:href="#m4abdef542c" y="642.774584"/>
      </g>
     </g>
     <g id="text_8">
      <!-- 0.5 -->
      <g transform="translate(20.878125 646.573803)scale(0.1 -0.1)">
       <defs>
        <path d="M 10.796875 72.90625 
L 49.515625 72.90625 
L 49.515625 64.59375 
L 19.828125 64.59375 
L 19.828125 46.734375 
Q 21.96875 47.46875 24.109375 47.828125 
Q 26.265625 48.1875 28.421875 48.1875 
Q 40.625 48.1875 47.75 41.5 
Q 54.890625 34.8125 54.890625 23.390625 
Q 54.890625 11.625 47.5625 5.09375 
Q 40.234375 -1.421875 26.90625 -1.421875 
Q 22.3125 -1.421875 17.546875 -0.640625 
Q 12.796875 0.140625 7.71875 1.703125 
L 7.71875 11.625 
Q 12.109375 9.234375 16.796875 8.0625 
Q 21.484375 6.890625 26.703125 6.890625 
Q 35.15625 6.890625 40.078125 11.328125 
Q 45.015625 15.765625 45.015625 23.390625 
Q 45.015625 31 40.078125 35.4375 
Q 35.15625 39.890625 26.703125 39.890625 
Q 22.75 39.890625 18.8125 39.015625 
Q 14.890625 38.140625 10.796875 36.28125 
z
" id="DejaVuSans-53"/>
       </defs>
       <use xlink:href="#DejaVuSans-48"/>
       <use x="63.623047" xlink:href="#DejaVuSans-46"/>
       <use x="95.410156" xlink:href="#DejaVuSans-53"/>
      </g>
     </g>
    </g>
    <g id="ytick_2">
     <g id="line2d_8">
      <g>
       <use style="stroke:#000000;stroke-width:0.8;" x="43.78125" xlink:href="#m4abdef542c" y="508.849181"/>
      </g>
     </g>
     <g id="text_9">
      <!-- 0.6 -->
      <g transform="translate(20.878125 512.648399)scale(0.1 -0.1)">
       <use xlink:href="#DejaVuSans-48"/>
       <use x="63.623047" xlink:href="#DejaVuSans-46"/>
       <use x="95.410156" xlink:href="#DejaVuSans-54"/>
      </g>
     </g>
    </g>
    <g id="ytick_3">
     <g id="line2d_9">
      <g>
       <use style="stroke:#000000;stroke-width:0.8;" x="43.78125" xlink:href="#m4abdef542c" y="374.923777"/>
      </g>
     </g>
     <g id="text_10">
      <!-- 0.7 -->
      <g transform="translate(20.878125 378.722996)scale(0.1 -0.1)">
       <defs>
        <path d="M 8.203125 72.90625 
L 55.078125 72.90625 
L 55.078125 68.703125 
L 28.609375 0 
L 18.3125 0 
L 43.21875 64.59375 
L 8.203125 64.59375 
z
" id="DejaVuSans-55"/>
       </defs>
       <use xlink:href="#DejaVuSans-48"/>
       <use x="63.623047" xlink:href="#DejaVuSans-46"/>
       <use x="95.410156" xlink:href="#DejaVuSans-55"/>
      </g>
     </g>
    </g>
    <g id="ytick_4">
     <g id="line2d_10">
      <g>
       <use style="stroke:#000000;stroke-width:0.8;" x="43.78125" xlink:href="#m4abdef542c" y="240.998374"/>
      </g>
     </g>
     <g id="text_11">
      <!-- 0.8 -->
      <g transform="translate(20.878125 244.797592)scale(0.1 -0.1)">
       <use xlink:href="#DejaVuSans-48"/>
       <use x="63.623047" xlink:href="#DejaVuSans-46"/>
       <use x="95.410156" xlink:href="#DejaVuSans-56"/>
      </g>
     </g>
    </g>
    <g id="ytick_5">
     <g id="line2d_11">
      <g>
       <use style="stroke:#000000;stroke-width:0.8;" x="43.78125" xlink:href="#m4abdef542c" y="107.07297"/>
      </g>
     </g>
     <g id="text_12">
      <!-- 0.9 -->
      <g transform="translate(20.878125 110.872189)scale(0.1 -0.1)">
       <defs>
        <path d="M 10.984375 1.515625 
L 10.984375 10.5 
Q 14.703125 8.734375 18.5 7.8125 
Q 22.3125 6.890625 25.984375 6.890625 
Q 35.75 6.890625 40.890625 13.453125 
Q 46.046875 20.015625 46.78125 33.40625 
Q 43.953125 29.203125 39.59375 26.953125 
Q 35.25 24.703125 29.984375 24.703125 
Q 19.046875 24.703125 12.671875 31.3125 
Q 6.296875 37.9375 6.296875 49.421875 
Q 6.296875 60.640625 12.9375 67.421875 
Q 19.578125 74.21875 30.609375 74.21875 
Q 43.265625 74.21875 49.921875 64.515625 
Q 56.59375 54.828125 56.59375 36.375 
Q 56.59375 19.140625 48.40625 8.859375 
Q 40.234375 -1.421875 26.421875 -1.421875 
Q 22.703125 -1.421875 18.890625 -0.6875 
Q 15.09375 0.046875 10.984375 1.515625 
z
M 30.609375 32.421875 
Q 37.25 32.421875 41.125 36.953125 
Q 45.015625 41.5 45.015625 49.421875 
Q 45.015625 57.28125 41.125 61.84375 
Q 37.25 66.40625 30.609375 66.40625 
Q 23.96875 66.40625 20.09375 61.84375 
Q 16.21875 57.28125 16.21875 49.421875 
Q 16.21875 41.5 20.09375 36.953125 
Q 23.96875 32.421875 30.609375 32.421875 
z
" id="DejaVuSans-57"/>
       </defs>
       <use xlink:href="#DejaVuSans-48"/>
       <use x="63.623047" xlink:href="#DejaVuSans-46"/>
       <use x="95.410156" xlink:href="#DejaVuSans-57"/>
      </g>
     </g>
    </g>
    <g id="text_13">
     <!-- Precision -->
     <g transform="translate(14.798438 370.325156)rotate(-90)scale(0.1 -0.1)">
      <defs>
       <path d="M 19.671875 64.796875 
L 19.671875 37.40625 
L 32.078125 37.40625 
Q 38.96875 37.40625 42.71875 40.96875 
Q 46.484375 44.53125 46.484375 51.125 
Q 46.484375 57.671875 42.71875 61.234375 
Q 38.96875 64.796875 32.078125 64.796875 
z
M 9.8125 72.90625 
L 32.078125 72.90625 
Q 44.34375 72.90625 50.609375 67.359375 
Q 56.890625 61.8125 56.890625 51.125 
Q 56.890625 40.328125 50.609375 34.8125 
Q 44.34375 29.296875 32.078125 29.296875 
L 19.671875 29.296875 
L 19.671875 0 
L 9.8125 0 
z
" id="DejaVuSans-80"/>
       <path d="M 41.109375 46.296875 
Q 39.59375 47.171875 37.8125 47.578125 
Q 36.03125 48 33.890625 48 
Q 26.265625 48 22.1875 43.046875 
Q 18.109375 38.09375 18.109375 28.8125 
L 18.109375 0 
L 9.078125 0 
L 9.078125 54.6875 
L 18.109375 54.6875 
L 18.109375 46.1875 
Q 20.953125 51.171875 25.484375 53.578125 
Q 30.03125 56 36.53125 56 
Q 37.453125 56 38.578125 55.875 
Q 39.703125 55.765625 41.0625 55.515625 
z
" id="DejaVuSans-114"/>
       <path d="M 9.421875 54.6875 
L 18.40625 54.6875 
L 18.40625 0 
L 9.421875 0 
z
M 9.421875 75.984375 
L 18.40625 75.984375 
L 18.40625 64.59375 
L 9.421875 64.59375 
z
" id="DejaVuSans-105"/>
       <path d="M 44.28125 53.078125 
L 44.28125 44.578125 
Q 40.484375 46.53125 36.375 47.5 
Q 32.28125 48.484375 27.875 48.484375 
Q 21.1875 48.484375 17.84375 46.4375 
Q 14.5 44.390625 14.5 40.28125 
Q 14.5 37.15625 16.890625 35.375 
Q 19.28125 33.59375 26.515625 31.984375 
L 29.59375 31.296875 
Q 39.15625 29.25 43.1875 25.515625 
Q 47.21875 21.78125 47.21875 15.09375 
Q 47.21875 7.46875 41.1875 3.015625 
Q 35.15625 -1.421875 24.609375 -1.421875 
Q 20.21875 -1.421875 15.453125 -0.5625 
Q 10.6875 0.296875 5.421875 2 
L 5.421875 11.28125 
Q 10.40625 8.6875 15.234375 7.390625 
Q 20.0625 6.109375 24.8125 6.109375 
Q 31.15625 6.109375 34.5625 8.28125 
Q 37.984375 10.453125 37.984375 14.40625 
Q 37.984375 18.0625 35.515625 20.015625 
Q 33.0625 21.96875 24.703125 23.78125 
L 21.578125 24.515625 
Q 13.234375 26.265625 9.515625 29.90625 
Q 5.8125 33.546875 5.8125 39.890625 
Q 5.8125 47.609375 11.28125 51.796875 
Q 16.75 56 26.8125 56 
Q 31.78125 56 36.171875 55.265625 
Q 40.578125 54.546875 44.28125 53.078125 
z
" id="DejaVuSans-115"/>
       <path d="M 30.609375 48.390625 
Q 23.390625 48.390625 19.1875 42.75 
Q 14.984375 37.109375 14.984375 27.296875 
Q 14.984375 17.484375 19.15625 11.84375 
Q 23.34375 6.203125 30.609375 6.203125 
Q 37.796875 6.203125 41.984375 11.859375 
Q 46.1875 17.53125 46.1875 27.296875 
Q 46.1875 37.015625 41.984375 42.703125 
Q 37.796875 48.390625 30.609375 48.390625 
z
M 30.609375 56 
Q 42.328125 56 49.015625 48.375 
Q 55.71875 40.765625 55.71875 27.296875 
Q 55.71875 13.875 49.015625 6.21875 
Q 42.328125 -1.421875 30.609375 -1.421875 
Q 18.84375 -1.421875 12.171875 6.21875 
Q 5.515625 13.875 5.515625 27.296875 
Q 5.515625 40.765625 12.171875 48.375 
Q 18.84375 56 30.609375 56 
z
" id="DejaVuSans-111"/>
       <path d="M 54.890625 33.015625 
L 54.890625 0 
L 45.90625 0 
L 45.90625 32.71875 
Q 45.90625 40.484375 42.875 44.328125 
Q 39.84375 48.1875 33.796875 48.1875 
Q 26.515625 48.1875 22.3125 43.546875 
Q 18.109375 38.921875 18.109375 30.90625 
L 18.109375 0 
L 9.078125 0 
L 9.078125 54.6875 
L 18.109375 54.6875 
L 18.109375 46.1875 
Q 21.34375 51.125 25.703125 53.5625 
Q 30.078125 56 35.796875 56 
Q 45.21875 56 50.046875 50.171875 
Q 54.890625 44.34375 54.890625 33.015625 
z
" id="DejaVuSans-110"/>
      </defs>
      <use xlink:href="#DejaVuSans-80"/>
      <use x="58.552734" xlink:href="#DejaVuSans-114"/>
      <use x="97.416016" xlink:href="#DejaVuSans-101"/>
      <use x="158.939453" xlink:href="#DejaVuSans-99"/>
      <use x="213.919922" xlink:href="#DejaVuSans-105"/>
      <use x="241.703125" xlink:href="#DejaVuSans-115"/>
      <use x="293.802734" xlink:href="#DejaVuSans-105"/>
      <use x="321.585938" xlink:href="#DejaVuSans-111"/>
      <use x="382.767578" xlink:href="#DejaVuSans-110"/>
     </g>
    </g>
   </g>
   <g id="line2d_12">
    <path clip-path="url(#p76ee71a855)" d="M 352.624432 642.774584 
L 264.406923 624.803264 
L 255.046975 618.401978 
L 248.261012 615.714608 
L 244.517033 609.624732 
L 242.177046 606.347594 
L 238.667066 606.566142 
L 235.625083 609.339671 
L 233.519094 608.422671 
L 231.179107 607.932979 
L 229.073119 603.899286 
L 228.137124 604.18922 
L 226.499133 604.312944 
L 225.095141 603.443332 
L 224.159147 603.207991 
L 222.989153 602.374764 
L 220.181169 607.047533 
L 219.479173 606.342769 
L 218.543178 605.02727 
L 216.905187 605.718062 
L 215.969192 604.930671 
L 214.5652 605.690809 
L 213.395206 605.395086 
L 213.161208 601.359901 
L 211.991214 601.600107 
L 211.757216 600.379367 
L 211.289218 598.497206 
L 210.119225 599.306602 
L 209.417229 600.267346 
L 208.013236 599.842627 
L 207.077242 598.956709 
L 206.375245 598.132783 
L 205.205252 599.572841 
L 204.503256 597.521775 
L 204.269257 594.98521 
L 204.035258 592.422336 
L 203.099264 590.186075 
L 202.631266 590.001877 
L 201.92927 587.809613 
L 200.057281 589.610619 
L 199.355284 587.373788 
L 199.121286 583.992846 
L 198.887287 581.234704 
L 197.717294 580.669599 
L 197.483295 581.227983 
L 196.781299 580.209988 
L 196.079303 578.495383 
L 195.377307 578.133925 
L 193.973314 578.094702 
L 192.803321 577.476347 
L 192.101325 574.972427 
L 190.931331 576.462006 
L 189.995337 575.942925 
L 189.059342 573.959159 
L 188.357346 573.548729 
L 187.889348 571.052771 
L 186.953353 569.724364 
L 186.485356 569.428014 
L 186.017359 566.089281 
L 184.379368 568.832282 
L 183.677372 566.046488 
L 182.975376 563.994935 
L 182.507378 561.285582 
L 181.337385 560.414042 
L 179.933393 560.158264 
L 178.295402 562.184899 
L 176.891409 566.077216 
L 175.487417 568.371582 
L 175.253419 565.711363 
L 173.14743 570.054908 
L 171.509439 570.59002 
L 170.573445 569.061297 
L 170.105447 562.607969 
L 169.63745 562.229825 
L 167.999459 563.571388 
L 165.893471 567.289357 
L 164.723477 565.446648 
L 162.851488 566.699605 
L 161.681494 567.620984 
L 159.575506 567.797042 
L 157.937515 566.421307 
L 156.533523 568.174227 
L 155.597528 565.371461 
L 154.427534 560.217829 
L 153.023542 557.787055 
L 150.917554 552.336452 
L 148.10957 554.743854 
L 146.705577 553.155329 
L 143.429596 562.171332 
L 140.621611 561.478013 
L 138.047626 557.266656 
L 136.175636 551.044856 
L 134.069648 546.774959 
L 130.09167 531.807821 
L 126.113692 522.515038 
L 123.305708 509.428944 
L 119.561728 495.706968 
L 113.711761 493.583072 
L 105.755805 458.996822 
L 94.757866 440.198344 
L 82.355935 363.763327 
L 58.488068 363.763327 
" style="fill:none;stroke:#984ea3;stroke-linecap:square;stroke-width:1.5;"/>
   </g>
   <g id="line2d_13">
    <path clip-path="url(#p76ee71a855)" d="M 352.624432 644.109034 
L 279.325274 627.100136 
L 277.210875 628.824021 
L 276.741009 629.168763 
L 276.506076 629.529215 
L 276.271143 629.138811 
L 276.271143 628.385904 
L 276.036209 628.370032 
L 275.801276 628.731633 
L 275.801276 628.354124 
L 275.566343 628.338181 
L 275.33141 628.700565 
L 275.33141 628.322202 
L 274.861543 629.048158 
L 274.62661 629.032931 
L 272.747145 631.956097 
L 272.747145 631.576808 
L 272.512211 631.56431 
L 272.277278 631.931936 
L 272.277278 631.551785 
L 271.807412 632.288255 
L 271.807412 630.763337 
L 271.337545 631.501402 
L 271.337545 631.119089 
L 271.102612 631.488735 
L 270.867679 631.47604 
L 270.162879 632.588708 
L 270.162879 632.205499 
L 269.927946 632.577218 
L 269.927946 631.424974 
L 269.45808 632.169631 
L 269.45808 630.627155 
L 268.988213 631.373443 
L 268.988213 630.986715 
L 268.75328 631.360487 
L 268.75328 630.973312 
L 268.283414 631.722118 
L 268.283414 630.946415 
L 268.048481 631.321442 
L 268.048481 630.93292 
L 267.813547 631.308368 
L 267.813547 630.919394 
L 266.873815 632.425454 
L 266.873815 632.036006 
L 266.638881 632.413593 
L 266.638881 631.633343 
L 266.403948 632.011348 
L 266.403948 631.620544 
L 266.169015 631.998977 
L 266.169015 631.607716 
L 265.934082 631.986577 
L 265.934082 631.594858 
L 264.759416 633.495688 
L 264.759416 632.710825 
L 264.289549 633.474209 
L 264.289549 631.504019 
L 264.054616 631.88634 
L 264.054616 631.095043 
L 263.349817 632.244631 
L 263.349817 631.848269 
L 263.114883 632.232351 
L 263.114883 631.83552 
L 262.87995 632.220043 
L 262.87995 631.82274 
L 262.645017 632.207705 
L 262.645017 631.411691 
L 262.410084 631.797092 
L 262.410084 631.398378 
L 261.235418 633.332135 
L 261.235418 632.932917 
L 260.765551 633.709592 
L 260.765551 632.909719 
L 259.121019 635.642462 
L 259.121019 634.840615 
L 257.946353 636.806429 
L 257.946353 635.600009 
L 257.241554 636.785076 
L 257.241554 635.97837 
L 256.771687 636.770755 
L 256.771687 635.962101 
L 256.301821 636.756366 
L 256.301821 635.133195 
L 255.831954 635.929329 
L 255.831954 635.114793 
L 255.362088 635.912824 
L 255.362088 634.687301 
L 254.422355 636.289092 
L 254.422355 635.879575 
L 253.952489 636.683374 
L 253.952489 635.04029 
L 253.717556 635.442901 
L 253.717556 635.030875 
L 252.54289 637.051276 
L 252.54289 636.638723 
L 252.073023 637.450333 
L 252.073023 636.623693 
L 251.83809 637.030235 
L 251.83809 634.954723 
L 251.603157 635.361739 
L 251.603157 634.945099 
L 251.368224 635.35261 
L 251.368224 633.680884 
L 251.13329 634.088872 
L 251.13329 633.249896 
L 250.898357 633.658375 
L 250.898357 633.2381 
L 249.488758 635.699594 
L 249.488758 635.278759 
L 249.018892 636.103331 
L 249.018892 635.681961 
L 248.783958 636.095013 
L 248.783958 635.673112 
L 248.079159 636.915348 
L 248.079159 636.069933 
L 247.609292 636.900663 
L 247.609292 636.477151 
L 247.374359 636.893293 
L 247.374359 635.61955 
L 246.904493 636.453372 
L 246.904493 636.027712 
L 246.66956 636.445406 
L 246.66956 636.019204 
L 246.434626 636.43742 
L 246.434626 633.438846 
L 246.199693 633.857547 
L 246.199693 631.699328 
L 244.320228 635.067879 
L 244.320228 632.895545 
L 242.675695 635.871213 
L 242.675695 634.123072 
L 242.205829 634.97815 
L 242.205829 633.66106 
L 241.970896 634.089409 
L 241.970896 633.649232 
L 241.501029 634.507584 
L 241.501029 633.625484 
L 240.561296 635.348844 
L 240.561296 634.464386 
L 240.326363 634.896619 
L 240.326363 634.453516 
L 239.151697 636.623155 
L 239.151697 634.84479 
L 238.916764 635.280404 
L 238.916764 634.834343 
L 238.446898 635.70728 
L 238.446898 635.260618 
L 238.211964 635.697945 
L 238.211964 632.103237 
L 237.742098 632.979508 
L 237.742098 632.074818 
L 237.507165 632.51381 
L 237.507165 631.606689 
L 236.802365 632.927128 
L 236.802365 632.47263 
L 236.567432 632.913945 
L 236.567432 631.546767 
L 235.862633 632.874185 
L 235.862633 632.417206 
L 235.627699 632.86086 
L 235.627699 631.945037 
L 235.392766 632.38927 
L 235.392766 631.930422 
L 234.687967 633.266695 
L 234.687967 631.88634 
L 234.453033 632.332942 
L 234.453033 630.483673 
L 234.2181 630.930841 
L 234.2181 630.002407 
L 233.983167 630.45016 
L 233.983167 629.984982 
L 233.748234 630.433335 
L 233.748234 629.96751 
L 233.278367 630.866032 
L 233.278367 628.99625 
L 233.043434 629.446387 
L 233.043434 628.977324 
L 232.808501 629.428066 
L 232.808501 628.016964 
L 232.573568 628.468287 
L 232.573568 627.996609 
L 232.103701 628.901096 
L 232.103701 625.58083 
L 231.868768 626.033909 
L 231.868768 625.079294 
L 231.633835 625.53297 
L 231.633835 625.054649 
L 231.163969 625.963864 
L 231.163969 625.484843 
L 230.694102 626.396565 
L 230.694102 625.916841 
L 229.989303 627.289166 
L 229.989303 626.327605 
L 228.579703 629.089465 
L 228.579703 628.607581 
L 228.34477 629.07015 
L 228.34477 627.620366 
L 227.874904 628.547381 
L 227.874904 627.09134 
L 227.639971 627.555788 
L 227.639971 627.069046 
L 226.230371 629.869567 
L 226.230371 628.893824 
L 225.525572 630.303021 
L 225.525572 629.3244 
L 225.290639 629.795453 
L 225.290639 628.813992 
L 224.820772 629.758076 
L 224.820772 628.773731 
L 224.350906 629.720483 
L 224.350906 628.733237 
L 223.881039 629.682673 
L 223.881039 627.699466 
L 223.411173 628.651542 
L 223.411173 628.153907 
L 222.706373 629.587181 
L 222.706373 627.589187 
L 222.47144 628.068281 
L 222.47144 626.562044 
L 221.766641 628.0034 
L 221.766641 627.499796 
L 221.531707 627.981646 
L 221.531707 627.477283 
L 221.061841 628.443083 
L 221.061841 626.41804 
L 220.826908 626.901944 
L 220.826908 625.375218 
L 220.122108 626.831084 
L 220.122108 626.320607 
L 219.887175 626.807323 
L 219.887175 624.757714 
L 219.652242 625.245081 
L 219.652242 624.730742 
L 219.417309 625.21882 
L 219.417309 623.671111 
L 219.182375 624.159859 
L 219.182375 621.564679 
L 218.947442 622.05405 
L 218.947442 621.010441 
L 217.30291 624.45652 
L 217.30291 623.933368 
L 216.59811 625.421445 
L 216.59811 624.37262 
L 216.128244 625.368377 
L 216.128244 624.842721 
L 215.658378 625.841487 
L 215.658378 625.314984 
L 214.953578 626.818829 
L 214.953578 625.763274 
L 214.718645 626.26606 
L 214.718645 625.207209 
L 213.309046 628.240044 
L 213.309046 626.645262 
L 213.074112 627.153425 
L 213.074112 624.478764 
L 212.839179 624.987616 
L 212.839179 623.911851 
L 212.369313 624.931858 
L 212.369313 623.852628 
L 212.13438 624.363786 
L 212.13438 623.822876 
L 211.899446 624.334816 
L 211.899446 623.793031 
L 211.664513 624.305754 
L 211.664513 623.763091 
L 210.959714 625.306053 
L 210.959714 623.126527 
L 210.72478 623.642384 
L 210.72478 623.095315 
L 210.489847 623.611967 
L 210.489847 623.064004 
L 210.254914 623.581453 
L 210.254914 623.032592 
L 210.019981 623.550842 
L 210.019981 621.34652 
L 209.785048 621.865494 
L 209.785048 620.757978 
L 209.550114 621.27773 
L 209.550114 620.72261 
L 209.315181 621.243169 
L 209.315181 620.687128 
L 209.080248 621.208497 
L 209.080248 620.651532 
L 208.375448 622.220605 
L 208.375448 621.103807 
L 208.140515 621.628468 
L 208.140515 621.068684 
L 207.670649 622.120504 
L 207.670649 621.559756 
L 206.965849 623.143825 
L 206.965849 622.582082 
L 206.495983 623.642384 
L 206.495983 621.951485 
L 206.26105 622.482856 
L 206.26105 621.917349 
L 205.791183 622.982653 
L 205.791183 622.416162 
L 205.55625 622.9501 
L 205.55625 622.38265 
L 205.321317 622.91744 
L 205.321317 620.638154 
L 205.086384 621.173713 
L 205.086384 618.303165 
L 204.85145 618.839454 
L 204.85145 617.105548 
L 204.616517 617.642628 
L 204.616517 616.481794 
L 204.381584 617.019699 
L 204.381584 616.437789 
L 204.146651 616.976558 
L 204.146651 615.224858 
L 203.911718 615.764419 
L 203.911718 615.178517 
L 202.737052 617.889796 
L 202.737052 616.714649 
L 202.502118 617.259583 
L 202.502118 616.67048 
L 202.267185 617.216301 
L 202.267185 615.442869 
L 201.797319 616.537069 
L 201.797319 614.754325 
L 201.562386 615.302706 
L 201.562386 613.510678 
L 201.327452 614.059875 
L 201.327452 613.46044 
L 201.092519 614.010537 
L 201.092519 613.410029 
L 200.152786 615.619735 
L 200.152786 613.206638 
L 199.213054 615.430996 
L 199.213054 613.609644 
L 198.743187 614.727379 
L 198.743187 612.896213 
L 198.508254 613.456413 
L 198.508254 612.843841 
L 197.333588 615.659406 
L 197.333588 614.430583 
L 197.098655 614.996588 
L 197.098655 613.14507 
L 196.628788 614.279817 
L 196.628788 613.660366 
L 196.393855 614.229205 
L 196.393855 612.986905 
L 196.158922 613.556664 
L 196.158922 611.684758 
L 195.923989 612.25539 
L 195.923989 611.629141 
L 195.689056 612.200745 
L 195.689056 610.94478 
L 195.454122 611.517309 
L 195.454122 610.256725 
L 194.749323 611.980195 
L 194.749323 610.714754 
L 194.51439 611.291216 
L 194.51439 610.656727 
L 194.279457 611.234181 
L 194.279457 608.684481 
L 193.80959 609.842108 
L 193.80959 606.628203 
L 193.339724 607.789488 
L 193.339724 607.143055 
L 193.104791 607.725236 
L 193.104791 606.428683 
L 192.165058 608.767672 
L 192.165058 607.465851 
L 191.930125 608.053183 
L 191.930125 606.746414 
L 191.460258 607.924107 
L 191.460258 606.612231 
L 190.990392 607.794068 
L 190.990392 604.492252 
L 190.520525 605.677876 
L 190.520525 603.681481 
L 190.285592 604.275764 
L 190.285592 602.938416 
L 190.050659 603.533681 
L 190.050659 602.191128 
L 189.580793 603.38476 
L 189.580793 602.036819 
L 188.406127 605.04011 
L 188.406127 604.363857 
L 188.171193 604.967891 
L 188.171193 603.611355 
L 187.701327 604.822621 
L 187.701327 604.142256 
L 187.466394 604.749566 
L 187.466394 602.70038 
L 186.996527 603.918084 
L 186.996527 602.545054 
L 186.291728 604.380032 
L 186.291728 603.691295 
L 185.821861 604.920425 
L 185.821861 602.8457 
L 185.351995 604.079193 
L 185.351995 603.38476 
L 184.412262 605.866008 
L 184.412262 605.169914 
L 183.472529 607.670497 
L 183.472529 606.972744 
L 183.237596 607.600915 
L 183.237596 606.201112 
L 182.76773 607.46092 
L 182.76773 603.227043 
L 182.532797 603.858385 
L 182.532797 602.435607 
L 181.827997 604.336779 
L 181.827997 601.473019 
L 181.593064 602.108976 
L 181.593064 600.66822 
L 180.418398 603.866592 
L 180.418398 602.419125 
L 180.183465 603.062552 
L 180.183465 602.336514 
L 179.713598 603.627158 
L 179.713598 600.707387 
L 179.008799 602.652304 
L 179.008799 599.707286 
L 178.773865 600.357919 
L 178.773865 599.617749 
L 178.538932 600.269643 
L 178.538932 599.527839 
L 178.303999 600.180999 
L 178.303999 597.197876 
L 178.069066 597.852017 
L 178.069066 596.350862 
L 177.834133 597.006176 
L 177.834133 593.225016 
L 177.599199 593.881183 
L 177.599199 593.120038 
L 177.129333 594.436328 
L 177.129333 593.673347 
L 176.659467 594.995021 
L 176.659467 591.925901 
L 176.424533 592.588405 
L 176.424533 591.816901 
L 175.954667 593.145944 
L 175.954667 592.372551 
L 175.014934 595.047388 
L 175.014934 592.715793 
L 174.780001 593.387776 
L 174.780001 592.607088 
L 174.075201 594.631465 
L 174.075201 593.848728 
L 173.605335 595.205452 
L 173.605335 592.056402 
L 173.370402 592.736521 
L 173.370402 591.94481 
L 172.430669 594.679826 
L 172.430669 592.292725 
L 171.256003 595.743924 
L 171.256003 593.339032 
L 170.081337 596.827173 
L 170.081337 596.021346 
L 169.846404 596.723572 
L 169.846404 595.10622 
L 169.611471 595.809793 
L 169.611471 594.998251 
L 169.376538 595.703297 
L 169.376538 594.889792 
L 168.906671 596.30445 
L 168.906671 595.488849 
L 167.732005 599.053232 
L 167.732005 598.235172 
L 167.497072 598.952839 
L 167.497072 597.31084 
L 166.792272 599.473068 
L 166.792272 596.994753 
L 166.087473 599.170964 
L 166.087473 598.340661 
L 164.677874 602.738268 
L 164.677874 601.90533 
L 164.208007 603.38476 
L 164.208007 600.873484 
L 163.973074 601.615477 
L 163.973074 599.931149 
L 163.033341 602.915833 
L 163.033341 600.372873 
L 162.563475 601.875209 
L 162.563475 601.023259 
L 162.093608 602.532576 
L 162.093608 597.376142 
L 161.858675 598.132783 
L 161.858675 597.265952 
L 161.623742 598.024297 
L 161.623742 597.155225 
L 161.388809 597.915283 
L 161.388809 596.170506 
L 160.918942 597.695654 
L 160.918942 596.819789 
L 160.684009 597.585031 
L 160.684009 594.059425 
L 160.449076 594.825983 
L 160.449076 593.938992 
L 160.214143 594.707298 
L 160.214143 593.817962 
L 159.97921 594.588025 
L 159.97921 592.802419 
L 159.744276 593.574093 
L 159.744276 592.6778 
L 159.509343 593.451246 
L 159.509343 592.552558 
L 159.27441 593.327783 
L 159.27441 592.426688 
L 159.039477 593.203701 
L 159.039477 591.394398 
L 158.56961 592.953658 
L 158.56961 592.045265 
L 158.334677 592.827689 
L 158.334677 591.003674 
L 157.864811 592.573829 
L 157.864811 591.658018 
L 156.925078 594.821754 
L 156.925078 589.273456 
L 156.690145 590.068458 
L 156.690145 588.199549 
L 156.220278 589.795015 
L 156.220278 587.915674 
L 155.750412 589.51872 
L 155.750412 588.575008 
L 155.280546 590.186075 
L 155.280546 589.239528 
L 155.045612 590.048047 
L 155.045612 586.236155 
L 154.10588 589.488615 
L 154.10588 586.600813 
L 153.636013 588.238872 
L 153.636013 586.300016 
L 153.40108 587.121937 
L 153.40108 586.148407 
L 152.931214 587.798476 
L 152.931214 586.821922 
L 152.461347 588.480502 
L 152.461347 584.546148 
L 151.991481 586.212084 
L 151.991481 576.181842 
L 151.521615 577.852297 
L 151.521615 574.787418 
L 151.286681 575.625357 
L 151.286681 572.533988 
L 150.816815 574.215296 
L 150.816815 572.138823 
L 150.346949 573.828502 
L 150.346949 572.78532 
L 149.642149 575.33697 
L 149.642149 572.187121 
L 149.172283 573.898662 
L 149.172283 572.842149 
L 148.937349 573.70131 
L 148.937349 571.578608 
L 148.702416 572.43966 
L 148.702416 571.373432 
L 148.467483 572.236673 
L 148.467483 569.018565 
L 147.762683 571.620622 
L 147.762683 568.371582 
L 147.057884 570.993714 
L 147.057884 569.903409 
L 146.822951 570.782283 
L 146.822951 569.688449 
L 146.588017 570.569603 
L 146.588017 569.472218 
L 146.353084 570.355662 
L 146.353084 567.042957 
L 146.118151 567.928047 
L 146.118151 565.702416 
L 145.648285 567.479192 
L 145.648285 564.113579 
L 144.473619 568.597388 
L 144.473619 566.333144 
L 144.238685 567.23739 
L 144.238685 560.358951 
L 144.003752 561.263745 
L 144.003752 554.254683 
L 143.768819 555.159834 
L 143.768819 551.604708 
L 142.829086 555.248533 
L 142.829086 554.054285 
L 142.124287 556.816124 
L 142.124287 555.616782 
L 141.419487 558.403716 
L 141.419487 555.990923 
L 141.184554 556.924966 
L 141.184554 550.82257 
L 140.479754 553.635923 
L 140.479754 552.402157 
L 140.009888 554.292058 
L 140.009888 550.563651 
L 139.774955 551.511789 
L 139.774955 547.745007 
L 139.540021 548.694755 
L 139.540021 547.43034 
L 138.835222 550.296976 
L 138.835222 549.026802 
L 138.365355 550.952819 
L 138.365355 549.677361 
L 138.130422 550.644692 
L 138.130422 549.364429 
L 137.895489 550.334491 
L 137.895489 547.75994 
L 137.660556 548.732211 
L 137.660556 546.139106 
L 136.720823 550.056997 
L 136.720823 548.751612 
L 136.48589 549.738926 
L 136.48589 541.808292 
L 136.250957 542.79555 
L 136.250957 540.113996 
L 136.016023 541.103466 
L 136.016023 539.755043 
L 135.546157 541.743139 
L 135.546157 536.29679 
L 134.606424 540.304969 
L 134.606424 538.928683 
L 134.136558 540.952945 
L 134.136558 539.57042 
L 133.666691 541.607912 
L 133.666691 540.219095 
L 133.431758 541.24269 
L 133.431758 535.634261 
L 133.196825 536.658827 
L 133.196825 533.822473 
L 132.961892 534.849351 
L 132.961892 531.990703 
L 132.726959 533.01988 
L 132.726959 531.581906 
L 132.257092 533.650181 
L 132.257092 532.205373 
L 132.022159 533.244514 
L 132.022159 531.79357 
L 131.787226 532.83582 
L 131.787226 525.495276 
L 131.552293 526.537441 
L 131.552293 525.051876 
L 131.317359 526.097149 
L 131.317359 524.60511 
L 130.847493 526.705901 
L 130.847493 525.206482 
L 130.61256 526.262044 
L 130.61256 524.756029 
L 130.142694 526.8776 
L 130.142694 520.788267 
L 129.672827 522.919165 
L 129.672827 521.380213 
L 129.437894 522.450979 
L 129.437894 519.353134 
L 129.202961 520.426229 
L 129.202961 517.302066 
L 128.263228 521.629338 
L 128.263228 520.054095 
L 128.028295 521.145725 
L 128.028295 519.563213 
L 127.323495 522.861496 
L 127.323495 521.269682 
L 126.853629 523.4888 
L 126.853629 520.281837 
L 126.148829 523.638489 
L 126.148829 522.022171 
L 125.913896 523.149224 
L 125.913896 521.525248 
L 125.678963 522.655923 
L 125.678963 521.024217 
L 125.209096 523.297564 
L 125.209096 521.657015 
L 124.974163 522.799743 
L 124.974163 519.49597 
L 124.73923 520.641355 
L 124.73923 518.977993 
L 124.504297 520.127109 
L 124.504297 515.091466 
L 124.269364 516.24209 
L 124.269364 514.548134 
L 124.03443 515.702506 
L 124.03443 514.000158 
L 123.799497 515.1583 
L 123.799497 511.729297 
L 123.329631 514.055784 
L 123.329631 512.327763 
L 122.389898 517.03676 
L 122.389898 515.296355 
L 121.920032 517.679427 
L 121.920032 514.17072 
L 121.450165 516.569936 
L 121.450165 509.448399 
L 120.510432 514.290845 
L 120.510432 507.018765 
L 120.275499 508.237649 
L 120.275499 504.548824 
L 120.040566 505.770436 
L 120.040566 503.911839 
L 119.805633 505.137622 
L 119.805633 497.610685 
L 119.5707 498.836066 
L 119.5707 496.930761 
L 119.335766 498.160299 
L 119.335766 496.244437 
L 118.396034 501.214478 
L 118.396034 499.28308 
L 118.1611 500.538774 
L 118.1611 498.596518 
L 117.926167 499.856588 
L 117.926167 489.995604 
L 117.691234 491.253142 
L 117.691234 489.250341 
L 117.456301 490.512206 
L 117.456301 484.439132 
L 116.986434 486.970278 
L 116.986434 476.626527 
L 116.751501 477.89155 
L 116.751501 471.553499 
L 116.281635 474.089916 
L 116.281635 469.801876 
L 115.576835 473.641987 
L 115.576835 471.474649 
L 114.872036 475.36783 
L 114.872036 473.182363 
L 114.637102 474.491355 
L 114.637102 470.081301 
L 114.402169 471.392471 
L 114.402169 466.930885 
L 113.69737 470.891713 
L 113.69737 461.794309 
L 113.462436 463.118555 
L 113.462436 460.810721 
L 113.227503 462.139503 
L 113.227503 455.131848 
L 112.99257 456.459629 
L 112.99257 454.095148 
L 111.348038 463.578622 
L 111.348038 461.180817 
L 110.643238 465.352041 
L 110.643238 458.04989 
L 110.408305 459.447303 
L 110.408305 456.982117 
L 110.173372 458.384536 
L 110.173372 448.36674 
L 109.468572 452.584662 
L 109.468572 450.033276 
L 109.233639 451.452579 
L 109.233639 446.297196 
L 108.998706 447.718066 
L 108.998706 442.493392 
L 108.763773 443.915652 
L 108.763773 438.620006 
L 107.82404 444.366579 
L 107.82404 441.679164 
L 107.354173 444.598364 
L 107.354173 441.886479 
L 106.414441 447.819883 
L 106.414441 445.075179 
L 106.179507 446.578133 
L 106.179507 443.811924 
L 105.709641 446.838704 
L 105.709641 444.046566 
L 105.474708 445.570511 
L 105.474708 442.756124 
L 104.769908 447.375225 
L 104.769908 438.782248 
L 104.300042 441.886479 
L 104.300042 436.044096 
L 103.830175 439.171775 
L 103.830175 436.211674 
L 102.890443 442.576816 
L 102.890443 439.57742 
L 102.420576 442.816516 
L 102.420576 439.786603 
L 101.24591 448.060345 
L 101.24591 444.984397 
L 101.010977 446.669529 
L 101.010977 443.566547 
L 100.306177 448.679796 
L 100.306177 445.53899 
L 100.071244 447.263046 
L 100.071244 437.685867 
L 99.601378 441.139683 
L 99.601378 431.313421 
L 99.366445 433.042348 
L 99.366445 426.355206 
L 99.131511 428.085006 
L 99.131511 424.69682 
L 97.721912 435.321508 
L 97.721912 431.868437 
L 97.486979 433.681563 
L 97.486979 430.194579 
L 96.312313 439.446542 
L 96.312313 435.897945 
L 95.37258 443.546711 
L 95.37258 439.941504 
L 93.258181 458.04989 
L 93.258181 454.351397 
L 93.023248 456.443588 
L 93.023248 452.70578 
L 91.613649 465.608692 
L 91.613649 461.794309 
L 91.378716 464.00538 
L 91.378716 456.25747 
L 90.908849 460.710096 
L 90.908849 448.770495 
L 90.438983 453.257504 
L 90.438983 449.185731 
L 89.969117 453.74112 
L 89.969117 436.986769 
L 89.264317 443.87547 
L 89.264317 439.554445 
L 89.029384 441.886479 
L 89.029384 437.512031 
L 88.089651 447.037456 
L 88.089651 433.516141 
L 87.384852 440.823579 
L 87.384852 436.187526 
L 86.914985 441.16645 
L 86.914985 436.457071 
L 86.680052 438.975057 
L 86.680052 434.202234 
L 85.505386 447.153208 
L 85.505386 437.32084 
L 84.33072 450.893158 
L 84.33072 445.825461 
L 83.860854 451.452579 
L 83.860854 446.297196 
L 83.62592 449.147495 
L 83.62592 443.915652 
L 83.390987 446.786189 
L 83.390987 441.475665 
L 82.921121 447.293405 
L 82.921121 441.886479 
L 82.686188 444.834522 
L 82.686188 439.343591 
L 82.216321 445.320464 
L 82.216321 439.726392 
L 80.806722 458.514801 
L 80.806722 452.745295 
L 80.571789 456.007865 
L 80.571789 450.142154 
L 80.336856 453.431772 
L 80.336856 441.418208 
L 80.101922 444.715889 
L 80.101922 432.320379 
L 79.397123 442.375258 
L 79.397123 429.485979 
L 79.16219 432.891489 
L 79.16219 426.278631 
L 77.75259 447.686398 
L 77.75259 433.850955 
L 77.282724 441.342067 
L 77.282724 434.202234 
L 76.812858 441.886479 
L 76.812858 434.571226 
L 76.342991 442.45881 
L 76.342991 434.959303 
L 76.108058 438.975057 
L 76.108058 407.500227 
L 75.403258 419.565578 
L 75.403258 394.055978 
L 75.168325 398.103174 
L 75.168325 370.945795 
L 74.463526 383.123292 
L 74.463526 333.162092 
L 73.28886 353.617463 
L 73.28886 342.596956 
L 73.053926 346.892879 
L 73.053926 335.533953 
L 72.818993 339.848076 
L 72.818993 316.127259 
L 71.87926 333.715961 
L 71.87926 307.961075 
L 71.644327 312.425256 
L 71.644327 285.028643 
L 71.409394 289.360325 
L 71.409394 274.951293 
L 70.704594 288.266163 
L 70.704594 272.98056 
L 69.529928 297.16064 
L 69.529928 280.517345 
L 68.590196 302.087154 
L 68.590196 265.348447 
L 67.650463 288.266163 
L 67.650463 267.783454 
L 67.41553 273.796432 
L 67.41553 252.158824 
L 66.945663 264.289748 
L 66.945663 240.998374 
L 66.240864 260.130574 
L 66.240864 234.465427 
L 66.005931 240.998374 
L 66.005931 213.526496 
L 65.770997 219.852257 
L 65.770997 190.323897 
L 64.831265 216.6483 
L 64.361398 232.358025 
L 64.361398 116.639071 
L 63.656599 133.858051 
L 62.951799 155.773117 
L 62.951799 100.69557 
L 62.246999 121.953571 
L 62.246999 51.927216 
L 61.5422 68.808569 
L 61.072333 84.75207 
L 60.602467 107.07297 
L 60.132601 140.554321 
L 59.662734 196.356573 
L 59.427801 240.998374 
L 59.192868 307.961075 
L 58.957935 419.565578 
L 58.488068 419.565578 
L 58.488068 419.565578 
" style="fill:none;stroke:#4daf4a;stroke-linecap:square;stroke-width:1.5;"/>
   </g>
   <g id="patch_3">
    <path d="M 43.78125 673.718125 
L 43.78125 22.318125 
" style="fill:none;stroke:#000000;stroke-linecap:square;stroke-linejoin:miter;stroke-width:0.8;"/>
   </g>
   <g id="patch_4">
    <path d="M 367.33125 673.718125 
L 367.33125 22.318125 
" style="fill:none;stroke:#000000;stroke-linecap:square;stroke-linejoin:miter;stroke-width:0.8;"/>
   </g>
   <g id="patch_5">
    <path d="M 43.78125 673.718125 
L 367.33125 673.718125 
" style="fill:none;stroke:#000000;stroke-linecap:square;stroke-linejoin:miter;stroke-width:0.8;"/>
   </g>
   <g id="patch_6">
    <path d="M 43.78125 22.318125 
L 367.33125 22.318125 
" style="fill:none;stroke:#000000;stroke-linecap:square;stroke-linejoin:miter;stroke-width:0.8;"/>
   </g>
   <g id="text_14">
    <!-- Permutations = 100 -->
    <g transform="translate(145.514063 16.318125)scale(0.12 -0.12)">
     <defs>
      <path d="M 52 44.1875 
Q 55.375 50.25 60.0625 53.125 
Q 64.75 56 71.09375 56 
Q 79.640625 56 84.28125 50.015625 
Q 88.921875 44.046875 88.921875 33.015625 
L 88.921875 0 
L 79.890625 0 
L 79.890625 32.71875 
Q 79.890625 40.578125 77.09375 44.375 
Q 74.3125 48.1875 68.609375 48.1875 
Q 61.625 48.1875 57.5625 43.546875 
Q 53.515625 38.921875 53.515625 30.90625 
L 53.515625 0 
L 44.484375 0 
L 44.484375 32.71875 
Q 44.484375 40.625 41.703125 44.40625 
Q 38.921875 48.1875 33.109375 48.1875 
Q 26.21875 48.1875 22.15625 43.53125 
Q 18.109375 38.875 18.109375 30.90625 
L 18.109375 0 
L 9.078125 0 
L 9.078125 54.6875 
L 18.109375 54.6875 
L 18.109375 46.1875 
Q 21.1875 51.21875 25.484375 53.609375 
Q 29.78125 56 35.6875 56 
Q 41.65625 56 45.828125 52.96875 
Q 50 49.953125 52 44.1875 
z
" id="DejaVuSans-109"/>
      <path d="M 8.5 21.578125 
L 8.5 54.6875 
L 17.484375 54.6875 
L 17.484375 21.921875 
Q 17.484375 14.15625 20.5 10.265625 
Q 23.53125 6.390625 29.59375 6.390625 
Q 36.859375 6.390625 41.078125 11.03125 
Q 45.3125 15.671875 45.3125 23.6875 
L 45.3125 54.6875 
L 54.296875 54.6875 
L 54.296875 0 
L 45.3125 0 
L 45.3125 8.40625 
Q 42.046875 3.421875 37.71875 1 
Q 33.40625 -1.421875 27.6875 -1.421875 
Q 18.265625 -1.421875 13.375 4.4375 
Q 8.5 10.296875 8.5 21.578125 
z
M 31.109375 56 
z
" id="DejaVuSans-117"/>
      <path d="M 18.3125 70.21875 
L 18.3125 54.6875 
L 36.8125 54.6875 
L 36.8125 47.703125 
L 18.3125 47.703125 
L 18.3125 18.015625 
Q 18.3125 11.328125 20.140625 9.421875 
Q 21.96875 7.515625 27.59375 7.515625 
L 36.8125 7.515625 
L 36.8125 0 
L 27.59375 0 
Q 17.1875 0 13.234375 3.875 
Q 9.28125 7.765625 9.28125 18.015625 
L 9.28125 47.703125 
L 2.6875 47.703125 
L 2.6875 54.6875 
L 9.28125 54.6875 
L 9.28125 70.21875 
z
" id="DejaVuSans-116"/>
      <path id="DejaVuSans-32"/>
      <path d="M 10.59375 45.40625 
L 73.1875 45.40625 
L 73.1875 37.203125 
L 10.59375 37.203125 
z
M 10.59375 25.484375 
L 73.1875 25.484375 
L 73.1875 17.1875 
L 10.59375 17.1875 
z
" id="DejaVuSans-61"/>
     </defs>
     <use xlink:href="#DejaVuSans-80"/>
     <use x="56.677734" xlink:href="#DejaVuSans-101"/>
     <use x="118.201172" xlink:href="#DejaVuSans-114"/>
     <use x="157.564453" xlink:href="#DejaVuSans-109"/>
     <use x="254.976562" xlink:href="#DejaVuSans-117"/>
     <use x="318.355469" xlink:href="#DejaVuSans-116"/>
     <use x="357.564453" xlink:href="#DejaVuSans-97"/>
     <use x="418.84375" xlink:href="#DejaVuSans-116"/>
     <use x="458.052734" xlink:href="#DejaVuSans-105"/>
     <use x="485.835938" xlink:href="#DejaVuSans-111"/>
     <use x="547.017578" xlink:href="#DejaVuSans-110"/>
     <use x="610.396484" xlink:href="#DejaVuSans-115"/>
     <use x="662.496094" xlink:href="#DejaVuSans-32"/>
     <use x="694.283203" xlink:href="#DejaVuSans-61"/>
     <use x="778.072266" xlink:href="#DejaVuSans-32"/>
     <use x="809.859375" xlink:href="#DejaVuSans-49"/>
     <use x="873.482422" xlink:href="#DejaVuSans-48"/>
     <use x="937.105469" xlink:href="#DejaVuSans-48"/>
    </g>
   </g>
   <g id="legend_1">
    <g id="patch_7">
     <path d="M 259.423438 59.674375 
L 360.33125 59.674375 
Q 362.33125 59.674375 362.33125 57.674375 
L 362.33125 29.318125 
Q 362.33125 27.318125 360.33125 27.318125 
L 259.423438 27.318125 
Q 257.423438 27.318125 257.423438 29.318125 
L 257.423438 57.674375 
Q 257.423438 59.674375 259.423438 59.674375 
z
" style="fill:#ffffff;opacity:0.8;stroke:#cccccc;stroke-linejoin:miter;"/>
    </g>
    <g id="line2d_14">
     <path d="M 261.423438 35.416562 
L 281.423438 35.416562 
" style="fill:none;stroke:#984ea3;stroke-linecap:square;stroke-width:1.5;"/>
    </g>
    <g id="line2d_15"/>
    <g id="text_15">
     <!-- NLCD (KRR) -->
     <g transform="translate(289.423438 38.916562)scale(0.1 -0.1)">
      <defs>
       <path d="M 9.8125 72.90625 
L 23.09375 72.90625 
L 55.421875 11.921875 
L 55.421875 72.90625 
L 64.984375 72.90625 
L 64.984375 0 
L 51.703125 0 
L 19.390625 60.984375 
L 19.390625 0 
L 9.8125 0 
z
" id="DejaVuSans-78"/>
       <path d="M 9.8125 72.90625 
L 19.671875 72.90625 
L 19.671875 8.296875 
L 55.171875 8.296875 
L 55.171875 0 
L 9.8125 0 
z
" id="DejaVuSans-76"/>
       <path d="M 64.40625 67.28125 
L 64.40625 56.890625 
Q 59.421875 61.53125 53.78125 63.8125 
Q 48.140625 66.109375 41.796875 66.109375 
Q 29.296875 66.109375 22.65625 58.46875 
Q 16.015625 50.828125 16.015625 36.375 
Q 16.015625 21.96875 22.65625 14.328125 
Q 29.296875 6.6875 41.796875 6.6875 
Q 48.140625 6.6875 53.78125 8.984375 
Q 59.421875 11.28125 64.40625 15.921875 
L 64.40625 5.609375 
Q 59.234375 2.09375 53.4375 0.328125 
Q 47.65625 -1.421875 41.21875 -1.421875 
Q 24.65625 -1.421875 15.125 8.703125 
Q 5.609375 18.84375 5.609375 36.375 
Q 5.609375 53.953125 15.125 64.078125 
Q 24.65625 74.21875 41.21875 74.21875 
Q 47.75 74.21875 53.53125 72.484375 
Q 59.328125 70.75 64.40625 67.28125 
z
" id="DejaVuSans-67"/>
       <path d="M 19.671875 64.796875 
L 19.671875 8.109375 
L 31.59375 8.109375 
Q 46.6875 8.109375 53.6875 14.9375 
Q 60.6875 21.78125 60.6875 36.53125 
Q 60.6875 51.171875 53.6875 57.984375 
Q 46.6875 64.796875 31.59375 64.796875 
z
M 9.8125 72.90625 
L 30.078125 72.90625 
Q 51.265625 72.90625 61.171875 64.09375 
Q 71.09375 55.28125 71.09375 36.53125 
Q 71.09375 17.671875 61.125 8.828125 
Q 51.171875 0 30.078125 0 
L 9.8125 0 
z
" id="DejaVuSans-68"/>
       <path d="M 31 75.875 
Q 24.46875 64.65625 21.28125 53.65625 
Q 18.109375 42.671875 18.109375 31.390625 
Q 18.109375 20.125 21.3125 9.0625 
Q 24.515625 -2 31 -13.1875 
L 23.1875 -13.1875 
Q 15.875 -1.703125 12.234375 9.375 
Q 8.59375 20.453125 8.59375 31.390625 
Q 8.59375 42.28125 12.203125 53.3125 
Q 15.828125 64.359375 23.1875 75.875 
z
" id="DejaVuSans-40"/>
       <path d="M 9.8125 72.90625 
L 19.671875 72.90625 
L 19.671875 42.09375 
L 52.390625 72.90625 
L 65.09375 72.90625 
L 28.90625 38.921875 
L 67.671875 0 
L 54.6875 0 
L 19.671875 35.109375 
L 19.671875 0 
L 9.8125 0 
z
" id="DejaVuSans-75"/>
       <path d="M 8.015625 75.875 
L 15.828125 75.875 
Q 23.140625 64.359375 26.78125 53.3125 
Q 30.421875 42.28125 30.421875 31.390625 
Q 30.421875 20.453125 26.78125 9.375 
Q 23.140625 -1.703125 15.828125 -13.1875 
L 8.015625 -13.1875 
Q 14.5 -2 17.703125 9.0625 
Q 20.90625 20.125 20.90625 31.390625 
Q 20.90625 42.671875 17.703125 53.65625 
Q 14.5 64.65625 8.015625 75.875 
z
" id="DejaVuSans-41"/>
      </defs>
      <use xlink:href="#DejaVuSans-78"/>
      <use x="74.804688" xlink:href="#DejaVuSans-76"/>
      <use x="130.517578" xlink:href="#DejaVuSans-67"/>
      <use x="200.341797" xlink:href="#DejaVuSans-68"/>
      <use x="277.34375" xlink:href="#DejaVuSans-32"/>
      <use x="309.130859" xlink:href="#DejaVuSans-40"/>
      <use x="348.144531" xlink:href="#DejaVuSans-75"/>
      <use x="413.720703" xlink:href="#DejaVuSans-82"/>
      <use x="483.203125" xlink:href="#DejaVuSans-82"/>
      <use x="552.685547" xlink:href="#DejaVuSans-41"/>
     </g>
    </g>
    <g id="line2d_16">
     <path d="M 261.423438 50.094687 
L 281.423438 50.094687 
" style="fill:none;stroke:#4daf4a;stroke-linecap:square;stroke-width:1.5;"/>
    </g>
    <g id="line2d_17"/>
    <g id="text_16">
     <!-- CIT (baseline) -->
     <g transform="translate(289.423438 53.594687)scale(0.1 -0.1)">
      <defs>
       <path d="M 9.8125 72.90625 
L 19.671875 72.90625 
L 19.671875 0 
L 9.8125 0 
z
" id="DejaVuSans-73"/>
       <path d="M -0.296875 72.90625 
L 61.375 72.90625 
L 61.375 64.59375 
L 35.5 64.59375 
L 35.5 0 
L 25.59375 0 
L 25.59375 64.59375 
L -0.296875 64.59375 
z
" id="DejaVuSans-84"/>
       <path d="M 48.6875 27.296875 
Q 48.6875 37.203125 44.609375 42.84375 
Q 40.53125 48.484375 33.40625 48.484375 
Q 26.265625 48.484375 22.1875 42.84375 
Q 18.109375 37.203125 18.109375 27.296875 
Q 18.109375 17.390625 22.1875 11.75 
Q 26.265625 6.109375 33.40625 6.109375 
Q 40.53125 6.109375 44.609375 11.75 
Q 48.6875 17.390625 48.6875 27.296875 
z
M 18.109375 46.390625 
Q 20.953125 51.265625 25.265625 53.625 
Q 29.59375 56 35.59375 56 
Q 45.5625 56 51.78125 48.09375 
Q 58.015625 40.1875 58.015625 27.296875 
Q 58.015625 14.40625 51.78125 6.484375 
Q 45.5625 -1.421875 35.59375 -1.421875 
Q 29.59375 -1.421875 25.265625 0.953125 
Q 20.953125 3.328125 18.109375 8.203125 
L 18.109375 0 
L 9.078125 0 
L 9.078125 75.984375 
L 18.109375 75.984375 
z
" id="DejaVuSans-98"/>
      </defs>
      <use xlink:href="#DejaVuSans-67"/>
      <use x="69.824219" xlink:href="#DejaVuSans-73"/>
      <use x="99.316406" xlink:href="#DejaVuSans-84"/>
      <use x="160.400391" xlink:href="#DejaVuSans-32"/>
      <use x="192.1875" xlink:href="#DejaVuSans-40"/>
      <use x="231.201172" xlink:href="#DejaVuSans-98"/>
      <use x="294.677734" xlink:href="#DejaVuSans-97"/>
      <use x="355.957031" xlink:href="#DejaVuSans-115"/>
      <use x="408.056641" xlink:href="#DejaVuSans-101"/>
      <use x="469.580078" xlink:href="#DejaVuSans-108"/>
      <use x="497.363281" xlink:href="#DejaVuSans-105"/>
      <use x="525.146484" xlink:href="#DejaVuSans-110"/>
      <use x="588.525391" xlink:href="#DejaVuSans-101"/>
      <use x="650.048828" xlink:href="#DejaVuSans-41"/>
     </g>
    </g>
   </g>
  </g>
  <g id="axes_2">
   <g id="patch_8">
    <path d="M 381.63125 673.718125 
L 705.18125 673.718125 
L 705.18125 22.318125 
L 381.63125 22.318125 
z
" style="fill:#ffffff;"/>
   </g>
   <g id="matplotlib.axis_3">
    <g id="xtick_7">
     <g id="line2d_18">
      <g>
       <use style="stroke:#000000;stroke-width:0.8;" x="396.338068" xlink:href="#m1ad0bf3d83" y="673.718125"/>
      </g>
     </g>
     <g id="text_17">
      <!-- 0.0 -->
      <g transform="translate(388.386506 688.316562)scale(0.1 -0.1)">
       <use xlink:href="#DejaVuSans-48"/>
       <use x="63.623047" xlink:href="#DejaVuSans-46"/>
       <use x="95.410156" xlink:href="#DejaVuSans-48"/>
      </g>
     </g>
    </g>
    <g id="xtick_8">
     <g id="line2d_19">
      <g>
       <use style="stroke:#000000;stroke-width:0.8;" x="455.165341" xlink:href="#m1ad0bf3d83" y="673.718125"/>
      </g>
     </g>
     <g id="text_18">
      <!-- 0.2 -->
      <g transform="translate(447.213778 688.316562)scale(0.1 -0.1)">
       <use xlink:href="#DejaVuSans-48"/>
       <use x="63.623047" xlink:href="#DejaVuSans-46"/>
       <use x="95.410156" xlink:href="#DejaVuSans-50"/>
      </g>
     </g>
    </g>
    <g id="xtick_9">
     <g id="line2d_20">
      <g>
       <use style="stroke:#000000;stroke-width:0.8;" x="513.992614" xlink:href="#m1ad0bf3d83" y="673.718125"/>
      </g>
     </g>
     <g id="text_19">
      <!-- 0.4 -->
      <g transform="translate(506.041051 688.316562)scale(0.1 -0.1)">
       <use xlink:href="#DejaVuSans-48"/>
       <use x="63.623047" xlink:href="#DejaVuSans-46"/>
       <use x="95.410156" xlink:href="#DejaVuSans-52"/>
      </g>
     </g>
    </g>
    <g id="xtick_10">
     <g id="line2d_21">
      <g>
       <use style="stroke:#000000;stroke-width:0.8;" x="572.819886" xlink:href="#m1ad0bf3d83" y="673.718125"/>
      </g>
     </g>
     <g id="text_20">
      <!-- 0.6 -->
      <g transform="translate(564.868324 688.316562)scale(0.1 -0.1)">
       <use xlink:href="#DejaVuSans-48"/>
       <use x="63.623047" xlink:href="#DejaVuSans-46"/>
       <use x="95.410156" xlink:href="#DejaVuSans-54"/>
      </g>
     </g>
    </g>
    <g id="xtick_11">
     <g id="line2d_22">
      <g>
       <use style="stroke:#000000;stroke-width:0.8;" x="631.647159" xlink:href="#m1ad0bf3d83" y="673.718125"/>
      </g>
     </g>
     <g id="text_21">
      <!-- 0.8 -->
      <g transform="translate(623.695597 688.316562)scale(0.1 -0.1)">
       <use xlink:href="#DejaVuSans-48"/>
       <use x="63.623047" xlink:href="#DejaVuSans-46"/>
       <use x="95.410156" xlink:href="#DejaVuSans-56"/>
      </g>
     </g>
    </g>
    <g id="xtick_12">
     <g id="line2d_23">
      <g>
       <use style="stroke:#000000;stroke-width:0.8;" x="690.474432" xlink:href="#m1ad0bf3d83" y="673.718125"/>
      </g>
     </g>
     <g id="text_22">
      <!-- 1.0 -->
      <g transform="translate(682.522869 688.316562)scale(0.1 -0.1)">
       <use xlink:href="#DejaVuSans-49"/>
       <use x="63.623047" xlink:href="#DejaVuSans-46"/>
       <use x="95.410156" xlink:href="#DejaVuSans-48"/>
      </g>
     </g>
    </g>
    <g id="text_23">
     <!-- Recall -->
     <g transform="translate(528.489063 701.994687)scale(0.1 -0.1)">
      <use xlink:href="#DejaVuSans-82"/>
      <use x="64.982422" xlink:href="#DejaVuSans-101"/>
      <use x="126.505859" xlink:href="#DejaVuSans-99"/>
      <use x="181.486328" xlink:href="#DejaVuSans-97"/>
      <use x="242.765625" xlink:href="#DejaVuSans-108"/>
      <use x="270.548828" xlink:href="#DejaVuSans-108"/>
     </g>
    </g>
   </g>
   <g id="matplotlib.axis_4">
    <g id="ytick_6">
     <g id="line2d_24">
      <g>
       <use style="stroke:#000000;stroke-width:0.8;" x="381.63125" xlink:href="#m4abdef542c" y="642.774584"/>
      </g>
     </g>
    </g>
    <g id="ytick_7">
     <g id="line2d_25">
      <g>
       <use style="stroke:#000000;stroke-width:0.8;" x="381.63125" xlink:href="#m4abdef542c" y="508.849181"/>
      </g>
     </g>
    </g>
    <g id="ytick_8">
     <g id="line2d_26">
      <g>
       <use style="stroke:#000000;stroke-width:0.8;" x="381.63125" xlink:href="#m4abdef542c" y="374.923777"/>
      </g>
     </g>
    </g>
    <g id="ytick_9">
     <g id="line2d_27">
      <g>
       <use style="stroke:#000000;stroke-width:0.8;" x="381.63125" xlink:href="#m4abdef542c" y="240.998374"/>
      </g>
     </g>
    </g>
    <g id="ytick_10">
     <g id="line2d_28">
      <g>
       <use style="stroke:#000000;stroke-width:0.8;" x="381.63125" xlink:href="#m4abdef542c" y="107.07297"/>
      </g>
     </g>
    </g>
   </g>
   <g id="line2d_29">
    <path clip-path="url(#paa2e55d49a)" d="M 690.474432 642.774584 
L 616.062846 630.427882 
L 603.894913 622.953935 
L 601.086929 623.079672 
L 597.810947 623.573809 
L 595.704959 622.948769 
L 594.300967 619.005694 
L 593.130973 619.712399 
L 591.024985 620.315044 
L 589.620993 621.443555 
L 588.684998 620.902345 
L 587.281006 619.859591 
L 584.941019 620.009843 
L 583.537027 618.487594 
L 583.069029 615.710128 
L 582.367033 614.233105 
L 581.899036 614.158045 
L 581.431038 610.845349 
L 579.793048 612.884504 
L 579.091051 613.232216 
L 578.389055 611.702449 
L 577.921058 612.090866 
L 577.453061 610.109852 
L 576.283067 611.321715 
L 575.81507 611.235837 
L 574.645076 612.46225 
L 574.177079 609.963322 
L 574.177079 608.505982 
L 573.94308 606.503121 
L 572.071091 609.059098 
L 571.837092 609.011877 
L 571.135096 606.884843 
L 571.135096 604.889039 
L 570.667098 605.783856 
L 570.199101 605.176479 
L 569.497105 603.497463 
L 569.263106 602.424032 
L 568.795109 603.328165 
L 568.327111 602.191128 
L 567.859114 601.559308 
L 567.391117 601.955521 
L 567.157118 602.412171 
L 566.68912 602.8114 
L 565.987124 604.18922 
L 565.987124 603.154578 
L 565.753126 603.096612 
L 565.753126 602.057337 
L 565.285128 601.937668 
L 565.285128 601.415268 
L 565.05113 601.87757 
L 564.349133 602.221101 
L 563.413139 603.034108 
L 562.477144 604.908771 
L 561.30715 606.213049 
L 560.605154 607.636735 
L 560.605154 603.38476 
L 560.137157 604.336779 
L 559.903158 603.742578 
L 559.66916 603.683394 
L 559.435161 604.161797 
L 559.201162 604.103115 
L 557.329173 607.96217 
L 557.095174 607.908859 
L 556.159179 609.85897 
L 556.159179 608.23647 
L 555.457183 608.620501 
L 554.755187 610.097201 
L 554.521188 610.046499 
L 554.053191 611.036241 
L 553.819192 610.440569 
L 553.819192 608.796632 
L 553.351195 606.479011 
L 552.883197 606.920539 
L 552.649199 607.419966 
L 552.649199 606.30713 
L 552.4152 606.249474 
L 552.181201 605.63204 
L 551.947202 605.573083 
L 551.947202 604.449349 
L 551.713204 604.951578 
L 551.713204 603.824168 
L 551.479205 604.3271 
L 551.479205 603.761996 
L 551.245206 603.699626 
L 551.011208 604.204068 
L 551.011208 603.637056 
L 550.54321 604.648266 
L 550.54321 604.080246 
L 549.607216 604.973059 
L 549.139218 605.993779 
L 548.671221 605.301539 
L 547.969225 606.269287 
L 547.969225 603.963549 
L 547.735226 603.320292 
L 547.267229 603.772518 
L 547.267229 602.024256 
L 547.03323 601.957122 
L 546.799231 602.475514 
L 546.565232 601.234447 
L 546.097235 601.686359 
L 545.629238 602.730444 
L 545.629238 600.957743 
L 545.16124 601.41198 
L 545.16124 597.2332 
L 544.927242 597.757642 
L 544.459244 596.398389 
L 544.459244 595.186877 
L 543.991247 595.633751 
L 543.757248 595.553647 
L 543.523249 594.8626 
L 543.289251 595.392621 
L 543.289251 594.780839 
L 542.821253 594.616477 
L 542.821253 594.001408 
L 542.587255 594.533873 
L 542.353256 593.833658 
L 542.119257 593.74935 
L 541.65126 594.200604 
L 541.65126 592.958041 
L 541.417261 593.494674 
L 541.417261 592.871704 
L 541.183262 590.906173 
L 541.183262 587.118795 
L 540.481266 588.734509 
L 540.481266 587.462686 
L 540.247268 588.002981 
L 539.77927 587.169514 
L 539.077274 588.159615 
L 538.843275 588.705322 
L 538.141279 588.415923 
L 538.141279 587.769508 
L 537.439283 587.473251 
L 536.971286 588.578153 
L 536.971286 587.926647 
L 536.503288 587.728461 
L 536.26929 588.28414 
L 536.26929 586.972333 
L 535.099296 589.764984 
L 535.099296 587.125216 
L 534.865298 587.686438 
L 534.865298 585.693638 
L 534.631299 585.588806 
L 534.631299 584.920779 
L 533.929303 586.612318 
L 533.695304 586.508602 
L 533.461305 587.075479 
L 532.993308 586.868803 
L 532.291312 587.907566 
L 532.291312 585.199177 
L 532.057313 585.091358 
L 532.057313 584.409718 
L 531.589316 584.874504 
L 531.589316 583.504396 
L 531.355317 583.392566 
L 531.355317 579.937546 
L 530.88732 581.090044 
L 530.88732 580.394881 
L 530.419322 580.854831 
L 529.951325 580.617818 
L 529.951325 579.214589 
L 529.249329 580.962859 
L 528.781331 580.724204 
L 528.547333 581.311235 
L 528.547333 580.604184 
L 528.313334 579.773788 
L 528.079335 579.651338 
L 528.079335 578.938545 
L 527.845337 579.52841 
L 527.611338 579.405003 
L 527.14334 579.874199 
L 527.14334 578.437871 
L 526.675343 579.627046 
L 526.675343 578.184577 
L 526.207346 579.377943 
L 526.207346 575.014707 
L 525.739348 574.744748 
L 525.50535 575.344545 
L 525.271351 574.472628 
L 525.037352 571.365667 
L 524.101357 570.786284 
L 523.867359 571.393024 
L 523.63336 570.493053 
L 522.931364 571.566803 
L 522.931364 569.287311 
L 522.697365 569.899365 
L 522.697365 569.136258 
L 522.463367 569.749416 
L 522.463367 567.450183 
L 522.229368 566.52306 
L 521.76137 567.75413 
L 521.293373 567.441545 
L 521.059374 568.061246 
L 521.059374 566.505676 
L 520.591377 566.967752 
L 520.591377 563.040282 
L 520.357378 562.079574 
L 519.187385 565.208862 
L 518.953386 564.246895 
L 518.953386 563.448438 
L 518.485389 564.711114 
L 518.25139 564.543775 
L 517.783393 565.814229 
L 517.081396 566.121815 
L 516.3794 568.049142 
L 516.3794 566.432742 
L 516.145402 565.453817 
L 515.911403 566.099735 
L 515.443406 566.5807 
L 515.443406 564.945128 
L 514.975408 564.602267 
L 514.975408 563.777792 
L 514.273412 564.910977 
L 514.039413 565.567034 
L 513.103419 567.376224 
L 513.103419 565.711363 
L 512.635421 567.038494 
L 512.635421 566.202885 
L 512.167424 566.697724 
L 511.933425 567.366136 
L 511.231429 568.539915 
L 510.763432 569.047205 
L 510.529433 569.724364 
L 510.529433 568.879452 
L 510.061436 570.23802 
L 510.061436 568.541646 
L 509.827437 569.222875 
L 509.125441 569.57025 
L 508.657443 569.231732 
L 506.551455 575.498973 
L 506.551455 574.637098 
L 506.317456 574.477338 
L 505.849459 573.284988 
L 505.61546 573.993533 
L 505.381462 572.955653 
L 504.913464 574.380376 
L 504.913464 572.623182 
L 504.445467 572.28753 
L 504.445467 570.512676 
L 503.041475 569.457757 
L 502.573477 568.189445 
L 501.637482 569.289005 
L 501.403484 570.024982 
L 501.403484 569.107335 
L 500.701488 569.482075 
L 500.701488 568.556895 
L 500.467489 568.371582 
L 499.999491 569.861505 
L 499.063497 571.932431 
L 498.595499 570.634791 
L 498.361501 570.451463 
L 498.361501 569.507506 
L 497.659505 570.845339 
L 496.957508 573.147128 
L 496.957508 571.244285 
L 496.72351 571.059691 
L 496.72351 565.275488 
L 496.489511 564.09778 
L 496.021514 565.644771 
L 495.319518 567.001001 
L 494.617521 566.398028 
L 493.915525 568.76787 
L 493.213529 569.16947 
L 492.979531 566.967752 
L 492.277534 566.349761 
L 492.043536 563.078893 
L 491.34154 565.509928 
L 491.34154 564.482567 
L 491.107541 564.266589 
L 489.703549 569.199432 
L 489.46955 568.994201 
L 489.001553 570.660905 
L 488.533555 571.297543 
L 488.533555 566.056354 
L 488.299557 563.71478 
L 488.299557 561.578726 
L 487.363562 561.724628 
L 486.427567 565.136669 
L 486.427567 562.964387 
L 485.95957 560.298529 
L 485.491572 560.920324 
L 484.555577 561.064144 
L 484.321579 559.696793 
L 484.08758 559.447684 
L 483.853581 558.062732 
L 483.385584 559.829848 
L 483.385584 557.549327 
L 483.151585 554.988115 
L 482.21559 553.904332 
L 481.981592 550.08904 
L 481.045597 551.318461 
L 480.5776 550.740539 
L 479.173607 552.632486 
L 478.471611 552.986147 
L 478.237613 551.461809 
L 477.067619 556.194331 
L 475.897626 554.753728 
L 474.727632 557.0984 
L 474.025636 553.643343 
L 473.32364 552.721296 
L 472.621644 554.421019 
L 472.153646 549.803522 
L 472.153646 547.113582 
L 471.919648 542.687984 
L 470.983653 535.634261 
L 470.047658 539.755043 
L 469.579661 530.337212 
L 469.579661 524.457028 
L 468.877665 521.603981 
L 467.94167 519.729001 
L 467.005675 519.353134 
L 466.303679 514.718421 
L 464.899687 516.455492 
L 464.197691 514.899199 
L 463.963692 507.735456 
L 463.261696 502.620092 
L 462.091702 504.825671 
L 461.857704 502.485555 
L 461.155708 498.863515 
L 460.921709 490.99246 
L 460.219713 487.082524 
L 458.113725 492.069664 
L 457.17773 487.268784 
L 456.241735 486.259354 
L 455.773738 480.688827 
L 454.603744 482.863655 
L 452.029758 473.605653 
L 451.561761 471.805984 
L 450.625766 463.475547 
L 448.285779 458.04989 
L 447.583783 442.085181 
L 446.41379 425.093975 
L 444.5418 419.565578 
L 442.903809 408.972609 
L 440.797821 410.067323 
L 437.28784 403.992857 
L 434.245857 404.622716 
L 430.267879 400.702845 
L 427.225896 391.664453 
L 422.779921 416.924052 
L 418.099947 459.315127 
L 414.355968 453.046929 
L 411.313985 419.565578 
L 408.038003 327.655988 
L 396.338068 327.655988 
L 396.338068 327.655988 
" style="fill:none;stroke:#984ea3;stroke-linecap:square;stroke-width:1.5;"/>
   </g>
   <g id="line2d_30">
    <path clip-path="url(#paa2e55d49a)" d="M 690.474432 644.109034 
L 615.765675 629.988471 
L 614.121143 631.013846 
L 612.946477 632.075309 
L 612.711543 631.688044 
L 612.241677 632.039823 
L 612.241677 630.909654 
L 612.006744 631.274065 
L 612.006744 630.518516 
L 611.301944 630.477594 
L 610.597145 631.576808 
L 610.362211 631.56431 
L 609.422479 633.037278 
L 609.187545 633.026374 
L 609.187545 631.119089 
L 607.30808 634.087939 
L 607.30808 633.321916 
L 607.073147 633.694896 
L 607.073147 633.311229 
L 606.838213 633.684625 
L 606.838213 632.530998 
L 606.60328 632.904798 
L 606.60328 632.519377 
L 606.368347 632.893595 
L 606.368347 632.50773 
L 605.663547 633.632918 
L 605.663547 633.246596 
L 604.958748 634.375614 
L 604.958748 633.988833 
L 604.488881 634.743649 
L 604.488881 634.356416 
L 604.253948 634.734466 
L 604.253948 634.346784 
L 604.019015 634.725261 
L 604.019015 634.33713 
L 603.549149 635.095375 
L 603.549149 634.706789 
L 603.314215 635.086559 
L 603.314215 633.918103 
L 602.139549 635.823439 
L 602.139549 635.43303 
L 601.669683 636.198236 
L 601.669683 635.024271 
L 601.43475 635.407524 
L 601.43475 634.622603 
L 601.199817 635.006289 
L 601.199817 633.430951 
L 600.964883 633.81506 
L 600.964883 633.420074 
L 600.025151 634.960967 
L 600.025151 633.773169 
L 599.790217 634.1595 
L 599.790217 633.762635 
L 599.320351 634.536642 
L 599.320351 634.1393 
L 599.085418 634.526979 
L 599.085418 634.129165 
L 598.615551 634.905876 
L 598.615551 634.108823 
L 598.145685 634.88734 
L 598.145685 634.488098 
L 597.910752 634.878039 
L 597.910752 632.47263 
L 597.675819 632.862994 
L 597.675819 632.057376 
L 597.440885 632.448189 
L 597.440885 630.831177 
L 596.501153 632.398957 
L 596.501153 631.993469 
L 596.031286 632.780151 
L 596.031286 631.967693 
L 595.56142 632.756227 
L 595.56142 632.349253 
L 594.621687 633.93197 
L 594.621687 633.524481 
L 594.386754 633.921342 
L 594.386754 633.10488 
L 593.447021 634.697057 
L 593.447021 632.23566 
L 593.212088 632.634865 
L 593.212088 632.222886 
L 592.742222 633.022734 
L 592.742222 632.61024 
L 592.507288 633.010885 
L 592.507288 632.597882 
L 592.272355 632.999007 
L 592.272355 632.585494 
L 591.332622 634.19486 
L 591.332622 633.366263 
L 591.097689 633.76982 
L 591.097689 632.106507 
L 590.627823 632.915045 
L 590.627823 632.497926 
L 590.39289 632.902933 
L 590.39289 632.485294 
L 590.157956 632.89079 
L 590.157956 632.47263 
L 589.453157 633.692097 
L 589.453157 633.273399 
L 588.043558 635.725879 
L 588.043558 635.306625 
L 587.573691 636.128162 
L 587.573691 635.708377 
L 586.633958 637.357564 
L 586.633958 636.937238 
L 585.929159 638.179514 
L 585.929159 636.492905 
L 584.989426 638.156467 
L 584.989426 637.733477 
L 584.754493 638.150669 
L 584.754493 637.303087 
L 584.284626 638.139029 
L 584.284626 636.863627 
L 584.049693 637.282375 
L 584.049693 636.856163 
L 583.344894 638.115573 
L 583.344894 635.97634 
L 582.875027 636.818562 
L 582.875027 635.528461 
L 582.640094 635.95036 
L 582.640094 635.519224 
L 582.405161 635.941655 
L 582.405161 635.509964 
L 581.935294 636.356434 
L 581.935294 634.624095 
L 581.700361 635.048118 
L 581.700361 633.30685 
L 581.230495 634.156476 
L 581.230495 633.719744 
L 580.995562 634.14537 
L 580.995562 632.831768 
L 580.760628 633.257921 
L 580.760628 631.939195 
L 580.525695 632.365874 
L 580.525695 631.483856 
L 580.055829 632.338838 
L 580.055829 631.454491 
L 579.585962 632.311662 
L 579.585962 631.868607 
L 577.706497 635.319666 
L 577.706497 633.986828 
L 577.471564 634.420734 
L 577.471564 633.529241 
L 577.001697 634.398736 
L 577.001697 633.952094 
L 576.766764 634.387693 
L 576.766764 633.044205 
L 576.296898 633.917084 
L 576.296898 631.213958 
L 576.061964 631.651212 
L 576.061964 631.198585 
L 575.122232 632.953388 
L 575.122232 631.136681 
L 574.652365 632.017524 
L 574.652365 631.561807 
L 574.417432 632.003104 
L 574.417432 631.546767 
L 574.182499 631.988646 
L 574.182499 629.697693 
L 573.947566 630.140112 
L 573.947566 628.296162 
L 573.712633 628.739129 
L 573.712633 628.27657 
L 573.477699 628.720124 
L 573.477699 626.863555 
L 572.537967 628.643585 
L 572.537967 627.244353 
L 571.363301 629.482877 
L 571.363301 628.546731 
L 570.893434 629.446387 
L 570.893434 628.977324 
L 570.423568 629.879428 
L 570.423568 627.996609 
L 569.953701 628.901096 
L 569.953701 628.428739 
L 569.718768 628.881907 
L 569.718768 626.985875 
L 569.248902 627.893984 
L 569.248902 627.418301 
L 569.013969 627.873287 
L 569.013969 627.396928 
L 568.779035 627.852534 
L 568.779035 626.897793 
L 568.309169 627.810852 
L 568.309169 627.332452 
L 567.839303 628.248036 
L 567.839303 627.768937 
L 567.604369 628.227676 
L 567.604369 627.267432 
L 567.369436 627.726786 
L 567.369436 627.245637 
L 566.89957 628.166254 
L 566.89957 627.684398 
L 565.724904 629.997249 
L 565.724904 629.514643 
L 565.489971 629.979163 
L 565.489971 629.495861 
L 565.255037 629.961027 
L 565.255037 629.477026 
L 565.020104 629.942839 
L 565.020104 629.458138 
L 564.785171 629.924599 
L 564.785171 628.953101 
L 564.550238 629.420199 
L 564.550238 628.445903 
L 564.315305 628.913639 
L 564.315305 628.425434 
L 563.610505 629.832616 
L 563.610505 628.363673 
L 563.375572 628.834036 
L 563.375572 627.851193 
L 563.140639 628.322202 
L 563.140639 626.842579 
L 562.200906 628.733237 
L 562.200906 624.75553 
L 561.965973 625.229771 
L 561.965973 624.729282 
L 561.731039 625.204196 
L 561.731039 624.702958 
L 561.496106 625.178546 
L 561.496106 624.173834 
L 561.261173 624.650078 
L 561.261173 624.1466 
L 560.791307 625.101144 
L 560.791307 622.572444 
L 560.556373 623.050666 
L 560.556373 622.54267 
L 559.381707 624.944279 
L 559.381707 624.435428 
L 558.676908 625.884882 
L 558.676908 624.864798 
L 558.441975 625.349346 
L 558.441975 623.299973 
L 558.207041 623.785161 
L 558.207041 622.755839 
L 557.972108 623.241709 
L 557.972108 621.173713 
L 557.032375 623.12413 
L 557.032375 622.605096 
L 556.562509 623.58467 
L 556.562509 622.544161 
L 555.622776 624.512029 
L 555.622776 623.990506 
L 554.683043 625.970256 
L 554.683043 625.447858 
L 553.978244 626.940536 
L 553.978244 624.842721 
L 553.743311 625.341721 
L 553.743311 623.759849 
L 553.508378 624.259551 
L 553.508378 623.200871 
L 552.568645 625.207209 
L 552.568645 624.676557 
L 552.333712 625.180057 
L 552.333712 624.648563 
L 552.098778 625.15282 
L 552.098778 624.087318 
L 551.863845 624.592314 
L 551.863845 624.058301 
L 551.159046 625.577937 
L 551.159046 625.043028 
L 550.924112 625.55113 
L 550.924112 622.863922 
L 550.454246 623.882286 
L 550.454246 622.801408 
L 549.27958 625.361116 
L 549.27958 624.819286 
L 548.57478 626.364752 
L 548.57478 622.547377 
L 548.104914 623.581453 
L 548.104914 621.38075 
L 547.635048 622.417923 
L 547.635048 621.31218 
L 547.165181 622.352572 
L 547.165181 621.798316 
L 546.930248 622.319739 
L 546.930248 620.651532 
L 545.050782 624.852693 
L 545.050782 622.614942 
L 544.11105 624.735652 
L 544.11105 623.047438 
L 543.876116 623.579706 
L 543.876116 619.036776 
L 543.171317 620.638154 
L 543.171317 618.918775 
L 542.70145 619.990594 
L 542.70145 614.19636 
L 541.996651 615.809738 
L 541.996651 615.224858 
L 541.526784 616.304887 
L 541.526784 615.13202 
L 541.291851 615.673322 
L 541.291851 615.085366 
L 541.056918 615.627543 
L 541.056918 615.038554 
L 540.821985 615.581609 
L 540.821985 614.400558 
L 539.647319 617.129294 
L 539.647319 615.349587 
L 539.412386 615.898009 
L 539.412386 613.510678 
L 539.177452 614.059875 
L 539.177452 612.859975 
L 538.002786 615.619735 
L 538.002786 614.415272 
L 537.063054 616.639965 
L 537.063054 614.824935 
L 536.82812 615.383401 
L 536.82812 614.776242 
L 536.593187 615.335639 
L 536.593187 614.727379 
L 536.358254 615.287711 
L 536.358254 614.678346 
L 536.123321 615.239615 
L 536.123321 614.017596 
L 535.183588 616.272196 
L 535.183588 614.430583 
L 534.948655 614.996588 
L 534.948655 614.380506 
L 534.713722 614.947467 
L 534.713722 613.711941 
L 534.478788 614.279817 
L 534.478788 611.795398 
L 534.008922 612.933808 
L 534.008922 611.058559 
L 533.539056 612.200745 
L 533.539056 611.573325 
L 533.304122 612.145904 
L 533.304122 610.256725 
L 532.599323 611.980195 
L 532.599323 611.348045 
L 532.36439 611.924559 
L 532.36439 610.656727 
L 531.894523 611.812682 
L 531.894523 610.540041 
L 531.424657 611.699991 
L 531.424657 609.14035 
L 531.189724 609.721697 
L 531.189724 606.495434 
L 530.719857 607.660748 
L 530.719857 606.361686 
L 530.484924 606.945832 
L 530.484924 606.294442 
L 530.015058 607.465851 
L 530.015058 606.813133 
L 529.780125 607.400404 
L 529.780125 606.746414 
L 529.545191 607.334714 
L 529.545191 605.365254 
L 529.310258 605.954459 
L 529.310258 605.29546 
L 529.075325 605.885701 
L 529.075325 604.563875 
L 528.840392 605.155089 
L 528.840392 603.828172 
L 528.370525 605.013662 
L 528.370525 604.348198 
L 528.135592 604.942549 
L 528.135592 604.275764 
L 527.900659 604.871168 
L 527.900659 603.533681 
L 527.665726 604.130073 
L 527.665726 603.459361 
L 527.195859 604.655399 
L 527.195859 603.983275 
L 526.725993 605.183724 
L 526.725993 603.159245 
L 526.256127 604.363857 
L 526.256127 603.686308 
L 526.021193 604.290273 
L 526.021193 602.931134 
L 525.551327 604.142256 
L 525.551327 603.460582 
L 525.316394 604.06782 
L 525.316394 602.014679 
L 525.081461 602.622867 
L 525.081461 601.247327 
L 524.141728 603.691295 
L 524.141728 602.309794 
L 523.436928 604.154844 
L 523.436928 602.767485 
L 522.967062 604.003245 
L 522.967062 603.307373 
L 521.557463 607.043498 
L 521.557463 606.345815 
L 521.322529 606.972744 
L 521.322529 606.273607 
L 521.087596 606.901708 
L 521.087596 606.201112 
L 520.852663 606.83039 
L 520.852663 604.720008 
L 520.61773 605.35032 
L 520.61773 604.643975 
L 520.382797 605.275471 
L 520.382797 604.567637 
L 520.147863 605.200323 
L 520.147863 603.78024 
L 519.443064 605.685474 
L 519.443064 602.827168 
L 519.208131 603.464496 
L 519.208131 601.305297 
L 518.503331 603.224312 
L 518.503331 601.777012 
L 518.268398 602.419125 
L 518.268398 601.693172 
L 518.033465 602.336514 
L 518.033465 601.608989 
L 517.798531 602.253565 
L 517.798531 600.793856 
L 516.858799 603.38476 
L 516.858799 601.182844 
L 516.623865 601.833658 
L 516.623865 601.096554 
L 516.388932 601.74863 
L 516.388932 599.527839 
L 516.153999 600.180999 
L 516.153999 597.197876 
L 515.919066 597.852017 
L 515.919066 596.350862 
L 515.684133 597.006176 
L 515.684133 593.225016 
L 515.449199 593.881183 
L 515.449199 593.120038 
L 514.979333 594.436328 
L 514.979333 593.673347 
L 514.509467 594.995021 
L 514.509467 591.925901 
L 514.274533 592.588405 
L 514.274533 591.816901 
L 513.804667 593.145944 
L 513.804667 592.372551 
L 513.099867 594.376515 
L 513.099867 593.60111 
L 512.864934 594.27187 
L 512.864934 593.494674 
L 512.160135 595.515348 
L 512.160135 594.736124 
L 511.455335 596.769674 
L 511.455335 593.634376 
L 511.220402 594.314734 
L 511.220402 591.94481 
L 510.515602 593.993808 
L 510.515602 593.199987 
L 510.280669 593.885886 
L 510.280669 593.090187 
L 510.045736 593.777485 
L 510.045736 592.180543 
L 508.87107 595.638828 
L 508.87107 593.22819 
L 507.931337 596.021346 
L 507.931337 595.213702 
L 507.696404 595.915809 
L 507.696404 595.10622 
L 507.461471 595.809793 
L 507.461471 594.998251 
L 507.226538 595.703297 
L 507.226538 594.889792 
L 506.756671 596.30445 
L 506.756671 595.488849 
L 505.582005 599.053232 
L 505.582005 597.415234 
L 505.347072 598.132783 
L 505.347072 596.487002 
L 505.112139 597.205964 
L 505.112139 596.380103 
L 504.877206 597.100603 
L 504.877206 596.272708 
L 504.172406 598.443876 
L 504.172406 597.613692 
L 502.762807 602.001042 
L 502.762807 600.333435 
L 502.058007 602.54964 
L 502.058007 598.344355 
L 501.118274 601.321483 
L 501.118274 599.624394 
L 500.883341 600.372873 
L 500.883341 599.521164 
L 500.413475 601.023259 
L 500.413475 600.169264 
L 499.943608 601.678341 
L 499.943608 599.963689 
L 499.708675 600.720713 
L 499.708675 597.265952 
L 499.473742 598.024297 
L 499.473742 597.155225 
L 499.003876 598.677195 
L 499.003876 596.932148 
L 498.768942 597.695654 
L 498.768942 596.819789 
L 498.534009 597.585031 
L 498.534009 593.172583 
L 498.299076 593.938992 
L 498.299076 593.049806 
L 498.064143 593.817962 
L 498.064143 592.032661 
L 497.82921 592.802419 
L 497.82921 591.90628 
L 497.594276 592.6778 
L 497.594276 590.87849 
L 497.359343 591.65162 
L 497.359343 589.842963 
L 497.12441 590.617706 
L 497.12441 589.709802 
L 496.889477 590.486328 
L 496.889477 587.748344 
L 496.654544 588.526319 
L 496.654544 587.60886 
L 495.479878 591.527618 
L 495.479878 585.968179 
L 495.244944 586.75688 
L 495.244944 584.884248 
L 494.775078 586.467008 
L 494.775078 584.583909 
L 494.305212 586.174121 
L 494.305212 585.228512 
L 493.835345 586.826635 
L 493.835345 585.878171 
L 493.600412 586.680174 
L 493.600412 582.860588 
L 492.895612 585.276888 
L 492.895612 582.383819 
L 492.425746 584.004128 
L 492.425746 582.061735 
L 492.190813 582.874704 
L 492.190813 581.899401 
L 491.016147 585.995981 
L 491.016147 582.064151 
L 490.54628 583.71657 
L 490.54628 576.72918 
L 490.311347 577.557138 
L 490.311347 574.520591 
L 489.841481 576.181842 
L 489.841481 573.118514 
L 489.371615 574.787418 
L 489.371615 571.696856 
L 488.901748 573.373465 
L 488.901748 572.33696 
L 488.431882 574.022443 
L 488.431882 572.982472 
L 487.727082 575.527741 
L 487.727082 572.387653 
L 487.257216 574.09489 
L 487.257216 573.041671 
L 487.022283 573.898662 
L 487.022283 571.782608 
L 486.552416 573.502824 
L 486.552416 572.43966 
L 486.317483 573.303193 
L 486.317483 569.018565 
L 485.612683 571.620622 
L 485.612683 568.371582 
L 484.907884 570.993714 
L 484.907884 569.903409 
L 484.672951 570.782283 
L 484.672951 569.688449 
L 484.438017 570.569603 
L 484.438017 568.371582 
L 484.203084 569.254704 
L 484.203084 568.150474 
L 483.733218 569.923955 
L 483.733218 566.589474 
L 482.558552 571.064903 
L 482.558552 568.821827 
L 482.323619 569.724364 
L 482.323619 566.333144 
L 482.088685 567.23739 
L 482.088685 563.813971 
L 481.853752 564.719901 
L 481.853752 557.775489 
L 481.618819 558.681889 
L 481.618819 555.159834 
L 479.974287 561.575717 
L 479.974287 560.391449 
L 479.269487 563.183417 
L 479.269487 559.604349 
L 479.034554 560.539687 
L 479.034554 554.495781 
L 478.564687 556.371098 
L 478.564687 555.149724 
L 478.094821 557.036279 
L 478.094821 555.810036 
L 477.859888 556.757455 
L 477.859888 553.053317 
L 477.624955 554.002426 
L 477.624955 551.511789 
L 476.920155 554.374978 
L 476.920155 553.122041 
L 476.450289 555.045671 
L 476.450289 552.525352 
L 476.215355 553.490982 
L 476.215355 552.224019 
L 475.980422 553.192374 
L 475.980422 550.644692 
L 475.745489 551.615276 
L 475.745489 549.049386 
L 475.040689 551.9777 
L 475.040689 550.686658 
L 474.570823 552.654423 
L 474.570823 544.808497 
L 474.33589 545.79412 
L 474.33589 543.141498 
L 474.100957 544.129356 
L 474.100957 542.79555 
L 473.63109 544.780386 
L 473.63109 539.393571 
L 472.691357 543.395309 
L 472.691357 540.668337 
L 472.221491 542.687984 
L 472.221491 541.315945 
L 471.516691 544.370614 
L 471.516691 536.022451 
L 471.046825 538.069269 
L 471.046825 535.243238 
L 470.811892 536.270835 
L 470.811892 533.422649 
L 470.576959 534.452567 
L 470.576959 531.581906 
L 470.342025 532.614132 
L 470.342025 531.170081 
L 469.872159 533.244514 
L 469.872159 531.79357 
L 469.637226 532.83582 
L 469.637226 526.974423 
L 469.402293 528.017412 
L 469.402293 526.537441 
L 469.167359 527.583547 
L 469.167359 526.097149 
L 468.697493 528.199619 
L 468.697493 526.705901 
L 468.46256 527.76231 
L 468.46256 526.262044 
L 467.992694 528.385324 
L 467.992694 522.319434 
L 467.522827 524.45214 
L 467.522827 522.919165 
L 467.052961 525.06671 
L 467.052961 521.979122 
L 466.818028 523.057377 
L 466.818028 519.943593 
L 465.643362 525.389768 
L 465.643362 523.818886 
L 465.408428 524.920229 
L 465.408428 523.34211 
L 464.938562 525.556173 
L 464.938562 522.376999 
L 464.468696 524.60511 
L 464.468696 521.396163 
L 463.763896 524.766544 
L 463.763896 523.149224 
L 463.528963 524.280914 
L 463.528963 522.655923 
L 463.29403 523.791271 
L 463.29403 522.158537 
L 462.58923 525.589856 
L 462.58923 518.977993 
L 462.354297 520.127109 
L 462.354297 515.091466 
L 462.119364 516.24209 
L 462.119364 514.548134 
L 461.88443 515.702506 
L 461.88443 514.000158 
L 461.649497 515.1583 
L 461.649497 513.447478 
L 461.179631 515.776357 
L 461.179631 514.055784 
L 460.474831 517.583446 
L 460.474831 514.112624 
L 460.004965 516.485278 
L 460.004965 512.979039 
L 459.535098 515.367674 
L 459.535098 508.251299 
L 458.830299 511.85874 
L 458.830299 504.597581 
L 458.595366 505.805421 
L 458.595366 502.122334 
L 458.360432 503.332802 
L 458.360432 495.858726 
L 458.125499 497.068705 
L 458.125499 493.276459 
L 457.890566 494.488881 
L 457.890566 492.57787 
L 456.7159 498.717708 
L 456.7159 496.789547 
L 456.480967 498.033352 
L 456.480967 496.09438 
L 456.0111 498.596518 
L 456.0111 490.733667 
L 455.776167 491.986902 
L 455.776167 489.995604 
L 455.541234 491.253142 
L 455.541234 485.215286 
L 455.071368 487.737787 
L 455.071368 483.655293 
L 454.601501 486.195132 
L 454.601501 479.983054 
L 454.366568 481.25651 
L 454.366568 474.944015 
L 453.896702 477.497687 
L 453.896702 473.227078 
L 453.661768 474.509334 
L 453.661768 472.355369 
L 453.191902 474.935254 
L 453.191902 472.765652 
L 452.487102 476.67911 
L 452.487102 474.491355 
L 452.252169 475.807218 
L 452.252169 471.392471 
L 452.017236 472.71058 
L 452.017236 468.244138 
L 451.54737 470.891713 
L 451.54737 468.635655 
L 451.312436 469.967612 
L 451.312436 465.413915 
L 451.077503 466.74797 
L 451.077503 464.449998 
L 450.84257 465.788697 
L 450.84257 458.811118 
L 450.607637 460.149034 
L 450.607637 457.794745 
L 448.963104 467.351168 
L 448.963104 462.563347 
L 448.728171 463.953733 
L 448.728171 456.660485 
L 448.493238 458.04989 
L 448.493238 455.587781 
L 448.258305 456.982117 
L 448.258305 446.977211 
L 447.553505 451.170393 
L 447.553505 443.480829 
L 447.318572 444.884809 
L 447.318572 439.674498 
L 446.848706 442.493392 
L 446.848706 437.205196 
L 445.908973 442.916674 
L 445.908973 440.233079 
L 445.439107 443.134231 
L 445.439107 440.426233 
L 444.499374 446.322494 
L 444.499374 443.581737 
L 444.264441 445.075179 
L 444.264441 442.312993 
L 443.794574 445.320464 
L 443.794574 442.532421 
L 443.559641 444.046566 
L 443.559641 441.236356 
L 442.854841 445.825461 
L 442.854841 440.124303 
L 442.384975 443.216864 
L 442.384975 437.422299 
L 442.150042 438.975057 
L 442.150042 436.044096 
L 441.210309 442.342007 
L 441.210309 439.372521 
L 440.740443 442.576816 
L 440.740443 439.57742 
L 440.035643 444.452994 
L 440.035643 441.418208 
L 439.565777 444.715889 
L 439.565777 441.649862 
L 439.330843 443.311217 
L 439.330843 440.218369 
L 438.626044 445.258701 
L 438.626044 442.128222 
L 438.391111 443.827427 
L 438.391111 434.282656 
L 437.921244 437.685867 
L 437.921244 427.894273 
L 437.686311 429.597444 
L 437.686311 422.934771 
L 437.451378 424.63851 
L 437.451378 421.262985 
L 436.041779 431.724824 
L 436.041779 428.28468 
L 435.806845 430.069532 
L 435.806845 426.595783 
L 434.397246 437.566305 
L 434.397246 434.024461 
L 433.457513 441.610912 
L 433.457513 438.012604 
L 431.108181 458.04989 
L 431.108181 454.351397 
L 430.873248 456.443588 
L 430.873248 452.70578 
L 429.228716 467.826985 
L 429.228716 460.149034 
L 428.523916 466.881773 
L 428.523916 451.003466 
L 428.05405 455.532906 
L 428.05405 451.452579 
L 427.584183 456.051666 
L 427.584183 439.260491 
L 427.114317 443.87547 
L 427.114317 439.554445 
L 426.879384 441.886479 
L 426.879384 437.512031 
L 425.939651 447.037456 
L 425.939651 433.516141 
L 425.234852 440.823579 
L 425.234852 436.187526 
L 424.999918 438.663675 
L 424.999918 433.966159 
L 424.764985 436.457071 
L 424.764985 431.696503 
L 423.590319 444.505132 
L 423.590319 434.698392 
L 422.18072 450.893158 
L 422.18072 445.825461 
L 421.710854 451.452579 
L 421.710854 446.297196 
L 421.47592 449.147495 
L 421.47592 443.915652 
L 421.240987 446.786189 
L 421.240987 441.475665 
L 420.771121 447.293405 
L 420.771121 441.886479 
L 420.536188 444.834522 
L 420.536188 439.343591 
L 420.066321 445.320464 
L 420.066321 439.726392 
L 418.656722 458.514801 
L 418.656722 452.745295 
L 418.421789 456.007865 
L 418.421789 450.142154 
L 418.186856 453.431772 
L 418.186856 441.418208 
L 417.951922 444.715889 
L 417.951922 432.320379 
L 417.247123 442.375258 
L 417.247123 435.978005 
L 416.777256 442.885922 
L 416.777256 436.34821 
L 415.367657 458.231705 
L 415.367657 437.566305 
L 414.897791 445.179727 
L 414.897791 438.012604 
L 414.427924 445.825461 
L 414.427924 438.481596 
L 413.958058 446.504596 
L 413.958058 438.975057 
L 413.723125 443.061263 
L 413.723125 411.448887 
L 413.253258 419.565578 
L 413.253258 411.221316 
L 413.018325 415.354088 
L 413.018325 389.22649 
L 412.548459 397.465677 
L 412.548459 388.316318 
L 412.313526 392.509941 
L 412.313526 353.777661 
L 411.13886 374.923777 
L 411.13886 364.390318 
L 410.903926 368.836259 
L 410.903926 357.99068 
L 410.668993 362.4656 
L 410.668993 351.289882 
L 410.43406 355.791577 
L 410.43406 332.459625 
L 409.964194 341.442426 
L 409.964194 329.151804 
L 409.72926 333.715961 
L 409.72926 307.961075 
L 409.494327 312.425256 
L 409.494327 298.912062 
L 409.259394 303.374589 
L 409.259394 274.951293 
L 408.554594 288.266163 
L 408.554594 257.231756 
L 407.379928 280.517345 
L 407.379928 263.319274 
L 406.440196 284.045825 
L 406.440196 245.958574 
L 405.26553 273.796432 
L 405.26553 252.158824 
L 405.030597 258.095234 
L 405.030597 235.17553 
L 404.325797 253.456551 
L 404.325797 228.243573 
L 404.090864 234.465427 
L 404.090864 207.517023 
L 403.855931 213.526496 
L 403.855931 184.60873 
L 402.916198 209.486514 
L 402.446331 224.257698 
L 402.446331 189.156282 
L 402.211398 196.356573 
L 402.211398 157.872261 
L 401.506599 179.186649 
L 400.801799 206.061312 
L 400.801799 155.773117 
L 400.096999 184.60873 
L 400.096999 121.953571 
L 399.627133 140.554321 
L 399.627133 62.431169 
L 399.157267 76.167108 
L 398.6874 94.897934 
L 398.217534 121.953571 
L 397.747667 164.469572 
L 397.277801 240.998374 
L 397.042868 307.961075 
L 396.807935 419.565578 
L 396.338068 419.565578 
L 396.338068 419.565578 
" style="fill:none;stroke:#4daf4a;stroke-linecap:square;stroke-width:1.5;"/>
   </g>
   <g id="patch_9">
    <path d="M 381.63125 673.718125 
L 381.63125 22.318125 
" style="fill:none;stroke:#000000;stroke-linecap:square;stroke-linejoin:miter;stroke-width:0.8;"/>
   </g>
   <g id="patch_10">
    <path d="M 705.18125 673.718125 
L 705.18125 22.318125 
" style="fill:none;stroke:#000000;stroke-linecap:square;stroke-linejoin:miter;stroke-width:0.8;"/>
   </g>
   <g id="patch_11">
    <path d="M 381.63125 673.718125 
L 705.18125 673.718125 
" style="fill:none;stroke:#000000;stroke-linecap:square;stroke-linejoin:miter;stroke-width:0.8;"/>
   </g>
   <g id="patch_12">
    <path d="M 381.63125 22.318125 
L 705.18125 22.318125 
" style="fill:none;stroke:#000000;stroke-linecap:square;stroke-linejoin:miter;stroke-width:0.8;"/>
   </g>
   <g id="text_24">
    <!-- Permutations = 500 -->
    <g transform="translate(483.364062 16.318125)scale(0.12 -0.12)">
     <use xlink:href="#DejaVuSans-80"/>
     <use x="56.677734" xlink:href="#DejaVuSans-101"/>
     <use x="118.201172" xlink:href="#DejaVuSans-114"/>
     <use x="157.564453" xlink:href="#DejaVuSans-109"/>
     <use x="254.976562" xlink:href="#DejaVuSans-117"/>
     <use x="318.355469" xlink:href="#DejaVuSans-116"/>
     <use x="357.564453" xlink:href="#DejaVuSans-97"/>
     <use x="418.84375" xlink:href="#DejaVuSans-116"/>
     <use x="458.052734" xlink:href="#DejaVuSans-105"/>
     <use x="485.835938" xlink:href="#DejaVuSans-111"/>
     <use x="547.017578" xlink:href="#DejaVuSans-110"/>
     <use x="610.396484" xlink:href="#DejaVuSans-115"/>
     <use x="662.496094" xlink:href="#DejaVuSans-32"/>
     <use x="694.283203" xlink:href="#DejaVuSans-61"/>
     <use x="778.072266" xlink:href="#DejaVuSans-32"/>
     <use x="809.859375" xlink:href="#DejaVuSans-53"/>
     <use x="873.482422" xlink:href="#DejaVuSans-48"/>
     <use x="937.105469" xlink:href="#DejaVuSans-48"/>
    </g>
   </g>
  </g>
 </g>
 <defs>
  <clipPath id="p76ee71a855">
   <rect height="651.4" width="323.55" x="43.78125" y="22.318125"/>
  </clipPath>
  <clipPath id="paa2e55d49a">
   <rect height="651.4" width="323.55" x="381.63125" y="22.318125"/>
  </clipPath>
 </defs>
</svg>
